<?xml version="1.0" encoding="utf-8"?>
<!-- Generator: Adobe Illustrator 14.0.0, SVG Export Plug-In  -->
<!DOCTYPE svg PUBLIC "-//W3C//DTD SVG 1.1//EN" "http://www.w3.org/Graphics/SVG/1.1/DTD/svg11.dtd" [
	<!ENTITY ns_flows "http://ns.adobe.com/Flows/1.0/">
]>
<svg version="1.1"
	 xmlns="http://www.w3.org/2000/svg" xmlns:xlink="http://www.w3.org/1999/xlink" xmlns:a="http://ns.adobe.com/AdobeSVGViewerExtensions/3.0/"
	 x="0px" y="0px" width="150px" height="150px" viewBox="150 150 150 150" enable-background="new 150 150 150 150"
	 xml:space="preserve">
<defs>
</defs>
<line fill="none" stroke="#000000" x1="165.987" y1="270" x2="284.013" y2="270"/>
<line display="none" fill="none" stroke="#000000" x1="150.077" y1="0" x2="150.077" y2="750"/>
<line display="none" fill="none" stroke="#000000" x1="300.058" y1="0" x2="300.058" y2="750"/>
<line display="none" fill="none" stroke="#000000" x1="0" y1="150" x2="750" y2="150"/>
<line display="none" fill="none" stroke="#000000" x1="0" y1="300" x2="750" y2="300"/>
<path d="M164.808,177.254l5.433-17.18h1.993l5.77,17.18h-2.133l-1.639-5.203h-5.927l-1.531,5.203H164.808z M168.85,170.199h4.799
	l-1.464-4.758c-0.453-1.461-0.785-2.648-0.996-3.563c-0.182,1.102-0.439,2.195-0.772,3.281L168.85,170.199z"/>
<path d="M185.843,177.254v-1.57c-0.313,0.602-0.715,1.061-1.207,1.377s-1.023,0.475-1.594,0.475c-1.203,0-2.244-0.568-3.123-1.705
	s-1.318-2.736-1.318-4.799c0-1.414,0.195-2.613,0.585-3.598c0.39-0.984,0.911-1.715,1.562-2.191c0.651-0.477,1.375-0.715,2.17-0.715
	c0.569,0,1.098,0.15,1.585,0.451s0.891,0.721,1.211,1.26v-6.164h1.746v17.18H185.843z M180.37,171.043
	c0,1.609,0.279,2.805,0.838,3.586s1.21,1.172,1.953,1.172c0.734,0,1.372-0.375,1.911-1.125s0.809-1.883,0.809-3.398
	c0-1.742-0.27-3.014-0.809-3.814s-1.22-1.201-2.041-1.201c-0.727,0-1.353,0.385-1.876,1.154
	C180.632,168.186,180.37,169.395,180.37,171.043z"/>
<path d="M196.788,177.254v-1.57c-0.313,0.602-0.715,1.061-1.207,1.377s-1.023,0.475-1.594,0.475c-1.203,0-2.244-0.568-3.123-1.705
	s-1.318-2.736-1.318-4.799c0-1.414,0.195-2.613,0.585-3.598c0.39-0.984,0.911-1.715,1.562-2.191c0.651-0.477,1.375-0.715,2.17-0.715
	c0.569,0,1.098,0.15,1.585,0.451s0.891,0.721,1.211,1.26v-6.164h1.746v17.18H196.788z M191.315,171.043
	c0,1.609,0.279,2.805,0.838,3.586s1.21,1.172,1.953,1.172c0.734,0,1.372-0.375,1.911-1.125s0.809-1.883,0.809-3.398
	c0-1.742-0.27-3.014-0.809-3.814s-1.22-1.201-2.041-1.201c-0.727,0-1.353,0.385-1.876,1.154
	C191.577,168.186,191.315,169.395,191.315,171.043z"/>
<path d="M206.538,182.047l-0.188-1.98c0.383,0.125,0.711,0.188,0.985,0.188c0.367,0,0.67-0.074,0.909-0.223
	c0.239-0.148,0.436-0.379,0.592-0.692c0.055-0.109,0.282-0.798,0.681-2.067l-3.882-12.464h1.863l2.133,7.203
	c0.266,0.898,0.512,1.858,0.738,2.881c0.195-0.968,0.43-1.913,0.703-2.834l2.18-7.25h1.734l-3.872,12.656
	c-0.509,1.641-0.91,2.736-1.203,3.287s-0.626,0.947-0.998,1.189s-0.792,0.363-1.262,0.363
	C207.324,182.305,206.953,182.219,206.538,182.047z"/>
<path d="M215.784,171.031c0-2.148,0.451-3.77,1.354-4.863s2.045-1.641,3.428-1.641c1.359,0,2.496,0.547,3.41,1.641
	s1.371,2.672,1.371,4.734c0,2.234-0.449,3.898-1.348,4.992s-2.043,1.641-3.434,1.641c-1.367,0-2.506-0.549-3.416-1.646
	S215.784,173.172,215.784,171.031z M217.554,171.025c0,1.611,0.293,2.81,0.879,3.596s1.313,1.179,2.18,1.179
	c0.813,0,1.51-0.397,2.092-1.191s0.873-1.989,0.873-3.584c0-1.604-0.293-2.798-0.879-3.584s-1.313-1.179-2.18-1.179
	c-0.82,0-1.52,0.395-2.098,1.185S217.554,169.43,217.554,171.025z"/>
<path d="M234.065,177.254v-1.828c-0.398,0.703-0.867,1.23-1.406,1.582s-1.148,0.527-1.828,0.527c-0.805,0-1.492-0.217-2.063-0.65
	s-0.951-0.982-1.143-1.646s-0.287-1.57-0.287-2.719v-7.711h1.723v6.902c0,1.281,0.064,2.139,0.193,2.572s0.367,0.781,0.715,1.043
	s0.744,0.393,1.189,0.393c0.828,0,1.508-0.34,2.039-1.02c0.453-0.586,0.68-1.66,0.68-3.223v-6.668h1.734v12.445H234.065z"/>
<path d="M238.331,177.254v-12.445h1.559v1.887c0.398-0.875,0.764-1.455,1.096-1.74s0.705-0.428,1.119-0.428
	c0.578,0,1.168,0.227,1.77,0.68l-0.586,1.957c-0.43-0.305-0.848-0.457-1.254-0.457c-0.367,0-0.703,0.129-1.008,0.387
	s-0.52,0.617-0.645,1.078c-0.219,0.805-0.328,1.66-0.328,2.566v6.516H238.331z"/>
<path d="M249.698,171.031c0-2.148,0.451-3.77,1.354-4.863s2.045-1.641,3.428-1.641c1.359,0,2.496,0.547,3.41,1.641
	s1.371,2.672,1.371,4.734c0,2.234-0.449,3.898-1.348,4.992s-2.043,1.641-3.434,1.641c-1.367,0-2.506-0.549-3.416-1.646
	S249.698,173.172,249.698,171.031z M251.468,171.025c0,1.611,0.293,2.81,0.879,3.596s1.313,1.179,2.18,1.179
	c0.813,0,1.51-0.397,2.092-1.191s0.873-1.989,0.873-3.584c0-1.604-0.293-2.798-0.879-3.584s-1.313-1.179-2.18-1.179
	c-0.82,0-1.52,0.395-2.098,1.185S251.468,169.43,251.468,171.025z"/>
<path d="M263.181,177.254l-3.135-12.445h1.788l1.625,7.184l0.601,2.672l0.54-2.566l1.619-7.289h1.786l1.518,7.219l0.514,2.379
	l0.584-2.402l1.742-7.195h1.688l-3.186,12.445h-1.8l-1.629-7.453l-0.387-2.121l-2.063,9.574H263.181z"/>
<path d="M275.503,177.254v-12.445h1.559v1.758c0.374-0.684,0.833-1.194,1.375-1.532c0.542-0.338,1.164-0.507,1.866-0.507
	c0.546,0,1.051,0.107,1.515,0.322c0.464,0.215,0.838,0.496,1.123,0.844s0.497,0.799,0.638,1.354c0.14,0.555,0.21,1.406,0.21,2.555
	v7.652h-1.723v-7.578c0-0.916-0.078-1.584-0.234-2.006s-0.4-0.749-0.732-0.979c-0.332-0.231-0.717-0.346-1.154-0.346
	c-0.828,0-1.488,0.309-1.98,0.927c-0.492,0.618-0.738,1.678-0.738,3.179v6.804H275.503z"/>
</svg>
