<?xml version="1.0" encoding="utf-8"?>
<!-- Generator: Adobe Illustrator 14.0.0, SVG Export Plug-In  -->
<!DOCTYPE svg PUBLIC "-//W3C//DTD SVG 1.1//EN" "http://www.w3.org/Graphics/SVG/1.1/DTD/svg11.dtd" [
	<!ENTITY ns_flows "http://ns.adobe.com/Flows/1.0/">
]>
<svg version="1.1"
	 xmlns="http://www.w3.org/2000/svg" xmlns:xlink="http://www.w3.org/1999/xlink" xmlns:a="http://ns.adobe.com/AdobeSVGViewerExtensions/3.0/"
	 x="0px" y="0px" width="150px" height="150px" viewBox="0.5 0.5 150 150" enable-background="new 0.5 0.5 150 150"
	 xml:space="preserve">
<defs>
</defs>
<path fill="#636466" d="M58.188,110.021h35.211c0-7.27,5.892-13.16,13.158-13.16c6.85,0,12.479,5.235,13.1,11.923v0.006h5.844
	V98.609c0,0-0.061-1.093-0.644-1.748c-1.384-1.548-8.892-3.921-13.788-4.952c-4.899-1.031-13.533-2.319-13.533-2.319L79.501,75.285
	H46.504c0,0-4.527,2.322-9.793,6.444c-5.522,4.325-8.634,8.119-8.634,8.119L25.5,90.492v17.396l2.075,1.202h4.327
	c0.477-6.833,6.171-12.229,13.126-12.229C52.296,96.861,58.188,102.751,58.188,110.021z"/>
<path fill="#636466" d="M52.768,110.021c0,4.272-3.464,7.736-7.739,7.736s-7.738-3.464-7.738-7.736c0-4.276,3.463-7.742,7.738-7.742
	S52.768,105.745,52.768,110.021z"/>
<path fill="#636466" d="M114.296,110.021c0,4.272-3.464,7.736-7.739,7.736s-7.741-3.464-7.741-7.736
	c0-4.276,3.466-7.742,7.741-7.742S114.296,105.745,114.296,110.021z"/>
<polygon fill="#FFFFFF" points="62.349,78.047 78.362,78.047 91.345,89.517 62.349,89.517 "/>
<path fill="#FFFFFF" d="M59.319,78.047H49.04c0,0-1.839,0.757-5.626,4.328c-3.786,3.569-6.124,7.141-6.124,7.141h22.029V78.047z"/>
<line display="none" fill="none" stroke="#000000" x1="0.5" y1="0.5" x2="0.5" y2="750.5"/>
<line display="none" fill="none" stroke="#000000" x1="150.577" y1="0.5" x2="150.577" y2="750.5"/>
<line display="none" fill="none" stroke="#000000" x1="0.5" y1="0.5" x2="750.5" y2="0.5"/>
<line display="none" fill="none" stroke="#000000" x1="0.5" y1="150.5" x2="750.5" y2="150.5"/>
<path d="M32.327,21.658l1.875,0.574c-0.414,1.93-1.139,3.369-2.174,4.318s-2.295,1.424-3.779,1.424c-1.305,0-2.42-0.318-3.346-0.956
	s-1.684-1.659-2.273-3.066s-0.885-3.069-0.885-4.984c0-1.892,0.295-3.493,0.886-4.802c0.59-1.309,1.39-2.298,2.398-2.966
	c1.009-0.668,2.135-1.003,3.378-1.003c1.361,0,2.53,0.423,3.507,1.269s1.662,2.087,2.053,3.724l-1.828,0.527
	c-0.626-2.383-1.882-3.574-3.767-3.574c-0.939,0-1.753,0.241-2.441,0.722c-0.688,0.48-1.238,1.229-1.648,2.246
	c-0.411,1.017-0.616,2.303-0.616,3.859c0,2.354,0.414,4.119,1.242,5.295s1.93,1.765,3.305,1.765c1.016,0,1.893-0.361,2.631-1.084
	S32.077,23.127,32.327,21.658z"/>
<path d="M42.932,26.146c-0.578,0.602-1.18,1.055-1.805,1.359s-1.273,0.457-1.945,0.457c-1.063,0-1.91-0.32-2.543-0.961
	s-0.949-1.504-0.949-2.59c0-0.719,0.148-1.355,0.445-1.91s0.703-0.988,1.219-1.301s1.297-0.543,2.344-0.691
	c1.406-0.207,2.438-0.453,3.094-0.738l0.012-0.539c0-0.852-0.152-1.449-0.457-1.793c-0.43-0.5-1.09-0.75-1.98-0.75
	c-0.805,0-1.406,0.167-1.805,0.5s-0.691,0.96-0.879,1.878l-1.699-0.281c0.242-1.336,0.732-2.309,1.471-2.918s1.795-0.914,3.17-0.914
	c1.07,0,1.91,0.201,2.52,0.604s0.994,0.9,1.154,1.494s0.24,1.461,0.24,2.602v2.813c0,1.969,0.037,3.209,0.111,3.721
	s0.221,1.01,0.439,1.494h-1.805C43.104,27.252,42.987,26.74,42.932,26.146z M42.792,21.436c-0.633,0.313-1.574,0.578-2.824,0.797
	c-0.727,0.125-1.234,0.268-1.523,0.428s-0.514,0.387-0.674,0.68s-0.24,0.631-0.24,1.014c0,0.594,0.184,1.068,0.551,1.424
	s0.875,0.533,1.523,0.533c0.617,0,1.178-0.16,1.682-0.48s0.881-0.748,1.131-1.283s0.375-1.314,0.375-2.338V21.436z"/>
<path d="M47.233,27.682V15.236h1.559v1.887c0.398-0.875,0.764-1.455,1.096-1.74s0.705-0.428,1.119-0.428
	c0.578,0,1.168,0.227,1.77,0.68l-0.586,1.957c-0.43-0.305-0.848-0.457-1.254-0.457c-0.367,0-0.703,0.129-1.008,0.387
	s-0.52,0.617-0.645,1.078c-0.219,0.805-0.328,1.66-0.328,2.566v6.516H47.233z"/>
<path d="M60.838,27.682h-1.605v-17.18h1.734v6.129c0.367-0.563,0.783-0.982,1.248-1.26s0.982-0.416,1.553-0.416
	c0.797,0,1.521,0.238,2.174,0.715s1.174,1.199,1.564,2.168s0.586,2.145,0.586,3.527c0,2.109-0.442,3.736-1.326,4.881
	c-0.884,1.145-1.917,1.717-3.099,1.717c-0.595,0-1.128-0.154-1.602-0.463s-0.882-0.768-1.227-1.377V27.682z M60.813,21.365
	c0,1.289,0.118,2.254,0.353,2.895s0.568,1.129,0.999,1.465s0.909,0.504,1.434,0.504c0.712,0,1.345-0.4,1.897-1.201
	c0.552-0.801,0.828-1.998,0.828-3.592c0-1.633-0.267-2.832-0.799-3.598c-0.533-0.766-1.187-1.148-1.962-1.148
	c-0.712,0-1.349,0.4-1.909,1.201S60.813,19.85,60.813,21.365z"/>
<path d="M70.143,27.682v-17.18h1.723v17.18H70.143z"/>
<path d="M73.917,21.459c0-2.148,0.451-3.77,1.354-4.863s2.045-1.641,3.428-1.641c1.359,0,2.496,0.547,3.41,1.641
	s1.371,2.672,1.371,4.734c0,2.234-0.449,3.898-1.348,4.992s-2.043,1.641-3.434,1.641c-1.367,0-2.506-0.549-3.416-1.646
	S73.917,23.6,73.917,21.459z M75.686,21.453c0,1.611,0.293,2.81,0.879,3.596s1.313,1.179,2.18,1.179c0.813,0,1.51-0.397,2.092-1.191
	s0.873-1.989,0.873-3.584c0-1.604-0.293-2.798-0.879-3.584s-1.313-1.179-2.18-1.179c-0.82,0-1.52,0.395-2.098,1.185
	S75.686,19.857,75.686,21.453z"/>
<path d="M92.198,23.123l1.699,0.27c-0.195,1.484-0.686,2.617-1.471,3.398s-1.729,1.172-2.83,1.172c-1.336,0-2.436-0.549-3.299-1.646
	s-1.295-2.721-1.295-4.869c0-2.164,0.436-3.787,1.307-4.869s1.99-1.623,3.357-1.623c1.055,0,1.943,0.328,2.666,0.984
	s1.186,1.641,1.389,2.953l-1.676,0.305c-0.164-0.84-0.449-1.468-0.855-1.884s-0.895-0.624-1.465-0.624
	c-0.852,0-1.557,0.377-2.115,1.131s-0.838,1.951-0.838,3.592c0,1.695,0.268,2.922,0.803,3.68s1.221,1.137,2.057,1.137
	c0.656,0,1.217-0.252,1.682-0.756S92.073,24.186,92.198,23.123z"/>
<path d="M95.397,27.682v-17.18h1.723v9.813l4.106-5.079h2.239l-3.903,4.621l4.291,7.824h-2.122l-3.391-6.378l-1.22,1.445v4.934
	H95.397z"/>
<path d="M105.206,12.928v-2.426h1.723v2.426H105.206z M105.206,27.682V15.236h1.723v12.445H105.206z"/>
<path d="M109.577,27.682V15.236h1.559v1.758c0.374-0.684,0.833-1.194,1.375-1.532c0.542-0.338,1.164-0.507,1.866-0.507
	c0.546,0,1.051,0.107,1.515,0.322c0.464,0.215,0.838,0.496,1.123,0.844s0.497,0.799,0.638,1.354c0.14,0.555,0.21,1.406,0.21,2.555
	v7.652h-1.723v-7.578c0-0.916-0.078-1.584-0.234-2.006s-0.4-0.749-0.732-0.979c-0.332-0.231-0.717-0.346-1.154-0.346
	c-0.828,0-1.488,0.309-1.98,0.927c-0.492,0.618-0.738,1.678-0.738,3.179v6.804H109.577z"/>
<path d="M120.182,28.713l1.688,0.305c0.078,0.668,0.313,1.165,0.703,1.491s0.934,0.489,1.629,0.489c0.758,0,1.361-0.182,1.811-0.545
	s0.756-0.904,0.92-1.624c0.102-0.438,0.152-1.359,0.152-2.766c-0.375,0.536-0.797,0.939-1.266,1.211s-0.988,0.407-1.559,0.407
	c-1.219,0-2.23-0.516-3.035-1.547c-0.922-1.188-1.383-2.777-1.383-4.77c0-1.336,0.203-2.504,0.609-3.504s0.939-1.734,1.6-2.203
	s1.4-0.703,2.221-0.703c0.602,0,1.15,0.147,1.646,0.442s0.936,0.737,1.318,1.327v-1.488h1.594v10.758
	c0,1.914-0.156,3.279-0.469,4.096s-0.824,1.461-1.535,1.934s-1.566,0.709-2.566,0.709c-1.32,0-2.336-0.355-3.047-1.066
	S120.159,29.971,120.182,28.713z M121.612,21.236c0,1.637,0.27,2.832,0.81,3.583c0.541,0.752,1.202,1.128,1.985,1.128
	c0.783,0,1.448-0.368,1.996-1.104c0.548-0.736,0.822-1.907,0.822-3.513c0-1.566-0.282-2.731-0.846-3.495s-1.249-1.146-2.055-1.146
	c-0.721,0-1.353,0.382-1.897,1.146C121.884,18.599,121.612,19.732,121.612,21.236z"/>
<path d="M38.374,47.563l1.723-0.328c0.101,0.879,0.378,1.532,0.83,1.96s1.052,0.642,1.8,0.642c0.749,0,1.327-0.186,1.736-0.557
	s0.614-0.842,0.614-1.412c0-0.492-0.176-0.875-0.527-1.148c-0.242-0.188-0.828-0.422-1.758-0.703
	c-1.344-0.414-2.242-0.766-2.695-1.055s-0.805-0.676-1.055-1.16s-0.375-1.035-0.375-1.652c0-1.063,0.34-1.926,1.02-2.59
	s1.621-0.996,2.824-0.996c0.758,0,1.424,0.137,1.998,0.41s1.014,0.641,1.318,1.102s0.516,1.121,0.633,1.98l-1.688,0.281
	c-0.156-1.359-0.895-2.039-2.215-2.039c-0.75,0-1.309,0.15-1.676,0.449c-0.367,0.3-0.551,0.683-0.551,1.149
	c0,0.459,0.176,0.821,0.528,1.086c0.211,0.155,0.837,0.404,1.878,0.747c1.432,0.455,2.357,0.816,2.778,1.086
	s0.747,0.638,0.981,1.104c0.233,0.466,0.35,1.02,0.35,1.661c0,1.189-0.377,2.152-1.131,2.888c-0.754,0.736-1.783,1.104-3.088,1.104
	C40.182,51.571,38.764,50.235,38.374,47.563z"/>
<path d="M48.885,36.536V34.11h1.723v2.426H48.885z M48.885,51.29V38.845h1.723V51.29H48.885z"/>
<path d="M59.866,51.29v-1.57c-0.313,0.602-0.715,1.061-1.207,1.377s-1.023,0.475-1.594,0.475c-1.203,0-2.244-0.568-3.123-1.705
	s-1.318-2.736-1.318-4.799c0-1.414,0.195-2.613,0.585-3.598c0.39-0.984,0.911-1.715,1.562-2.191c0.651-0.477,1.375-0.715,2.17-0.715
	c0.569,0,1.098,0.15,1.585,0.451s0.891,0.721,1.211,1.26V34.11h1.746v17.18H59.866z M54.393,45.079c0,1.609,0.279,2.805,0.838,3.586
	s1.21,1.172,1.953,1.172c0.734,0,1.372-0.375,1.911-1.125s0.809-1.883,0.809-3.398c0-1.742-0.27-3.014-0.809-3.814
	s-1.22-1.201-2.041-1.201c-0.727,0-1.353,0.385-1.876,1.154C54.655,42.222,54.393,43.431,54.393,45.079z"/>
<path d="M71.174,47.282l1.781,0.27c-0.297,1.328-0.834,2.33-1.611,3.006s-1.74,1.014-2.889,1.014c-1.445,0-2.615-0.549-3.51-1.646
	s-1.342-2.682-1.342-4.752c0-2.148,0.451-3.787,1.354-4.916s2.045-1.693,3.428-1.693c1.32,0,2.422,0.555,3.305,1.664
	s1.324,2.715,1.324,4.816l-0.012,0.563h-7.617c0.07,1.398,0.395,2.453,0.973,3.164s1.281,1.066,2.109,1.066
	C69.764,49.837,70.667,48.985,71.174,47.282z M65.491,43.872h5.695c-0.078-1.078-0.309-1.883-0.691-2.414
	c-0.555-0.773-1.262-1.16-2.121-1.16c-0.773,0-1.434,0.322-1.98,0.967S65.545,42.778,65.491,43.872z"/>
<path d="M77.028,51.29l-3.135-12.445h1.788l1.625,7.184l0.601,2.672l0.54-2.566l1.619-7.289h1.786l1.518,7.219l0.514,2.379
	l0.584-2.402l1.742-7.195h1.688L84.711,51.29h-1.8l-1.629-7.453l-0.387-2.121l-2.063,9.574H77.028z"/>
<path d="M95.995,49.755c-0.578,0.602-1.18,1.055-1.805,1.359s-1.273,0.457-1.945,0.457c-1.063,0-1.91-0.32-2.543-0.961
	s-0.949-1.504-0.949-2.59c0-0.719,0.148-1.355,0.445-1.91s0.703-0.988,1.219-1.301s1.297-0.543,2.344-0.691
	c1.406-0.207,2.438-0.453,3.094-0.738l0.012-0.539c0-0.852-0.152-1.449-0.457-1.793c-0.43-0.5-1.09-0.75-1.98-0.75
	c-0.805,0-1.406,0.167-1.805,0.5s-0.691,0.96-0.879,1.878l-1.699-0.281c0.242-1.336,0.732-2.309,1.471-2.918s1.795-0.914,3.17-0.914
	c1.07,0,1.91,0.201,2.52,0.604s0.994,0.9,1.154,1.494s0.24,1.461,0.24,2.602v2.813c0,1.969,0.037,3.209,0.111,3.721
	s0.221,1.01,0.439,1.494h-1.805C96.167,50.86,96.049,50.349,95.995,49.755z M95.854,45.044c-0.633,0.313-1.574,0.578-2.824,0.797
	c-0.727,0.125-1.234,0.268-1.523,0.428s-0.514,0.387-0.674,0.68s-0.24,0.631-0.24,1.014c0,0.594,0.184,1.068,0.551,1.424
	s0.875,0.533,1.523,0.533c0.617,0,1.178-0.16,1.682-0.48s0.881-0.748,1.131-1.283s0.375-1.314,0.375-2.338V45.044z"/>
<path d="M100.237,51.29V34.11h1.723v17.18H100.237z"/>
<path d="M104.702,51.29V34.11h1.723v9.813l4.106-5.079h2.239l-3.903,4.621l4.291,7.824h-2.122l-3.391-6.378l-1.22,1.445v4.934
	H104.702z"/>
</svg>
