<?xml version="1.0" encoding="utf-8"?>
<!-- Generator: Adobe Illustrator 14.0.0, SVG Export Plug-In  -->
<!DOCTYPE svg PUBLIC "-//W3C//DTD SVG 1.1//EN" "http://www.w3.org/Graphics/SVG/1.1/DTD/svg11.dtd" [
	<!ENTITY ns_flows "http://ns.adobe.com/Flows/1.0/">
]>
<svg version="1.1"
	 xmlns="http://www.w3.org/2000/svg" xmlns:xlink="http://www.w3.org/1999/xlink" xmlns:a="http://ns.adobe.com/AdobeSVGViewerExtensions/3.0/"
	 x="0px" y="0px" width="150px" height="150px" viewBox="0.5 450 150 150" enable-background="new 0.5 450 150 150"
	 xml:space="preserve">
<defs>
</defs>
<rect x="71.708" y="576.616" fill="none" stroke="#000000" width="37.601" height="5.666"/>
<path fill="#636466" d="M68.807,527.555l9.015,27.299c0,0,0.808,1.815-0.772,2.703c-2.159,1.216-3.51-1.415-3.51-1.415
	l-10.784-22.021L68.807,527.555z"/>
<path fill="#636466" d="M70.543,554.338c0,0,1.794,7,6.69,5.861c4.347-1.012,3.047-5.861,3.047-5.861c-0.001,0,5.009,0,5.009,0
	l10.817-15.452h18.927v26.527h-10.042v2.962H78.723v-2.962h-9.916v-11.075H70.543z"/>
<path fill="#636466" d="M66.625,514.655v10.091l-20.061,27.552c0,0-1.768,3.016-3.248,2.09c-1.57-0.982-0.765-3.338-0.765-3.338
	l12.767-33.112l8.389-4.831L66.625,514.655z"/>
<path fill="#636466" d="M47.979,570.094l3.614,5.987l-1.402,2.535l-9.872-5.934c0,0-4.7-3.451-4.7-9.764
	c0-6.311,4.877-11.258,4.877-11.258s-0.654,4.079,2.251,5.325c2.644,1.133,4.854-1.834,4.854-1.834L47.979,570.094z"/>
<circle fill="#FFFFFF" cx="61.194" cy="520.402" r="2.275"/>
<polygon fill="#FFFFFF" points="107.95,545.928 107.95,554.564 94.934,554.564 100.494,545.928 "/>
<path fill="#636466" d="M115.381,581.435c0,3.685-2.986,6.672-6.67,6.672H72.306c-3.685,0-6.671-2.987-6.671-6.672v-3.722
	c0-3.685,2.986-6.672,6.671-6.672h36.405c3.684,0,6.67,2.987,6.67,6.672V581.435z"/>
<line display="none" fill="none" stroke="#000000" x1="0.5" y1="0" x2="0.5" y2="750"/>
<line display="none" fill="none" stroke="#000000" x1="150.577" y1="0" x2="150.577" y2="750"/>
<line display="none" fill="none" stroke="#000000" x1="0.5" y1="450" x2="750.5" y2="450"/>
<line display="none" fill="none" stroke="#000000" x1="0.5" y1="600" x2="750.5" y2="600"/>
<path d="M31.778,471.163l1.875,0.574c-0.414,1.93-1.139,3.369-2.174,4.318s-2.295,1.424-3.779,1.424
	c-1.305,0-2.42-0.318-3.346-0.955c-0.926-0.638-1.684-1.66-2.273-3.066c-0.59-1.408-0.885-3.069-0.885-4.984
	c0-1.892,0.295-3.492,0.886-4.803c0.59-1.309,1.39-2.298,2.398-2.966c1.009-0.669,2.135-1.003,3.378-1.003
	c1.361,0,2.53,0.423,3.507,1.269s1.662,2.087,2.053,3.724l-1.828,0.527c-0.626-2.383-1.882-3.574-3.767-3.574
	c-0.939,0-1.753,0.24-2.441,0.722c-0.688,0.48-1.238,1.229-1.648,2.245c-0.411,1.018-0.616,2.303-0.616,3.859
	c0,2.354,0.414,4.119,1.242,5.295c0.828,1.178,1.93,1.766,3.305,1.766c1.016,0,1.893-0.361,2.631-1.084
	S31.528,472.632,31.778,471.163z"/>
<path d="M35.083,470.964c0-2.148,0.451-3.77,1.354-4.863s2.045-1.641,3.428-1.641c1.359,0,2.496,0.547,3.41,1.641
	s1.371,2.672,1.371,4.734c0,2.234-0.449,3.898-1.348,4.992s-2.043,1.641-3.434,1.641c-1.367,0-2.506-0.549-3.416-1.646
	S35.083,473.104,35.083,470.964z M36.852,470.958c0,1.611,0.293,2.811,0.879,3.596c0.586,0.787,1.313,1.18,2.18,1.18
	c0.813,0,1.51-0.396,2.092-1.191c0.582-0.793,0.873-1.988,0.873-3.584c0-1.604-0.293-2.799-0.879-3.584
	c-0.586-0.787-1.313-1.18-2.18-1.18c-0.82,0-1.52,0.395-2.098,1.186C37.141,468.169,36.852,469.362,36.852,470.958z"/>
<path d="M46.684,477.187v-12.445h1.559v1.758c0.374-0.684,0.833-1.193,1.375-1.532c0.542-0.338,1.164-0.507,1.866-0.507
	c0.546,0,1.051,0.107,1.515,0.322c0.464,0.215,0.838,0.496,1.123,0.844s0.497,0.799,0.638,1.354c0.14,0.555,0.21,1.406,0.21,2.555
	v7.652h-1.723v-7.578c0-0.916-0.078-1.584-0.234-2.006c-0.156-0.423-0.4-0.75-0.732-0.98s-0.717-0.346-1.154-0.346
	c-0.828,0-1.488,0.309-1.98,0.927s-0.738,1.678-0.738,3.179v6.805H46.684z"/>
<path d="M56.961,473.46l1.723-0.328c0.101,0.879,0.378,1.532,0.83,1.96s1.052,0.642,1.8,0.642c0.749,0,1.327-0.186,1.736-0.557
	s0.614-0.842,0.614-1.412c0-0.492-0.176-0.875-0.527-1.148c-0.242-0.188-0.828-0.422-1.758-0.703
	c-1.344-0.414-2.242-0.766-2.695-1.055s-0.805-0.676-1.055-1.16s-0.375-1.035-0.375-1.652c0-1.063,0.34-1.926,1.02-2.59
	s1.621-0.996,2.824-0.996c0.758,0,1.424,0.137,1.998,0.41s1.014,0.641,1.318,1.102s0.516,1.121,0.633,1.98l-1.688,0.281
	c-0.156-1.359-0.895-2.039-2.215-2.039c-0.75,0-1.309,0.15-1.676,0.449c-0.367,0.3-0.551,0.684-0.551,1.149
	c0,0.46,0.176,0.821,0.528,1.086c0.211,0.155,0.837,0.404,1.878,0.747c1.432,0.454,2.357,0.816,2.778,1.086s0.747,0.638,0.981,1.104
	c0.233,0.466,0.35,1.02,0.35,1.661c0,1.189-0.377,2.152-1.131,2.888c-0.754,0.736-1.783,1.104-3.088,1.104
	C58.77,477.468,57.352,476.132,56.961,473.46z"/>
<path d="M71.317,475.3l0.234,1.863c-0.477,0.125-0.906,0.188-1.289,0.188c-0.602,0-1.086-0.119-1.453-0.357
	s-0.619-0.564-0.756-0.979s-0.205-1.238-0.205-2.473v-7.16h-1.266v-1.641h1.266v-3.082l1.723-1.266v4.348h1.746v1.641h-1.746v7.277
	c0,0.672,0.051,1.105,0.152,1.301c0.148,0.281,0.426,0.422,0.832,0.422C70.75,475.382,71.004,475.354,71.317,475.3z"/>
<path d="M72.946,477.187v-12.445h1.559v1.887c0.398-0.875,0.764-1.455,1.096-1.74s0.705-0.428,1.119-0.428
	c0.578,0,1.168,0.227,1.77,0.68l-0.586,1.957c-0.43-0.305-0.848-0.457-1.254-0.457c-0.367,0-0.703,0.129-1.008,0.387
	s-0.52,0.617-0.645,1.078c-0.219,0.805-0.328,1.66-0.328,2.566v6.516H72.946z"/>
<path d="M86.176,477.187v-1.828c-0.398,0.703-0.867,1.23-1.406,1.582s-1.148,0.527-1.828,0.527c-0.805,0-1.492-0.217-2.063-0.65
	s-0.951-0.982-1.143-1.646s-0.287-1.57-0.287-2.719v-7.711h1.723v6.902c0,1.281,0.064,2.139,0.193,2.572s0.367,0.781,0.715,1.043
	s0.744,0.393,1.189,0.393c0.828,0,1.508-0.34,2.039-1.02c0.453-0.586,0.68-1.66,0.68-3.223v-6.668h1.734v12.445H86.176z"/>
<path d="M97.122,472.628l1.699,0.27c-0.195,1.484-0.686,2.617-1.471,3.398s-1.729,1.172-2.83,1.172
	c-1.336,0-2.436-0.549-3.299-1.646s-1.295-2.721-1.295-4.869c0-2.164,0.436-3.787,1.307-4.869s1.99-1.623,3.357-1.623
	c1.055,0,1.943,0.328,2.666,0.984s1.186,1.641,1.389,2.953l-1.676,0.305c-0.164-0.84-0.449-1.468-0.855-1.884
	s-0.895-0.624-1.465-0.624c-0.852,0-1.557,0.377-2.115,1.131s-0.838,1.951-0.838,3.592c0,1.695,0.268,2.922,0.803,3.68
	s1.221,1.137,2.057,1.137c0.656,0,1.217-0.252,1.682-0.756S96.997,473.69,97.122,472.628z"/>
<path d="M104.129,475.3l0.234,1.863c-0.477,0.125-0.906,0.188-1.289,0.188c-0.602,0-1.086-0.119-1.453-0.357
	s-0.619-0.564-0.756-0.979s-0.205-1.238-0.205-2.473v-7.16h-1.266v-1.641h1.266v-3.082l1.723-1.266v4.348h1.746v1.641h-1.746v7.277
	c0,0.672,0.051,1.105,0.152,1.301c0.148,0.281,0.426,0.422,0.832,0.422C103.563,475.382,103.817,475.354,104.129,475.3z"/>
<path d="M105.758,462.433v-2.426h1.723v2.426H105.758z M105.758,477.187v-12.445h1.723v12.445H105.758z"/>
<path d="M109.473,470.964c0-2.148,0.451-3.77,1.354-4.863s2.045-1.641,3.428-1.641c1.359,0,2.496,0.547,3.41,1.641
	s1.371,2.672,1.371,4.734c0,2.234-0.449,3.898-1.348,4.992s-2.043,1.641-3.434,1.641c-1.367,0-2.506-0.549-3.416-1.646
	S109.473,473.104,109.473,470.964z M111.243,470.958c0,1.611,0.293,2.811,0.879,3.596c0.586,0.787,1.313,1.18,2.18,1.18
	c0.813,0,1.51-0.396,2.092-1.191c0.582-0.793,0.873-1.988,0.873-3.584c0-1.604-0.293-2.799-0.879-3.584
	c-0.586-0.787-1.313-1.18-2.18-1.18c-0.82,0-1.52,0.395-2.098,1.186C111.532,468.169,111.243,469.362,111.243,470.958z"/>
<path d="M121.075,477.187v-12.445h1.559v1.758c0.374-0.684,0.833-1.193,1.375-1.532c0.542-0.338,1.164-0.507,1.866-0.507
	c0.546,0,1.051,0.107,1.515,0.322c0.464,0.215,0.838,0.496,1.123,0.844s0.497,0.799,0.638,1.354c0.14,0.555,0.21,1.406,0.21,2.555
	v7.652h-1.723v-7.578c0-0.916-0.078-1.584-0.234-2.006c-0.156-0.423-0.4-0.75-0.732-0.98s-0.717-0.346-1.154-0.346
	c-0.828,0-1.488,0.309-1.98,0.927s-0.738,1.678-0.738,3.179v6.805H121.075z"/>
<path d="M60.793,497.068l1.723-0.328c0.101,0.879,0.378,1.532,0.83,1.96s1.052,0.642,1.8,0.642c0.749,0,1.327-0.186,1.736-0.557
	s0.614-0.842,0.614-1.412c0-0.492-0.176-0.875-0.527-1.148c-0.242-0.188-0.828-0.422-1.758-0.703
	c-1.344-0.414-2.242-0.766-2.695-1.055s-0.805-0.676-1.055-1.16s-0.375-1.035-0.375-1.652c0-1.063,0.34-1.926,1.02-2.59
	s1.621-0.996,2.824-0.996c0.758,0,1.424,0.137,1.998,0.41s1.014,0.641,1.318,1.102s0.516,1.121,0.633,1.98l-1.688,0.281
	c-0.156-1.359-0.895-2.039-2.215-2.039c-0.75,0-1.309,0.149-1.676,0.449s-0.551,0.683-0.551,1.149c0,0.459,0.176,0.821,0.528,1.086
	c0.211,0.155,0.837,0.404,1.878,0.746c1.432,0.455,2.357,0.816,2.778,1.087s0.747,0.638,0.981,1.104
	c0.233,0.466,0.35,1.02,0.35,1.661c0,1.189-0.377,2.152-1.131,2.888s-1.783,1.104-3.088,1.104
	C62.602,501.076,61.184,499.74,60.793,497.068z"/>
<path d="M71.305,486.041v-2.426h1.723v2.426H71.305z M71.305,500.795V488.35h1.723v12.445H71.305z"/>
<path d="M79.52,498.908l0.234,1.863c-0.477,0.125-0.906,0.188-1.289,0.188c-0.602,0-1.086-0.119-1.453-0.357
	s-0.619-0.564-0.756-0.979s-0.205-1.238-0.205-2.473v-7.16h-1.266v-1.641h1.266v-3.082l1.723-1.266v4.348h1.746v1.641h-1.746v7.277
	c0,0.672,0.051,1.105,0.152,1.301c0.148,0.281,0.426,0.422,0.832,0.422C78.954,498.99,79.208,498.963,79.52,498.908z"/>
<path d="M88.122,496.787l1.781,0.27c-0.297,1.328-0.834,2.33-1.611,3.006s-1.74,1.014-2.889,1.014c-1.445,0-2.615-0.549-3.51-1.646
	s-1.342-2.682-1.342-4.752c0-2.148,0.451-3.787,1.354-4.916s2.045-1.693,3.428-1.693c1.32,0,2.422,0.555,3.305,1.664
	s1.324,2.715,1.324,4.816l-0.012,0.563h-7.617c0.07,1.398,0.395,2.453,0.973,3.164s1.281,1.066,2.109,1.066
	C86.711,499.342,87.614,498.49,88.122,496.787z M82.438,493.377h5.695c-0.078-1.078-0.309-1.883-0.691-2.414
	c-0.555-0.773-1.262-1.16-2.121-1.16c-0.773,0-1.434,0.322-1.98,0.967S82.493,492.283,82.438,493.377z"/>
</svg>
