<?xml version="1.0" encoding="utf-8"?>
<!-- Generator: Adobe Illustrator 14.0.0, SVG Export Plug-In  -->
<!DOCTYPE svg PUBLIC "-//W3C//DTD SVG 1.1//EN" "http://www.w3.org/Graphics/SVG/1.1/DTD/svg11.dtd" [
	<!ENTITY ns_flows "http://ns.adobe.com/Flows/1.0/">
]>
<svg version="1.1"
	 xmlns="http://www.w3.org/2000/svg" xmlns:xlink="http://www.w3.org/1999/xlink" xmlns:a="http://ns.adobe.com/AdobeSVGViewerExtensions/3.0/"
	 x="0px" y="0px" width="150px" height="150px" viewBox="300 150 150 150" enable-background="new 300 150 150 150"
	 xml:space="preserve">
<defs>
</defs>
<polyline fill="#FFFFFF" stroke="#000000" points="414.413,267.21 389.686,226.513 360.314,226.513 335.587,267.21 "/>
<line fill="#FFFFFF" stroke="#000000" x1="389.686" y1="226.513" x2="389.686" y2="267.21"/>
<line fill="#FFFFFF" stroke="#000000" x1="360.314" y1="226.513" x2="360.314" y2="267.21"/>
<line display="none" fill="none" stroke="#000000" x1="300.058" y1="0" x2="300.058" y2="750"/>
<line display="none" fill="none" stroke="#000000" x1="450.097" y1="0" x2="450.097" y2="750"/>
<line display="none" fill="none" stroke="#000000" x1="0" y1="150" x2="750" y2="150"/>
<line display="none" fill="none" stroke="#000000" x1="0" y1="300" x2="750" y2="300"/>
<path d="M343.106,177.253v-17.18h2.802l3.344,12.164l0.669,2.543c0.164-0.633,0.415-1.551,0.751-2.754l3.379-11.953h2.509v17.18
	h-1.793v-14.368l-4.108,14.368h-1.674l-4.084-14.615v14.615H343.106z"/>
<path d="M359.313,162.499v-2.426h1.723v2.426H359.313z M359.313,177.253v-12.445h1.723v12.445H359.313z"/>
<path d="M363.017,173.526l1.723-0.328c0.102,0.879,0.378,1.532,0.83,1.96s1.052,0.642,1.801,0.642c0.748,0,1.326-0.186,1.735-0.557
	s0.614-0.842,0.614-1.412c0-0.492-0.176-0.875-0.527-1.148c-0.242-0.188-0.828-0.422-1.758-0.703
	c-1.344-0.414-2.242-0.766-2.695-1.055s-0.805-0.676-1.055-1.16s-0.375-1.035-0.375-1.652c0-1.063,0.34-1.926,1.02-2.59
	s1.621-0.996,2.824-0.996c0.758,0,1.424,0.137,1.998,0.41s1.014,0.641,1.318,1.102s0.516,1.121,0.633,1.98l-1.688,0.281
	c-0.156-1.359-0.895-2.039-2.215-2.039c-0.75,0-1.309,0.15-1.676,0.449c-0.367,0.3-0.551,0.683-0.551,1.149
	c0,0.459,0.176,0.821,0.528,1.086c0.211,0.155,0.837,0.404,1.879,0.747c1.431,0.455,2.357,0.816,2.777,1.086s0.747,0.638,0.98,1.104
	s0.351,1.02,0.351,1.661c0,1.189-0.377,2.152-1.131,2.888c-0.754,0.736-1.783,1.104-3.088,1.104
	C364.825,177.534,363.407,176.198,363.017,173.526z"/>
<path d="M372.86,173.526l1.723-0.328c0.102,0.879,0.378,1.532,0.83,1.96s1.052,0.642,1.801,0.642c0.748,0,1.326-0.186,1.735-0.557
	s0.614-0.842,0.614-1.412c0-0.492-0.176-0.875-0.527-1.148c-0.242-0.188-0.828-0.422-1.758-0.703
	c-1.344-0.414-2.242-0.766-2.695-1.055s-0.805-0.676-1.055-1.16s-0.375-1.035-0.375-1.652c0-1.063,0.34-1.926,1.02-2.59
	s1.621-0.996,2.824-0.996c0.758,0,1.424,0.137,1.998,0.41s1.014,0.641,1.318,1.102s0.516,1.121,0.633,1.98l-1.688,0.281
	c-0.156-1.359-0.895-2.039-2.215-2.039c-0.75,0-1.309,0.15-1.676,0.449c-0.367,0.3-0.551,0.683-0.551,1.149
	c0,0.459,0.176,0.821,0.528,1.086c0.211,0.155,0.837,0.404,1.879,0.747c1.431,0.455,2.357,0.816,2.777,1.086s0.747,0.638,0.98,1.104
	s0.351,1.02,0.351,1.661c0,1.189-0.377,2.152-1.131,2.888c-0.754,0.736-1.783,1.104-3.088,1.104
	C374.669,177.534,373.251,176.198,372.86,173.526z"/>
<path d="M383.372,162.499v-2.426h1.723v2.426H383.372z M383.372,177.253v-12.445h1.723v12.445H383.372z"/>
<path d="M387.743,177.253v-12.445h1.559v1.758c0.374-0.684,0.833-1.194,1.375-1.532c0.542-0.338,1.163-0.507,1.865-0.507
	c0.546,0,1.051,0.107,1.515,0.322c0.465,0.215,0.839,0.496,1.123,0.844c0.285,0.348,0.498,0.799,0.638,1.354
	c0.141,0.555,0.211,1.406,0.211,2.555v7.652h-1.723v-7.578c0-0.916-0.078-1.584-0.234-2.006s-0.4-0.749-0.732-0.979
	c-0.332-0.231-0.717-0.346-1.154-0.346c-0.828,0-1.488,0.309-1.98,0.927c-0.492,0.618-0.738,1.678-0.738,3.179v6.804H387.743z"/>
<path d="M398.349,178.284l1.688,0.305c0.078,0.668,0.313,1.165,0.703,1.491s0.934,0.489,1.629,0.489
	c0.758,0,1.361-0.182,1.811-0.545s0.756-0.904,0.92-1.624c0.102-0.438,0.152-1.359,0.152-2.766
	c-0.375,0.536-0.797,0.939-1.266,1.211s-0.988,0.407-1.559,0.407c-1.219,0-2.23-0.516-3.035-1.547
	c-0.922-1.188-1.383-2.777-1.383-4.77c0-1.336,0.203-2.504,0.609-3.504s0.939-1.734,1.6-2.203s1.4-0.703,2.221-0.703
	c0.602,0,1.15,0.147,1.646,0.442s0.936,0.737,1.318,1.327v-1.488h1.594v10.758c0,1.914-0.156,3.279-0.469,4.096
	s-0.824,1.461-1.535,1.934s-1.566,0.709-2.566,0.709c-1.32,0-2.336-0.355-3.047-1.066S398.325,179.542,398.349,178.284z
	 M399.778,170.808c0,1.637,0.271,2.832,0.811,3.583c0.54,0.752,1.201,1.128,1.984,1.128s1.448-0.368,1.996-1.104
	s0.822-1.907,0.822-3.513c0-1.566-0.282-2.731-0.846-3.495s-1.248-1.146-2.055-1.146c-0.721,0-1.353,0.382-1.896,1.146
	C400.05,168.17,399.778,169.304,399.778,170.808z"/>
<path d="M338.659,196.303l1.699,0.27c-0.195,1.484-0.686,2.617-1.471,3.398s-1.729,1.172-2.83,1.172
	c-1.336,0-2.436-0.549-3.299-1.646s-1.295-2.721-1.295-4.869c0-2.164,0.436-3.787,1.307-4.869s1.99-1.623,3.357-1.623
	c1.055,0,1.943,0.328,2.666,0.984s1.186,1.641,1.389,2.953l-1.676,0.305c-0.164-0.84-0.449-1.468-0.855-1.884
	s-0.895-0.624-1.465-0.624c-0.852,0-1.557,0.377-2.115,1.131s-0.838,1.951-0.838,3.592c0,1.695,0.268,2.922,0.803,3.68
	s1.221,1.137,2.057,1.137c0.656,0,1.217-0.252,1.682-0.756S338.534,197.365,338.659,196.303z"/>
<path d="M348.503,200.861v-1.828c-0.398,0.703-0.867,1.23-1.406,1.582s-1.148,0.527-1.828,0.527c-0.805,0-1.492-0.217-2.063-0.65
	s-0.951-0.982-1.143-1.646s-0.287-1.57-0.287-2.719v-7.711h1.723v6.902c0,1.281,0.064,2.139,0.193,2.572s0.367,0.781,0.715,1.043
	s0.744,0.393,1.189,0.393c0.828,0,1.508-0.34,2.039-1.02c0.453-0.586,0.68-1.66,0.68-3.223v-6.668h1.734v12.445H348.503z"/>
<path d="M352.769,200.861v-12.445h1.559v1.887c0.398-0.875,0.764-1.455,1.096-1.74s0.705-0.428,1.119-0.428
	c0.578,0,1.168,0.227,1.77,0.68l-0.586,1.957c-0.43-0.305-0.848-0.457-1.254-0.457c-0.367,0-0.703,0.129-1.008,0.387
	s-0.52,0.617-0.645,1.078c-0.219,0.805-0.328,1.66-0.328,2.566v6.516H352.769z"/>
<path d="M360.901,200.861h-1.605v-17.18h1.734v6.129c0.367-0.563,0.783-0.982,1.248-1.26s0.982-0.416,1.553-0.416
	c0.797,0,1.521,0.238,2.174,0.715s1.174,1.199,1.564,2.168s0.586,2.145,0.586,3.527c0,2.109-0.442,3.736-1.326,4.881
	c-0.885,1.145-1.917,1.717-3.099,1.717c-0.595,0-1.129-0.154-1.603-0.463s-0.882-0.768-1.227-1.377V200.861z M360.876,194.545
	c0,1.289,0.117,2.254,0.353,2.895c0.234,0.641,0.567,1.129,0.998,1.465s0.908,0.504,1.434,0.504c0.713,0,1.345-0.4,1.897-1.201
	c0.552-0.801,0.828-1.998,0.828-3.592c0-1.633-0.267-2.832-0.799-3.598s-1.187-1.148-1.962-1.148c-0.713,0-1.35,0.4-1.909,1.201
	C361.155,191.871,360.876,193.029,360.876,194.545z"/>
<path d="M375.737,200.861v-12.445h1.559v1.887c0.398-0.875,0.764-1.455,1.096-1.74s0.705-0.428,1.119-0.428
	c0.578,0,1.168,0.227,1.77,0.68l-0.586,1.957c-0.43-0.305-0.848-0.457-1.254-0.457c-0.367,0-0.703,0.129-1.008,0.387
	s-0.52,0.617-0.645,1.078c-0.219,0.805-0.328,1.66-0.328,2.566v6.516H375.737z"/>
<path d="M388.933,199.326c-0.578,0.602-1.18,1.055-1.805,1.359s-1.273,0.457-1.945,0.457c-1.063,0-1.91-0.32-2.543-0.961
	s-0.949-1.504-0.949-2.59c0-0.719,0.148-1.355,0.445-1.91s0.703-0.988,1.219-1.301s1.297-0.543,2.344-0.691
	c1.406-0.207,2.438-0.453,3.094-0.738l0.012-0.539c0-0.852-0.152-1.449-0.457-1.793c-0.43-0.5-1.09-0.75-1.98-0.75
	c-0.805,0-1.406,0.167-1.805,0.5s-0.691,0.96-0.879,1.878l-1.699-0.281c0.242-1.336,0.732-2.309,1.471-2.918s1.795-0.914,3.17-0.914
	c1.07,0,1.91,0.201,2.52,0.604s0.994,0.9,1.154,1.494s0.24,1.461,0.24,2.602v2.813c0,1.969,0.037,3.209,0.111,3.721
	s0.221,1.01,0.439,1.494h-1.805C389.104,200.432,388.987,199.92,388.933,199.326z M388.792,194.615
	c-0.633,0.313-1.574,0.578-2.824,0.797c-0.727,0.125-1.234,0.268-1.523,0.428s-0.514,0.387-0.674,0.68s-0.24,0.631-0.24,1.014
	c0,0.594,0.184,1.068,0.551,1.424s0.875,0.533,1.523,0.533c0.617,0,1.178-0.16,1.682-0.48s0.881-0.748,1.131-1.283
	s0.375-1.314,0.375-2.338V194.615z"/>
<path d="M393.245,200.861v-12.445h1.547v1.734c0.343-0.645,0.784-1.142,1.322-1.491s1.127-0.524,1.767-0.524
	c0.717,0,1.323,0.185,1.819,0.554c0.495,0.369,0.848,0.907,1.059,1.615c0.407-0.723,0.876-1.265,1.405-1.626
	c0.529-0.361,1.115-0.542,1.758-0.542c0.979,0,1.752,0.332,2.316,0.996s0.847,1.727,0.847,3.188v8.543h-1.723v-7.848
	c0-0.892-0.064-1.523-0.194-1.895s-0.34-0.659-0.631-0.862c-0.29-0.204-0.616-0.305-0.978-0.305c-0.746,0-1.354,0.295-1.826,0.886
	s-0.707,1.519-0.707,2.786v7.238h-1.723v-8.095c0-1.032-0.158-1.76-0.475-2.182c-0.316-0.422-0.752-0.634-1.307-0.634
	c-0.789,0-1.412,0.319-1.869,0.956c-0.457,0.638-0.686,1.801-0.686,3.49v6.464H393.245z"/>
<path d="M409.628,205.631v-17.215h1.594v1.617c0.39-0.672,0.823-1.156,1.299-1.453s1.021-0.445,1.638-0.445
	c0.804,0,1.529,0.238,2.177,0.715c0.646,0.477,1.167,1.201,1.562,2.174c0.394,0.973,0.591,2.143,0.591,3.51
	c0,2.117-0.443,3.748-1.33,4.893s-1.928,1.717-3.123,1.717c-0.531,0-1.027-0.137-1.488-0.41s-0.859-0.66-1.195-1.16v6.059H409.628z
	 M411.2,194.709c0,1.609,0.269,2.795,0.807,3.557s1.188,1.143,1.952,1.143c0.732,0,1.375-0.395,1.929-1.184s0.83-2.008,0.83-3.656
	c0-1.625-0.269-2.828-0.807-3.609s-1.192-1.172-1.964-1.172c-0.693,0-1.325,0.42-1.894,1.26
	C411.484,191.887,411.2,193.107,411.2,194.709z"/>
</svg>
