<?xml version="1.0" encoding="utf-8"?>
<!-- Generator: Adobe Illustrator 14.0.0, SVG Export Plug-In  -->
<!DOCTYPE svg PUBLIC "-//W3C//DTD SVG 1.1//EN" "http://www.w3.org/Graphics/SVG/1.1/DTD/svg11.dtd" [
	<!ENTITY ns_flows "http://ns.adobe.com/Flows/1.0/">
]>
<svg version="1.1"
	 xmlns="http://www.w3.org/2000/svg" xmlns:xlink="http://www.w3.org/1999/xlink" xmlns:a="http://ns.adobe.com/AdobeSVGViewerExtensions/3.0/"
	 x="0px" y="0px" width="150px" height="150px" viewBox="150 450 150 150" enable-background="new 150 450 150 150"
	 xml:space="preserve">
<defs>
</defs>
<line fill="#FFFFFF" stroke="#000000" x1="188.239" y1="590.69" x2="210.731" y2="510.521"/>
<line fill="#FFFFFF" stroke="#000000" x1="261.761" y1="590.69" x2="239.269" y2="510.521"/>
<line fill="#FFFFFF" stroke="#000000" stroke-width="0.5" x1="190.91" y1="579.366" x2="259.091" y2="579.366"/>
<line fill="#FFFFFF" stroke="#000000" stroke-width="0.5" x1="201.192" y1="542.715" x2="248.809" y2="542.715"/>
<line fill="#FFFFFF" stroke="#000000" stroke-width="0.5" x1="208.772" y1="515.546" x2="241.228" y2="515.546"/>
<path fill="#636466" d="M218.664,552.688V541.9c4.04,0.041,7.05-0.294,9.029-1.003c1.979-0.709,3.492-1.798,4.538-3.268
	c1.045-1.469,1.568-3.115,1.568-4.938c0-1.661-0.462-3.297-1.386-4.908c-0.923-1.61-2.146-2.861-3.668-3.753
	c-1.522-0.892-3.146-1.337-4.872-1.337c-1.38,0-2.568,0.258-3.563,0.774c-0.995,0.517-1.928,1.394-2.801,2.629
	c-0.851,1.236-1.459,1.996-1.823,2.279c-0.709,0.547-1.418,0.82-2.127,0.82c-0.486,0-0.968-0.126-1.444-0.38
	c-0.476-0.253-0.805-0.541-0.987-0.865c-0.264-0.486-0.396-0.973-0.396-1.459c0-1.601,0.933-3.009,2.799-4.225
	c2.596-1.682,5.72-2.522,9.371-2.522c3.286,0,6.186,0.613,8.701,1.839c2.515,1.226,4.421,2.852,5.72,4.878
	c1.298,2.025,1.947,4.315,1.947,6.868c0,3.991-1.588,7.092-4.765,9.3s-7.403,3.322-12.68,3.343v6.716H218.664z M220.213,555.789
	c1.053,0,1.95,0.37,2.69,1.109c0.739,0.739,1.109,1.636,1.109,2.689s-0.375,1.95-1.125,2.689c-0.75,0.739-1.641,1.109-2.675,1.109
	c-1.054,0-1.955-0.37-2.705-1.109c-0.75-0.739-1.125-1.636-1.125-2.689s0.37-1.95,1.109-2.689
	C218.233,556.159,219.14,555.789,220.213,555.789z"/>
<line display="none" fill="none" stroke="#000000" x1="150.077" y1="0" x2="150.077" y2="750"/>
<line display="none" fill="none" stroke="#000000" x1="300.058" y1="0" x2="300.058" y2="750"/>
<line display="none" fill="none" stroke="#000000" x1="0" y1="450" x2="750" y2="450"/>
<line display="none" fill="none" stroke="#000000" x1="0" y1="600" x2="750" y2="600"/>
<path d="M193.107,477.187v-17.18h2.802l3.344,12.164l0.669,2.543c0.164-0.633,0.415-1.551,0.751-2.754l3.379-11.953h2.509v17.18
	h-1.793v-14.368l-4.108,14.368h-1.674l-4.084-14.615v14.615H193.107z"/>
<path d="M209.314,462.433v-2.426h1.723v2.426H209.314z M209.314,477.187v-12.445h1.723v12.445H209.314z"/>
<path d="M213.017,473.46l1.723-0.328c0.101,0.879,0.378,1.532,0.83,1.96s1.052,0.642,1.8,0.642c0.749,0,1.327-0.186,1.736-0.557
	s0.614-0.842,0.614-1.412c0-0.492-0.176-0.875-0.527-1.148c-0.242-0.188-0.828-0.422-1.758-0.703
	c-1.344-0.414-2.242-0.766-2.695-1.055s-0.805-0.676-1.055-1.16s-0.375-1.035-0.375-1.652c0-1.063,0.34-1.926,1.02-2.59
	s1.621-0.996,2.824-0.996c0.758,0,1.424,0.137,1.998,0.41s1.014,0.641,1.318,1.102s0.516,1.121,0.633,1.98l-1.688,0.281
	c-0.156-1.359-0.895-2.039-2.215-2.039c-0.75,0-1.309,0.15-1.676,0.449c-0.367,0.3-0.551,0.684-0.551,1.149
	c0,0.46,0.176,0.821,0.528,1.086c0.211,0.155,0.837,0.404,1.878,0.747c1.432,0.454,2.357,0.816,2.778,1.086s0.747,0.638,0.981,1.104
	c0.233,0.466,0.35,1.02,0.35,1.661c0,1.189-0.377,2.152-1.131,2.888c-0.754,0.736-1.783,1.104-3.088,1.104
	C214.826,477.468,213.408,476.132,213.017,473.46z"/>
<path d="M222.861,473.46l1.723-0.328c0.101,0.879,0.378,1.532,0.83,1.96s1.052,0.642,1.8,0.642c0.749,0,1.327-0.186,1.736-0.557
	s0.614-0.842,0.614-1.412c0-0.492-0.176-0.875-0.527-1.148c-0.242-0.188-0.828-0.422-1.758-0.703
	c-1.344-0.414-2.242-0.766-2.695-1.055s-0.805-0.676-1.055-1.16s-0.375-1.035-0.375-1.652c0-1.063,0.34-1.926,1.02-2.59
	s1.621-0.996,2.824-0.996c0.758,0,1.424,0.137,1.998,0.41s1.014,0.641,1.318,1.102s0.516,1.121,0.633,1.98l-1.688,0.281
	c-0.156-1.359-0.895-2.039-2.215-2.039c-0.75,0-1.309,0.15-1.676,0.449c-0.367,0.3-0.551,0.684-0.551,1.149
	c0,0.46,0.176,0.821,0.528,1.086c0.211,0.155,0.837,0.404,1.878,0.747c1.432,0.454,2.357,0.816,2.778,1.086s0.747,0.638,0.981,1.104
	c0.233,0.466,0.35,1.02,0.35,1.661c0,1.189-0.377,2.152-1.131,2.888c-0.754,0.736-1.783,1.104-3.088,1.104
	C224.669,477.468,223.251,476.132,222.861,473.46z"/>
<path d="M233.373,462.433v-2.426h1.723v2.426H233.373z M233.373,477.187v-12.445h1.723v12.445H233.373z"/>
<path d="M237.744,477.187v-12.445h1.559v1.758c0.374-0.684,0.833-1.193,1.375-1.532c0.542-0.338,1.164-0.507,1.866-0.507
	c0.546,0,1.051,0.107,1.515,0.322c0.464,0.215,0.838,0.496,1.123,0.844s0.497,0.799,0.638,1.354c0.14,0.555,0.21,1.406,0.21,2.555
	v7.652h-1.723v-7.578c0-0.916-0.078-1.584-0.234-2.006c-0.156-0.423-0.4-0.75-0.732-0.98s-0.717-0.346-1.154-0.346
	c-0.828,0-1.488,0.309-1.98,0.927s-0.738,1.678-0.738,3.179v6.805H237.744z"/>
<path d="M248.349,478.218l1.688,0.305c0.078,0.668,0.313,1.165,0.703,1.491s0.934,0.489,1.629,0.489
	c0.758,0,1.361-0.182,1.811-0.545s0.756-0.904,0.92-1.623c0.102-0.438,0.152-1.359,0.152-2.767
	c-0.375,0.536-0.797,0.939-1.266,1.211s-0.988,0.407-1.559,0.407c-1.219,0-2.23-0.516-3.035-1.547
	c-0.922-1.188-1.383-2.777-1.383-4.77c0-1.336,0.203-2.504,0.609-3.504s0.939-1.734,1.6-2.203s1.4-0.703,2.221-0.703
	c0.602,0,1.15,0.147,1.646,0.442s0.936,0.737,1.318,1.327v-1.488h1.594v10.758c0,1.914-0.156,3.279-0.469,4.096
	s-0.824,1.461-1.535,1.934s-1.566,0.709-2.566,0.709c-1.32,0-2.336-0.355-3.047-1.066S248.326,479.476,248.349,478.218z
	 M249.779,470.741c0,1.637,0.27,2.832,0.81,3.583c0.541,0.752,1.202,1.128,1.985,1.128c0.783,0,1.448-0.368,1.996-1.104
	c0.548-0.736,0.822-1.907,0.822-3.513c0-1.566-0.282-2.731-0.846-3.495s-1.249-1.146-2.055-1.146c-0.721,0-1.353,0.382-1.897,1.146
	C250.051,468.104,249.779,469.237,249.779,470.741z"/>
<path d="M187.875,497.068l1.723-0.328c0.101,0.879,0.378,1.532,0.83,1.96s1.052,0.642,1.8,0.642c0.749,0,1.327-0.186,1.736-0.557
	s0.614-0.842,0.614-1.412c0-0.492-0.176-0.875-0.527-1.148c-0.242-0.188-0.828-0.422-1.758-0.703
	c-1.344-0.414-2.242-0.766-2.695-1.055s-0.805-0.676-1.055-1.16s-0.375-1.035-0.375-1.652c0-1.063,0.34-1.926,1.02-2.59
	s1.621-0.996,2.824-0.996c0.758,0,1.424,0.137,1.998,0.41s1.014,0.641,1.318,1.102s0.516,1.121,0.633,1.98l-1.688,0.281
	c-0.156-1.359-0.895-2.039-2.215-2.039c-0.75,0-1.309,0.149-1.676,0.449s-0.551,0.683-0.551,1.149c0,0.459,0.176,0.821,0.528,1.086
	c0.211,0.155,0.837,0.404,1.878,0.746c1.432,0.455,2.357,0.816,2.778,1.087s0.747,0.638,0.981,1.104
	c0.233,0.466,0.35,1.02,0.35,1.661c0,1.189-0.377,2.152-1.131,2.888s-1.783,1.104-3.088,1.104
	C189.683,501.076,188.265,499.74,187.875,497.068z"/>
<path d="M198.386,486.041v-2.426h1.723v2.426H198.386z M198.386,500.795V488.35h1.723v12.445H198.386z"/>
<path d="M209.367,500.795v-1.57c-0.313,0.602-0.715,1.061-1.207,1.377s-1.023,0.475-1.594,0.475c-1.203,0-2.244-0.568-3.123-1.705
	s-1.318-2.736-1.318-4.799c0-1.414,0.195-2.613,0.585-3.598c0.39-0.984,0.911-1.715,1.562-2.191c0.651-0.477,1.375-0.715,2.17-0.715
	c0.569,0,1.098,0.15,1.585,0.451s0.891,0.721,1.211,1.26v-6.164h1.746v17.18H209.367z M203.894,494.584
	c0,1.609,0.279,2.805,0.838,3.586s1.21,1.172,1.953,1.172c0.734,0,1.372-0.375,1.911-1.125s0.809-1.883,0.809-3.398
	c0-1.742-0.27-3.014-0.809-3.814s-1.22-1.201-2.041-1.201c-0.727,0-1.353,0.385-1.876,1.154
	C204.156,491.727,203.894,492.936,203.894,494.584z"/>
<path d="M220.675,496.787l1.781,0.27c-0.297,1.328-0.834,2.33-1.611,3.006s-1.74,1.014-2.889,1.014c-1.445,0-2.615-0.549-3.51-1.646
	s-1.342-2.682-1.342-4.752c0-2.148,0.451-3.787,1.354-4.916s2.045-1.693,3.428-1.693c1.32,0,2.422,0.555,3.305,1.664
	s1.324,2.715,1.324,4.816l-0.012,0.563h-7.617c0.07,1.398,0.395,2.453,0.973,3.164s1.281,1.066,2.109,1.066
	C219.265,499.342,220.167,498.49,220.675,496.787z M214.992,493.377h5.695c-0.078-1.078-0.309-1.883-0.691-2.414
	c-0.555-0.773-1.262-1.16-2.121-1.16c-0.773,0-1.434,0.322-1.98,0.967S215.046,492.283,214.992,493.377z"/>
<path d="M226.529,500.795l-3.135-12.445h1.788l1.625,7.184l0.601,2.672l0.54-2.566l1.619-7.289h1.786l1.518,7.219l0.514,2.379
	l0.584-2.402l1.742-7.195h1.688l-3.186,12.445h-1.8l-1.629-7.453l-0.387-2.121l-2.063,9.574H226.529z"/>
<path d="M245.496,499.26c-0.578,0.602-1.18,1.055-1.805,1.359s-1.273,0.457-1.945,0.457c-1.063,0-1.91-0.32-2.543-0.961
	s-0.949-1.504-0.949-2.59c0-0.719,0.148-1.355,0.445-1.91s0.703-0.988,1.219-1.301s1.297-0.543,2.344-0.691
	c1.406-0.206,2.438-0.452,3.094-0.738l0.012-0.539c0-0.852-0.152-1.449-0.457-1.793c-0.43-0.5-1.09-0.75-1.98-0.75
	c-0.805,0-1.406,0.167-1.805,0.501c-0.398,0.333-0.691,0.959-0.879,1.878l-1.699-0.281c0.242-1.336,0.732-2.309,1.471-2.918
	s1.795-0.914,3.17-0.914c1.07,0,1.91,0.201,2.52,0.604s0.994,0.9,1.154,1.494s0.24,1.461,0.24,2.602v2.813
	c0,1.969,0.037,3.209,0.111,3.721s0.221,1.01,0.439,1.494h-1.805C245.667,500.365,245.55,499.854,245.496,499.26z M245.355,494.549
	c-0.633,0.313-1.574,0.578-2.824,0.797c-0.727,0.125-1.234,0.268-1.523,0.428s-0.514,0.387-0.674,0.68s-0.24,0.631-0.24,1.014
	c0,0.594,0.184,1.068,0.551,1.424s0.875,0.533,1.523,0.533c0.617,0,1.178-0.16,1.682-0.48s0.881-0.748,1.131-1.283
	s0.375-1.314,0.375-2.338V494.549z"/>
<path d="M249.738,500.795v-17.18h1.723v17.18H249.738z"/>
<path d="M254.203,500.795v-17.18h1.723v9.813l4.106-5.079h2.239l-3.903,4.621l4.291,7.824h-2.122l-3.391-6.378l-1.22,1.444v4.934
	H254.203z"/>
</svg>
