<?xml version="1.0" encoding="utf-8"?>
<!-- Generator: Adobe Illustrator 14.0.0, SVG Export Plug-In  -->
<!DOCTYPE svg PUBLIC "-//W3C//DTD SVG 1.1//EN" "http://www.w3.org/Graphics/SVG/1.1/DTD/svg11.dtd" [
	<!ENTITY ns_flows "http://ns.adobe.com/Flows/1.0/">
]>
<svg version="1.1"
	 xmlns="http://www.w3.org/2000/svg" xmlns:xlink="http://www.w3.org/1999/xlink" xmlns:a="http://ns.adobe.com/AdobeSVGViewerExtensions/3.0/"
	 x="0px" y="0px" width="150px" height="150px" viewBox="600 150 150 150" enable-background="new 600 150 150 150"
	 xml:space="preserve">
<defs>
</defs>
<polyline fill="none" stroke="#000000" stroke-width="0.5" points="713.831,299.917 737.563,338.027 750,354.147 "/>
<polyline fill="none" stroke="#000000" stroke-width="0.5" points="706.258,299.917 734.731,338.027 750.095,356.522 "/>
<polyline fill="none" stroke="#000000" stroke-width="0.5" points="665.639,299.917 708.513,338.027 750.095,365.712 "/>
<polyline fill="none" stroke="#000000" stroke-width="0.5" points="655.187,299.917 705.682,338.027 750.095,367.975 "/>
<path fill="#636466" d="M600.096,180.135c0,0,36.724-3.235,41.25-2.977c4.935,0.282,23.685,5.357,26.505,6.203
	c2.819,0.846,17.623,4.371,17.623,4.371l14.803,4.525c0,0,8.599-0.437,10.433-1.423c1.833-0.987-4.65,3.524-7.049,3.807
	c-2.397,0.282-5.64-0.564-5.64-0.564s6.346,2.397,8.601,4.229c2.255,1.833,4.229,3.806,5.779,5.498
	c1.552,1.692,3.243,2.961,3.243,2.961s-2.962-0.422-3.807-1.41c-0.846-0.987-2.397-3.948-3.666-4.512s-7.048-2.679-10.291-3.666
	c-3.243-0.986-8.46-3.966-13.394-5.226c-4.934-1.259-14.098-2.387-16.213-3.374s-14.943-5.639-20.02-6.203
	s-21.147,0.705-24.249,1.41s-23.968,2.961-23.968,2.961L600.096,180.135z"/>
<path fill="#636466" d="M685.474,187.731c0,0-1.69-5.358-0.705-7.331c0.986-1.973,9.868-1.269,9.868-1.269s-5.499,1.692-5.921,2.396
	c-0.423,0.705,0.128,7.233,0.128,7.233"/>
<path fill="#636466" d="M691.885,166.083c0,0,4.381,3.142,3.885,5.869c-0.497,2.728-1.653,5.249-2.976,5.187
	c-1.322-0.063-2.314-2.129-2.232-3.452c0.083-1.322,1.735-2.893,1.984-4.133C692.794,168.315,691.885,166.083,691.885,166.083z"/>
<path fill="#636466" d="M705.605,166.083c0,0,0.495,6.283-2.563,8.928c-3.058,2.645-5.703,3.1-6.612,2.128s-0.332-3.995,1.074-5.293
	s5.125-1.712,6.034-2.456C704.449,168.646,705.605,166.083,705.605,166.083z"/>
<path fill="#636466" d="M708.086,182.533c0,0-2.562-4.05-5.951-4.05s-4.463,1.571-4.547,2.397c-0.083,0.826,1.408,2.232,3.226,2.232
	c1.816,0,2.559-1.24,3.882-1.24C706.02,181.872,708.086,182.533,708.086,182.533z"/>
<path fill="#636466" d="M711.971,180.797c0,0,2.065,3.471,1.652,4.876c-0.412,1.406-0.414,3.283-2.149,3.088
	s-2.313-1.601-1.983-2.592c0.331-0.992,1.372-1.075,2.05-1.983C712.219,183.277,711.971,180.797,711.971,180.797z"/>
<path fill="#636466" d="M721.973,183.524c0,0-0.035,0.119-0.102,0.323c-0.358,1.097-1.642,4.666-3.453,5.711
	c-2.149,1.24-4.52,1.239-4.739,0c-0.22-1.24,0.193-2.562,1.268-3.141c1.074-0.579,3.554-0.331,4.464-0.826
	C720.319,185.095,721.973,183.524,721.973,183.524z"/>
<path fill="#636466" d="M720.235,195.841c0,0-1.735-3.066-3.388-3.889c-1.653-0.822-2.898-0.326-3.227,0.417
	s0.002,1.735,1.242,2.066c1.24,0.332,1.899-0.413,2.934,0C718.831,194.849,720.235,195.841,720.235,195.841z"/>
<path fill="#636466" d="M725.278,206.008c0,0-2.729,2.562-5.043,1.984c-2.313-0.579-2.812-1.323-2.438-2.48
	c0.373-1.157,1.033-1.57,2.438-1.24c1.406,0.331,2.151,1.711,2.977,1.848C724.038,206.255,725.278,206.008,725.278,206.008z"/>
<path fill="#636466" d="M724.204,216.257c0,0-5.434-0.827-6.52-2.645s-0.981-4.464,0-4.794s1.87-0.826,2.872,0.496
	c1.003,1.322,0.186,2.81,0.925,3.885C722.221,214.274,724.204,216.257,724.204,216.257z"/>
<path fill="#636466" d="M711.54,216.257c0,0,4.058-2.521,4.104-3.905c0.046-1.384,0.13-3.204-1.11-3.906
	c-1.24-0.703-1.984,0.62-2.232,1.447c-0.248,0.826,0.661,2.975,0.579,3.306c-0.082,0.331-1.34,2.563-1.34,2.563"/>
<line display="none" fill="none" stroke="#000000" x1="750" y1="0" x2="750" y2="750"/>
<line display="none" fill="none" stroke="#000000" x1="600.02" y1="0" x2="600.02" y2="750"/>
<line display="none" fill="none" stroke="#000000" x1="0" y1="150" x2="750" y2="150"/>
<line display="none" fill="none" stroke="#000000" x1="0" y1="300" x2="750" y2="300"/>
<path d="M658.359,242.976v-17.18h1.863v15.152h6.938v2.027H658.359z"/>
<path d="M668.52,236.753c0-2.148,0.451-3.77,1.354-4.863s2.045-1.641,3.428-1.641c1.359,0,2.496,0.547,3.41,1.641
	s1.371,2.672,1.371,4.734c0,2.234-0.449,3.898-1.348,4.992s-2.043,1.641-3.434,1.641c-1.367,0-2.506-0.549-3.416-1.646
	S668.52,238.894,668.52,236.753z M670.289,236.747c0,1.611,0.293,2.811,0.879,3.596c0.586,0.787,1.313,1.18,2.18,1.18
	c0.813,0,1.51-0.396,2.092-1.191c0.582-0.793,0.873-1.988,0.873-3.584c0-1.604-0.293-2.799-0.879-3.584
	c-0.586-0.787-1.313-1.18-2.18-1.18c-0.82,0-1.52,0.395-2.098,1.186C670.578,233.958,670.289,235.151,670.289,236.747z"/>
<path d="M682.002,242.976l-3.135-12.445h1.787l1.625,7.184l0.602,2.672l0.539-2.566l1.619-7.289h1.785l1.52,7.219l0.514,2.379
	l0.584-2.402l1.742-7.195h1.688l-3.186,12.445h-1.801l-1.629-7.453l-0.387-2.121l-2.063,9.574H682.002z"/>
<path d="M621.457,260.361c0-2.148,0.451-3.77,1.354-4.863s2.045-1.641,3.428-1.641c1.359,0,2.496,0.547,3.41,1.641
	s1.371,2.672,1.371,4.734c0,2.234-0.449,3.898-1.348,4.992s-2.043,1.641-3.434,1.641c-1.367,0-2.506-0.549-3.416-1.646
	S621.457,262.502,621.457,260.361z M623.227,260.355c0,1.611,0.293,2.81,0.879,3.597c0.586,0.785,1.313,1.179,2.18,1.179
	c0.813,0,1.51-0.397,2.092-1.19c0.582-0.795,0.873-1.989,0.873-3.585c0-1.604-0.293-2.798-0.879-3.585
	c-0.586-0.785-1.313-1.179-2.18-1.179c-0.82,0-1.52,0.396-2.098,1.185C623.516,257.567,623.227,258.76,623.227,260.355z"/>
<path d="M635.908,266.584l-3.881-12.445h1.828l2.195,7.453c0.25,0.844,0.471,1.68,0.658,2.508c0.148-0.656,0.359-1.445,0.633-2.367
	l2.279-7.594h1.781l-3.883,12.445H635.908z"/>
<path d="M649.875,262.576l1.781,0.27c-0.297,1.328-0.834,2.33-1.611,3.006s-1.74,1.014-2.889,1.014c-1.445,0-2.615-0.549-3.51-1.646
	s-1.342-2.682-1.342-4.752c0-2.148,0.451-3.787,1.354-4.916s2.045-1.693,3.428-1.693c1.32,0,2.422,0.555,3.305,1.664
	s1.324,2.715,1.324,4.816l-0.012,0.563h-7.617c0.07,1.398,0.395,2.453,0.973,3.164s1.281,1.066,2.109,1.066
	C648.465,265.131,649.367,264.279,649.875,262.576z M644.191,259.166h5.695c-0.078-1.078-0.309-1.883-0.691-2.414
	c-0.555-0.773-1.262-1.16-2.121-1.16c-0.773,0-1.434,0.322-1.98,0.967S644.246,258.072,644.191,259.166z"/>
<path d="M653.848,266.584v-12.445h1.559v1.887c0.398-0.875,0.764-1.455,1.096-1.74s0.705-0.428,1.119-0.428
	c0.578,0,1.168,0.227,1.77,0.68l-0.586,1.957c-0.43-0.305-0.848-0.457-1.254-0.457c-0.367,0-0.703,0.129-1.008,0.387
	s-0.52,0.617-0.645,1.078c-0.219,0.805-0.328,1.66-0.328,2.566v6.516H653.848z"/>
<path d="M660.398,266.584v-17.18h1.723v6.164c0.406-0.57,0.865-0.998,1.377-1.283s1.076-0.428,1.693-0.428
	c1.086,0,1.943,0.346,2.572,1.037s0.943,1.959,0.943,3.803v7.887h-1.723v-7.887c0-1.078-0.191-1.852-0.574-2.32
	s-0.91-0.703-1.582-0.703c-0.75,0-1.389,0.301-1.916,0.902s-0.791,1.668-0.791,3.199v6.809H660.398z"/>
<path d="M677.988,265.049c-0.578,0.602-1.18,1.055-1.805,1.359s-1.273,0.457-1.945,0.457c-1.063,0-1.91-0.32-2.543-0.961
	s-0.949-1.504-0.949-2.59c0-0.719,0.148-1.355,0.445-1.91s0.703-0.988,1.219-1.301s1.297-0.543,2.344-0.691
	c1.406-0.206,2.438-0.452,3.094-0.738l0.012-0.539c0-0.852-0.152-1.449-0.457-1.793c-0.43-0.5-1.09-0.75-1.98-0.75
	c-0.805,0-1.406,0.167-1.805,0.501c-0.398,0.333-0.691,0.959-0.879,1.878l-1.699-0.281c0.242-1.336,0.732-2.309,1.471-2.918
	s1.795-0.914,3.17-0.914c1.07,0,1.91,0.201,2.52,0.604s0.994,0.9,1.154,1.494s0.24,1.461,0.24,2.602v2.813
	c0,1.969,0.037,3.209,0.111,3.721s0.221,1.01,0.439,1.494h-1.805C678.16,266.154,678.043,265.643,677.988,265.049z M677.848,260.338
	c-0.633,0.313-1.574,0.578-2.824,0.797c-0.727,0.125-1.234,0.268-1.523,0.428s-0.514,0.387-0.674,0.68s-0.24,0.631-0.24,1.014
	c0,0.594,0.184,1.068,0.551,1.424s0.875,0.533,1.523,0.533c0.617,0,1.178-0.16,1.682-0.48s0.881-0.748,1.131-1.283
	s0.375-1.314,0.375-2.338V260.338z"/>
<path d="M682.289,266.584v-12.445h1.559v1.758c0.373-0.684,0.832-1.194,1.375-1.532c0.541-0.338,1.162-0.507,1.865-0.507
	c0.545,0,1.051,0.107,1.514,0.322c0.465,0.215,0.84,0.496,1.125,0.844c0.283,0.348,0.496,0.799,0.637,1.354s0.211,1.406,0.211,2.555
	v7.652h-1.723v-7.578c0-0.915-0.078-1.584-0.234-2.007c-0.156-0.422-0.4-0.748-0.732-0.979c-0.332-0.231-0.717-0.347-1.154-0.347
	c-0.828,0-1.488,0.31-1.98,0.927c-0.492,0.618-0.738,1.678-0.738,3.18v6.804H682.289z"/>
<path d="M692.895,267.615l1.688,0.305c0.078,0.668,0.313,1.165,0.703,1.491s0.934,0.489,1.629,0.489
	c0.758,0,1.361-0.182,1.811-0.545s0.756-0.904,0.92-1.624c0.102-0.438,0.152-1.359,0.152-2.766
	c-0.375,0.535-0.797,0.939-1.266,1.211s-0.988,0.407-1.559,0.407c-1.219,0-2.23-0.516-3.035-1.547
	c-0.922-1.188-1.383-2.777-1.383-4.77c0-1.336,0.203-2.504,0.609-3.504s0.939-1.734,1.6-2.203s1.4-0.703,2.221-0.703
	c0.602,0,1.15,0.147,1.646,0.442s0.936,0.737,1.318,1.327v-1.488h1.594v10.758c0,1.914-0.156,3.279-0.469,4.096
	s-0.824,1.461-1.535,1.934s-1.566,0.709-2.566,0.709c-1.32,0-2.336-0.355-3.047-1.066S692.871,268.873,692.895,267.615z
	 M694.324,260.139c0,1.637,0.27,2.831,0.811,3.583c0.539,0.752,1.201,1.128,1.984,1.128s1.447-0.368,1.996-1.104
	c0.547-0.736,0.822-1.907,0.822-3.513c0-1.566-0.283-2.731-0.846-3.495c-0.564-0.764-1.248-1.146-2.055-1.146
	c-0.721,0-1.354,0.382-1.896,1.146C694.596,257.501,694.324,258.635,694.324,260.139z"/>
<path d="M704.18,251.83v-2.426h1.723v2.426H704.18z M704.18,266.584v-12.445h1.723v12.445H704.18z"/>
<path d="M708.551,266.584v-12.445h1.559v1.758c0.373-0.684,0.832-1.194,1.375-1.532c0.541-0.338,1.162-0.507,1.865-0.507
	c0.545,0,1.051,0.107,1.514,0.322c0.465,0.215,0.84,0.496,1.125,0.844c0.283,0.348,0.496,0.799,0.637,1.354s0.211,1.406,0.211,2.555
	v7.652h-1.723v-7.578c0-0.915-0.078-1.584-0.234-2.007c-0.156-0.422-0.4-0.748-0.732-0.979c-0.332-0.231-0.717-0.347-1.154-0.347
	c-0.828,0-1.488,0.31-1.98,0.927c-0.492,0.618-0.738,1.678-0.738,3.18v6.804H708.551z"/>
<path d="M719.156,267.615l1.688,0.305c0.078,0.668,0.313,1.165,0.703,1.491s0.934,0.489,1.629,0.489
	c0.758,0,1.361-0.182,1.811-0.545s0.756-0.904,0.92-1.624c0.102-0.438,0.152-1.359,0.152-2.766
	c-0.375,0.535-0.797,0.939-1.266,1.211s-0.988,0.407-1.559,0.407c-1.219,0-2.23-0.516-3.035-1.547
	c-0.922-1.188-1.383-2.777-1.383-4.77c0-1.336,0.203-2.504,0.609-3.504s0.939-1.734,1.6-2.203s1.4-0.703,2.221-0.703
	c0.602,0,1.15,0.147,1.646,0.442s0.936,0.737,1.318,1.327v-1.488h1.594v10.758c0,1.914-0.156,3.279-0.469,4.096
	s-0.824,1.461-1.535,1.934s-1.566,0.709-2.566,0.709c-1.32,0-2.336-0.355-3.047-1.066S719.133,268.873,719.156,267.615z
	 M720.586,260.139c0,1.637,0.27,2.831,0.811,3.583c0.539,0.752,1.201,1.128,1.984,1.128s1.447-0.368,1.996-1.104
	c0.547-0.736,0.822-1.907,0.822-3.513c0-1.566-0.283-2.731-0.846-3.495c-0.564-0.764-1.248-1.146-2.055-1.146
	c-0.721,0-1.354,0.382-1.896,1.146C720.857,257.501,720.586,258.635,720.586,260.139z"/>
<path d="M637.377,290.192h-1.605v-17.18h1.734v6.129c0.367-0.563,0.783-0.982,1.248-1.26s0.982-0.416,1.553-0.416
	c0.797,0,1.521,0.238,2.174,0.715s1.174,1.199,1.564,2.168s0.586,2.145,0.586,3.527c0,2.109-0.443,3.736-1.326,4.881
	c-0.885,1.145-1.918,1.717-3.1,1.717c-0.594,0-1.129-0.154-1.602-0.463c-0.475-0.309-0.883-0.768-1.227-1.377V290.192z
	 M637.352,283.876c0,1.289,0.117,2.254,0.352,2.895s0.568,1.129,0.998,1.465c0.432,0.336,0.91,0.504,1.434,0.504
	c0.713,0,1.346-0.4,1.898-1.201c0.551-0.801,0.828-1.998,0.828-3.592c0-1.633-0.268-2.832-0.799-3.598
	c-0.533-0.766-1.188-1.148-1.963-1.148c-0.713,0-1.35,0.4-1.908,1.201C637.631,281.202,637.352,282.36,637.352,283.876z"/>
<path d="M646.74,290.192v-12.445h1.559v1.887c0.398-0.875,0.764-1.455,1.096-1.74s0.705-0.428,1.119-0.428
	c0.578,0,1.168,0.227,1.77,0.68l-0.586,1.957c-0.43-0.305-0.848-0.457-1.254-0.457c-0.367,0-0.703,0.129-1.008,0.387
	s-0.52,0.617-0.645,1.078c-0.219,0.805-0.328,1.66-0.328,2.566v6.516H646.74z"/>
<path d="M659.936,288.657c-0.578,0.602-1.18,1.055-1.805,1.359s-1.273,0.457-1.945,0.457c-1.063,0-1.91-0.32-2.543-0.961
	s-0.949-1.504-0.949-2.59c0-0.719,0.148-1.355,0.445-1.91s0.703-0.988,1.219-1.301s1.297-0.543,2.344-0.691
	c1.406-0.206,2.438-0.452,3.094-0.738l0.012-0.539c0-0.852-0.152-1.449-0.457-1.793c-0.43-0.5-1.09-0.75-1.98-0.75
	c-0.805,0-1.406,0.168-1.805,0.501c-0.398,0.334-0.691,0.96-0.879,1.878l-1.699-0.281c0.242-1.336,0.732-2.309,1.471-2.918
	s1.795-0.914,3.17-0.914c1.07,0,1.91,0.201,2.52,0.604s0.994,0.9,1.154,1.494s0.24,1.461,0.24,2.602v2.813
	c0,1.969,0.037,3.209,0.111,3.721s0.221,1.01,0.439,1.494h-1.805C660.107,289.763,659.99,289.251,659.936,288.657z M659.795,283.946
	c-0.633,0.313-1.574,0.578-2.824,0.797c-0.727,0.125-1.234,0.268-1.523,0.428s-0.514,0.387-0.674,0.68s-0.24,0.631-0.24,1.014
	c0,0.594,0.184,1.068,0.551,1.424s0.875,0.533,1.523,0.533c0.617,0,1.178-0.16,1.682-0.48s0.881-0.748,1.131-1.283
	s0.375-1.314,0.375-2.338V283.946z"/>
<path d="M664.236,290.192v-12.445h1.559v1.758c0.373-0.683,0.832-1.193,1.375-1.531c0.541-0.338,1.162-0.508,1.865-0.508
	c0.545,0,1.051,0.107,1.514,0.322c0.465,0.215,0.84,0.496,1.125,0.844c0.283,0.348,0.496,0.799,0.637,1.354s0.211,1.406,0.211,2.555
	v7.652h-1.723v-7.578c0-0.915-0.078-1.584-0.234-2.006s-0.4-0.749-0.732-0.979c-0.332-0.231-0.717-0.347-1.154-0.347
	c-0.828,0-1.488,0.31-1.98,0.928c-0.492,0.617-0.738,1.678-0.738,3.179v6.804H664.236z"/>
<path d="M681.861,285.634l1.699,0.27c-0.195,1.484-0.686,2.617-1.471,3.398s-1.729,1.172-2.83,1.172
	c-1.336,0-2.436-0.549-3.299-1.646s-1.295-2.721-1.295-4.869c0-2.164,0.436-3.787,1.307-4.869s1.99-1.623,3.357-1.623
	c1.055,0,1.943,0.328,2.666,0.984s1.186,1.641,1.389,2.953l-1.676,0.305c-0.164-0.84-0.449-1.467-0.855-1.883
	s-0.895-0.625-1.465-0.625c-0.852,0-1.557,0.377-2.115,1.131s-0.838,1.951-0.838,3.592c0,1.695,0.268,2.922,0.803,3.68
	s1.221,1.137,2.057,1.137c0.656,0,1.217-0.252,1.682-0.756S681.736,286.696,681.861,285.634z"/>
<path d="M685.025,290.192v-17.18h1.723v6.164c0.406-0.57,0.865-0.998,1.377-1.283s1.076-0.428,1.693-0.428
	c1.086,0,1.943,0.346,2.572,1.037s0.943,1.959,0.943,3.803v7.887h-1.723v-7.887c0-1.078-0.191-1.852-0.574-2.32
	s-0.91-0.703-1.582-0.703c-0.75,0-1.389,0.301-1.916,0.902s-0.791,1.668-0.791,3.199v6.809H685.025z"/>
<path d="M702.943,286.185l1.781,0.27c-0.297,1.328-0.834,2.33-1.611,3.006s-1.74,1.014-2.889,1.014c-1.445,0-2.615-0.549-3.51-1.646
	s-1.342-2.682-1.342-4.752c0-2.148,0.451-3.787,1.354-4.916s2.045-1.693,3.428-1.693c1.32,0,2.422,0.555,3.305,1.664
	s1.324,2.715,1.324,4.816l-0.012,0.563h-7.617c0.07,1.398,0.395,2.453,0.973,3.164s1.281,1.066,2.109,1.066
	C701.533,288.739,702.436,287.888,702.943,286.185z M697.26,282.774h5.695c-0.078-1.078-0.309-1.883-0.691-2.414
	c-0.555-0.773-1.262-1.16-2.121-1.16c-0.773,0-1.434,0.322-1.98,0.967S697.314,281.681,697.26,282.774z"/>
<path d="M706.248,286.466l1.723-0.328c0.102,0.879,0.377,1.533,0.83,1.961c0.451,0.428,1.053,0.641,1.801,0.641
	s1.326-0.186,1.736-0.557c0.408-0.371,0.613-0.842,0.613-1.412c0-0.492-0.176-0.875-0.527-1.148
	c-0.242-0.188-0.828-0.422-1.758-0.703c-1.344-0.414-2.242-0.766-2.695-1.055s-0.805-0.676-1.055-1.16s-0.375-1.035-0.375-1.652
	c0-1.063,0.34-1.926,1.02-2.59s1.621-0.996,2.824-0.996c0.758,0,1.424,0.137,1.998,0.41s1.014,0.641,1.318,1.102
	s0.516,1.121,0.633,1.98l-1.688,0.281c-0.156-1.359-0.895-2.039-2.215-2.039c-0.75,0-1.309,0.15-1.676,0.449
	c-0.367,0.301-0.551,0.684-0.551,1.15c0,0.459,0.176,0.82,0.527,1.085c0.211,0.155,0.838,0.405,1.879,0.747
	c1.432,0.454,2.357,0.816,2.777,1.086c0.42,0.271,0.748,0.639,0.98,1.104c0.234,0.467,0.352,1.02,0.352,1.662
	c0,1.189-0.377,2.151-1.131,2.887c-0.754,0.736-1.783,1.104-3.088,1.104C708.057,290.474,706.639,289.138,706.248,286.466z"/>
</svg>
