<?xml version="1.0" encoding="utf-8"?>
<!-- Generator: Adobe Illustrator 14.0.0, SVG Export Plug-In  -->
<!DOCTYPE svg PUBLIC "-//W3C//DTD SVG 1.1//EN" "http://www.w3.org/Graphics/SVG/1.1/DTD/svg11.dtd" [
	<!ENTITY ns_flows "http://ns.adobe.com/Flows/1.0/">
]>
<svg version="1.1"
	 xmlns="http://www.w3.org/2000/svg" xmlns:xlink="http://www.w3.org/1999/xlink" xmlns:a="http://ns.adobe.com/AdobeSVGViewerExtensions/3.0/"
	 x="0px" y="0px" width="150px" height="150px" viewBox="300 0.5 150 150" enable-background="new 300 0.5 150 150"
	 xml:space="preserve">
<defs>
</defs>
<circle fill="none" stroke="#000000" cx="365.868" cy="117.695" r="3.209"/>
<circle fill="none" stroke="#000000" cx="365.869" cy="117.695" r="8.827"/>
<line fill="none" stroke="#000000" x1="360.005" y1="77.461" x2="362.038" y2="109.751"/>
<polyline fill="none" stroke="#000000" points="365.867,126.521 392.467,126.521 396.2,77.461 "/>
<path fill="none" stroke="#000000" d="M352.756,77.461c-1.319,0-2.389-1.07-2.389-2.389s1.069-2.389,2.389-2.389h46.877v4.777
	H352.756z"/>
<line fill="none" stroke="#000000" x1="353.008" y1="77.461" x2="360.421" y2="84.067"/>
<polyline fill="none" stroke="#000000" points="360.005,72.684 363.499,66.521 379.684,66.521 381.942,69.603 394.268,69.603 
	396.056,72.684 "/>
<line display="none" fill="none" stroke="#000000" x1="300.058" y1="0.5" x2="300.058" y2="750.5"/>
<line display="none" fill="none" stroke="#000000" x1="450.097" y1="0.5" x2="450.097" y2="750.5"/>
<line display="none" fill="none" stroke="#000000" x1="0" y1="0.5" x2="750" y2="0.5"/>
<line display="none" fill="none" stroke="#000000" x1="0" y1="150.5" x2="750" y2="150.5"/>
<path d="M324.544,27.682v-17.18h6.246c1.305,0,2.268,0.16,2.889,0.48c0.621,0.32,1.131,0.853,1.529,1.598s0.598,1.611,0.598,2.594
	c0,1.296-0.338,2.346-1.014,3.15s-1.658,1.315-2.947,1.534c0.523,0.314,0.922,0.633,1.195,0.955
	c0.555,0.656,1.043,1.387,1.465,2.191l2.461,4.676h-2.344l-1.879-3.572c-0.728-1.397-1.277-2.339-1.647-2.824
	c-0.371-0.485-0.73-0.812-1.077-0.98s-0.833-0.252-1.458-0.252h-2.154v7.629H324.544z M326.408,18.084h4.008
	c0.875,0,1.539-0.105,1.992-0.316s0.813-0.543,1.078-0.996s0.398-0.98,0.398-1.582c0-0.867-0.254-1.549-0.762-2.045
	s-1.262-0.744-2.262-0.744h-4.453V18.084z"/>
<path d="M345.486,23.674l1.781,0.27c-0.297,1.328-0.834,2.33-1.611,3.006s-1.74,1.014-2.889,1.014c-1.445,0-2.615-0.549-3.51-1.646
	s-1.342-2.682-1.342-4.752c0-2.148,0.451-3.787,1.354-4.916s2.045-1.693,3.428-1.693c1.32,0,2.422,0.555,3.305,1.664
	s1.324,2.715,1.324,4.816l-0.012,0.563h-7.617c0.07,1.398,0.395,2.453,0.973,3.164s1.281,1.066,2.109,1.066
	C344.076,26.229,344.978,25.377,345.486,23.674z M339.802,20.264h5.695c-0.078-1.078-0.309-1.883-0.691-2.414
	c-0.555-0.773-1.262-1.16-2.121-1.16c-0.773,0-1.434,0.322-1.98,0.967S339.857,19.17,339.802,20.264z"/>
<path d="M349.939,27.682V16.877h-1.535v-1.641h1.535v-1.324c0-0.977,0.102-1.709,0.306-2.197c0.203-0.488,0.515-0.861,0.934-1.119
	s0.946-0.387,1.581-0.387c0.493,0,1.033,0.074,1.621,0.223l-0.258,1.828c-0.359-0.078-0.699-0.117-1.02-0.117
	c-0.516,0-0.885,0.135-1.107,0.404s-0.334,0.783-0.334,1.541v1.148h1.992v1.641h-1.992v10.805H349.939z"/>
<path d="M361.611,27.682v-1.828c-0.398,0.703-0.867,1.23-1.406,1.582s-1.148,0.527-1.828,0.527c-0.805,0-1.492-0.217-2.063-0.65
	s-0.951-0.982-1.143-1.646s-0.287-1.57-0.287-2.719v-7.711h1.723v6.902c0,1.281,0.064,2.139,0.193,2.572s0.367,0.781,0.715,1.043
	s0.744,0.393,1.189,0.393c0.828,0,1.508-0.34,2.039-1.02c0.453-0.586,0.68-1.66,0.68-3.223v-6.668h1.734v12.445H361.611z"/>
<path d="M365.208,23.955l1.723-0.328c0.102,0.879,0.378,1.532,0.83,1.96s1.052,0.642,1.801,0.642c0.748,0,1.326-0.186,1.735-0.557
	s0.614-0.842,0.614-1.412c0-0.492-0.176-0.875-0.527-1.148c-0.242-0.188-0.828-0.422-1.758-0.703
	c-1.344-0.414-2.242-0.766-2.695-1.055s-0.805-0.676-1.055-1.16s-0.375-1.035-0.375-1.652c0-1.063,0.34-1.926,1.02-2.59
	s1.621-0.996,2.824-0.996c0.758,0,1.424,0.137,1.998,0.41s1.014,0.641,1.318,1.102s0.516,1.121,0.633,1.98l-1.688,0.281
	c-0.156-1.359-0.895-2.039-2.215-2.039c-0.75,0-1.309,0.15-1.676,0.449c-0.367,0.3-0.551,0.683-0.551,1.149
	c0,0.459,0.176,0.821,0.528,1.086c0.211,0.155,0.837,0.404,1.879,0.747c1.431,0.455,2.357,0.816,2.777,1.086s0.747,0.638,0.98,1.104
	s0.351,1.02,0.351,1.661c0,1.189-0.377,2.152-1.131,2.888c-0.754,0.736-1.783,1.104-3.088,1.104
	C367.017,27.963,365.599,26.627,365.208,23.955z"/>
<path d="M382.693,23.674l1.781,0.27c-0.297,1.328-0.834,2.33-1.611,3.006s-1.74,1.014-2.889,1.014c-1.445,0-2.615-0.549-3.51-1.646
	c-0.895-1.098-1.342-2.682-1.342-4.752c0-2.148,0.451-3.787,1.354-4.916c0.902-1.129,2.045-1.693,3.428-1.693
	c1.32,0,2.422,0.555,3.305,1.664s1.324,2.715,1.324,4.816l-0.012,0.563h-7.617c0.07,1.398,0.395,2.453,0.973,3.164
	s1.281,1.066,2.109,1.066C381.283,26.229,382.186,25.377,382.693,23.674z M377.01,20.264h5.695
	c-0.078-1.078-0.309-1.883-0.691-2.414c-0.555-0.773-1.262-1.16-2.121-1.16c-0.773,0-1.434,0.322-1.98,0.967
	S377.064,19.17,377.01,20.264z"/>
<path d="M393.721,27.682h-1.605v-17.18h1.734v6.129c0.367-0.563,0.783-0.982,1.248-1.26s0.982-0.416,1.553-0.416
	c0.797,0,1.521,0.238,2.174,0.715s1.174,1.199,1.564,2.168s0.586,2.145,0.586,3.527c0,2.109-0.443,3.736-1.326,4.881
	c-0.885,1.145-1.918,1.717-3.1,1.717c-0.594,0-1.129-0.154-1.602-0.463c-0.475-0.309-0.883-0.768-1.227-1.377V27.682z
	 M393.695,21.365c0,1.289,0.117,2.254,0.352,2.895s0.568,1.129,0.998,1.465c0.432,0.336,0.908,0.504,1.434,0.504
	c0.713,0,1.346-0.4,1.898-1.201c0.551-0.801,0.828-1.998,0.828-3.592c0-1.633-0.268-2.832-0.799-3.598
	c-0.533-0.766-1.188-1.148-1.963-1.148c-0.713,0-1.35,0.4-1.908,1.201C393.975,18.691,393.695,19.85,393.695,21.365z"/>
<path d="M403.084,12.928v-2.426h1.723v2.426H403.084z M403.084,27.682V15.236h1.723v12.445H403.084z"/>
<path d="M407.455,27.682V15.236h1.559v1.758c0.373-0.684,0.832-1.194,1.375-1.532c0.541-0.338,1.162-0.507,1.865-0.507
	c0.545,0,1.051,0.107,1.514,0.322c0.465,0.215,0.84,0.496,1.123,0.844c0.285,0.348,0.498,0.799,0.639,1.354s0.211,1.406,0.211,2.555
	v7.652h-1.723v-7.578c0-0.916-0.078-1.584-0.234-2.006s-0.4-0.749-0.732-0.979c-0.332-0.231-0.717-0.346-1.154-0.346
	c-0.828,0-1.488,0.309-1.98,0.927c-0.492,0.618-0.738,1.678-0.738,3.179v6.804H407.455z"/>
<path d="M417.732,23.955l1.723-0.328c0.102,0.879,0.377,1.532,0.83,1.96c0.451,0.428,1.051,0.642,1.801,0.642
	c0.748,0,1.326-0.186,1.734-0.557c0.41-0.371,0.615-0.842,0.615-1.412c0-0.492-0.176-0.875-0.527-1.148
	c-0.242-0.188-0.828-0.422-1.758-0.703c-1.344-0.414-2.242-0.766-2.695-1.055s-0.805-0.676-1.055-1.16s-0.375-1.035-0.375-1.652
	c0-1.063,0.34-1.926,1.02-2.59s1.621-0.996,2.824-0.996c0.758,0,1.424,0.137,1.998,0.41s1.014,0.641,1.318,1.102
	s0.516,1.121,0.633,1.98l-1.688,0.281c-0.156-1.359-0.895-2.039-2.215-2.039c-0.75,0-1.309,0.15-1.676,0.449
	c-0.367,0.3-0.551,0.683-0.551,1.149c0,0.459,0.176,0.821,0.527,1.086c0.211,0.155,0.838,0.404,1.879,0.747
	c1.432,0.455,2.357,0.816,2.777,1.086s0.748,0.638,0.98,1.104c0.234,0.466,0.352,1.02,0.352,1.661c0,1.189-0.377,2.152-1.131,2.888
	c-0.754,0.736-1.783,1.104-3.088,1.104C419.541,27.963,418.123,26.627,417.732,23.955z"/>
<path d="M328.148,36.536V34.11h1.723v2.426H328.148z M328.148,51.29V38.845h1.723V51.29H328.148z"/>
<path d="M332.519,51.29V38.845h1.559v1.758c0.374-0.684,0.833-1.194,1.375-1.532c0.542-0.338,1.164-0.507,1.866-0.507
	c0.546,0,1.051,0.107,1.515,0.322c0.464,0.215,0.838,0.496,1.123,0.844s0.497,0.799,0.638,1.354c0.14,0.555,0.21,1.406,0.21,2.555
	v7.652h-1.723v-7.578c0-0.916-0.078-1.584-0.234-2.006s-0.4-0.749-0.732-0.979c-0.332-0.231-0.717-0.346-1.154-0.346
	c-0.828,0-1.488,0.309-1.98,0.927c-0.492,0.618-0.738,1.678-0.738,3.179v6.804H332.519z"/>
<path d="M348.269,47.563l1.723-0.328c0.102,0.879,0.378,1.532,0.83,1.96s1.052,0.642,1.801,0.642c0.748,0,1.326-0.186,1.735-0.557
	s0.614-0.842,0.614-1.412c0-0.492-0.176-0.875-0.527-1.148c-0.242-0.188-0.828-0.422-1.758-0.703
	c-1.344-0.414-2.242-0.766-2.695-1.055s-0.805-0.676-1.055-1.16s-0.375-1.035-0.375-1.652c0-1.063,0.34-1.926,1.02-2.59
	s1.621-0.996,2.824-0.996c0.758,0,1.424,0.137,1.998,0.41s1.014,0.641,1.318,1.102s0.516,1.121,0.633,1.98l-1.688,0.281
	c-0.156-1.359-0.895-2.039-2.215-2.039c-0.75,0-1.309,0.15-1.676,0.449c-0.367,0.3-0.551,0.683-0.551,1.149
	c0,0.459,0.176,0.821,0.528,1.086c0.211,0.155,0.837,0.404,1.879,0.747c1.431,0.455,2.357,0.816,2.777,1.086s0.747,0.638,0.98,1.104
	s0.351,1.02,0.351,1.661c0,1.189-0.377,2.152-1.131,2.888c-0.754,0.736-1.783,1.104-3.088,1.104
	C350.078,51.571,348.66,50.235,348.269,47.563z"/>
<path d="M358.781,36.536V34.11h1.723v2.426H358.781z M358.781,51.29V38.845h1.723V51.29H358.781z"/>
<path d="M369.761,51.29v-1.57c-0.313,0.602-0.715,1.061-1.207,1.377s-1.023,0.475-1.594,0.475c-1.203,0-2.244-0.568-3.123-1.705
	s-1.318-2.736-1.318-4.799c0-1.414,0.194-2.613,0.585-3.598c0.39-0.984,0.91-1.715,1.562-2.191s1.375-0.715,2.171-0.715
	c0.569,0,1.098,0.15,1.585,0.451s0.891,0.721,1.211,1.26V34.11h1.746v17.18H369.761z M364.289,45.079
	c0,1.609,0.279,2.805,0.839,3.586c0.559,0.781,1.209,1.172,1.952,1.172c0.734,0,1.372-0.375,1.911-1.125s0.81-1.883,0.81-3.398
	c0-1.742-0.271-3.014-0.81-3.814s-1.22-1.201-2.04-1.201c-0.728,0-1.353,0.385-1.877,1.154
	C364.55,42.222,364.289,43.431,364.289,45.079z"/>
<path d="M381.07,47.282l1.781,0.27c-0.297,1.328-0.834,2.33-1.611,3.006s-1.74,1.014-2.889,1.014c-1.445,0-2.616-0.549-3.51-1.646
	s-1.342-2.682-1.342-4.752c0-2.148,0.451-3.787,1.354-4.916s2.045-1.693,3.428-1.693c1.32,0,2.422,0.555,3.305,1.664
	s1.324,2.715,1.324,4.816l-0.012,0.563h-7.618c0.07,1.398,0.395,2.453,0.973,3.164c0.578,0.711,1.281,1.066,2.109,1.066
	C379.66,49.837,380.563,48.985,381.07,47.282z M375.386,43.872h5.696c-0.078-1.078-0.309-1.883-0.691-2.414
	c-0.555-0.773-1.262-1.16-2.121-1.16c-0.773,0-1.434,0.322-1.98,0.967C375.742,41.909,375.441,42.778,375.386,43.872z"/>
<path d="M386.924,51.29l-3.135-12.445h1.787l1.625,7.184l0.602,2.672l0.539-2.566l1.619-7.289h1.785l1.52,7.219l0.514,2.379
	l0.584-2.402l1.742-7.195h1.688l-3.186,12.445h-1.801l-1.629-7.453l-0.387-2.121l-2.063,9.574H386.924z"/>
<path d="M405.891,49.755c-0.578,0.602-1.18,1.055-1.805,1.359s-1.273,0.457-1.945,0.457c-1.063,0-1.91-0.32-2.543-0.961
	s-0.949-1.504-0.949-2.59c0-0.719,0.148-1.355,0.445-1.91s0.703-0.988,1.219-1.301s1.297-0.543,2.344-0.691
	c1.406-0.207,2.438-0.453,3.094-0.738l0.012-0.539c0-0.852-0.152-1.449-0.457-1.793c-0.43-0.5-1.09-0.75-1.98-0.75
	c-0.805,0-1.406,0.167-1.805,0.5s-0.691,0.96-0.879,1.878l-1.699-0.281c0.242-1.336,0.732-2.309,1.471-2.918s1.795-0.914,3.17-0.914
	c1.07,0,1.91,0.201,2.52,0.604s0.994,0.9,1.154,1.494s0.24,1.461,0.24,2.602v2.813c0,1.969,0.037,3.209,0.111,3.721
	s0.221,1.01,0.439,1.494h-1.805C406.063,50.86,405.945,50.349,405.891,49.755z M405.75,45.044c-0.633,0.313-1.574,0.578-2.824,0.797
	c-0.727,0.125-1.234,0.268-1.523,0.428s-0.514,0.387-0.674,0.68s-0.24,0.631-0.24,1.014c0,0.594,0.184,1.068,0.551,1.424
	s0.875,0.533,1.523,0.533c0.617,0,1.178-0.16,1.682-0.48s0.881-0.748,1.131-1.283s0.375-1.314,0.375-2.338V45.044z"/>
<path d="M410.133,51.29V34.11h1.723v17.18H410.133z"/>
<path d="M414.598,51.29V34.11h1.723v9.813l4.105-5.079h2.24l-3.904,4.621l4.291,7.824h-2.121l-3.391-6.378l-1.221,1.445v4.934
	H414.598z"/>
</svg>
