<?xml version="1.0" encoding="utf-8"?>
<!-- Generator: Adobe Illustrator 14.0.0, SVG Export Plug-In  -->
<!DOCTYPE svg PUBLIC "-//W3C//DTD SVG 1.1//EN" "http://www.w3.org/Graphics/SVG/1.1/DTD/svg11.dtd" [
	<!ENTITY ns_flows "http://ns.adobe.com/Flows/1.0/">
]>
<svg version="1.1"
	 xmlns="http://www.w3.org/2000/svg" xmlns:xlink="http://www.w3.org/1999/xlink" xmlns:a="http://ns.adobe.com/AdobeSVGViewerExtensions/3.0/"
	 x="0px" y="0px" width="150px" height="150px" viewBox="600 0.5 150 150" enable-background="new 600 0.5 150 150"
	 xml:space="preserve">
<defs>
</defs>
<g id="XMLID_1_">
	<g>
		<path fill="#404040" d="M651.704,80.938c-2.76,0-5.63,0.46-7.58-0.57c0.83-2.09,3.94-2.64,6.07-3.59
			c6.21-2.8,13.51-5.7,19.689-8.9c0.181-0.1,0.311-0.35,0.57-0.38c-2.87,4.33-7.04,8.99-10.42,13.44
			C657.475,80.938,654.475,80.938,651.704,80.938z"/>
		<path fill="#404040" d="M646.784,122.039c0.39-2.48,0.67-4.02,0.94-6.06c-0.36-0.4-1.511,0-1.511-0.76
			c-0.189-8.39-1.8-16.38-1.899-24.24c0.29,0,0.779-0.7,0.95-0.19c1.17,0.96,0.979,2.84,1.14,4.36c0.479,4.73,0.96,9.98,1.32,14.77
			c6.409,0.84,16.449-2.09,15.529,5.49c-0.58,0.68-2.26,0.26-3.41,0.38c0.08,1.64,0.391,3.76,0.761,5.87
			c0.33,1.88,1.39,4.22,0.189,5.68c-2.04-0.56-1.56-3.54-1.89-5.49c-0.37-2.15-0.88-4.27-1.14-6.06c-2.65,0-5.301,0-7.95,0
			c-0.44,1.84-0.74,3.63-1.141,6.06c-0.25,1.54-0.25,5.29-1.51,5.49C645.145,127.648,646.614,123.069,646.784,122.039z"/>
		<path fill="#404040" d="M705.864,80.188c-0.33,1.51-5.76,0.75-7.57,0.75c-3.279,0-5.43,0-8.149,0
			c-3.82-4.19-7.04-8.99-10.79-13.25c0.029-0.22,0.189-0.11,0.189,0c7.03,2.79,15.86,7.11,23.48,10.6
			C704.044,78.759,706.104,79.099,705.864,80.188z"/>
		<path fill="#404040" d="M661.744,105.938c-0.35-0.91-0.13-2.4-0.189-3.6c-0.921-0.66-4.051,0.82-3.98-1.32
			c1.76-1.09,4.87-0.57,7.76-0.57c2.91,0,5.94,0,8.53,0c0.44-6.13,0.06-13.07,0.19-19.51c-3.671,0-7.33,0-10.99,0
			c-0.101-1.2,1.45-2.32,2.46-3.6c2.89-3.63,6.21-7.99,9.09-11.74c0.1,0.05,0.29-0.05,0.38,0c2.19,1.44,4.34,4.97,6.44,7.58
			c2.25,2.78,4.27,5.59,5.68,7.76c-3.72,0-7.45,0-11.17,0c0,6.44,0,12.88,0,19.32c3.68,0.31,8.93,0.23,13.26,0.19
			c1.19-0.01,2.87-0.49,3.21,0.76c0.08,1.6-3.02,0.77-3.78,0.94c-0.479,0.91,0.091,2.87-0.38,3.79c-3.739,0.43-8.26,0.07-12.31,0.19
			c0,6.37,0,12.75,0,19.13c1.83,0.88,6.43-1.01,6.82,1.32c-1.54,1.32-4.91,0.76-7.771,0.76c-2.85,0-6.22,0.56-7.76-0.76
			c0.46-2.19,4.6-0.7,6.82-1.13c0-6.44,0-12.88,0-19.32C670.004,106.009,665.475,106.369,661.744,105.938z"/>
		<path fill="#404040" d="M705.674,90.979c0.061,7.95-1.93,15.49-1.699,24.24c-0.29,0.54-1.17,0.48-1.71,0.76
			c0.31,2,0.55,3.6,0.949,6.06c0.17,1.05,1.641,5.27-0.189,5.3c-1.44,0.02-1.45-3.93-1.7-5.49c-0.4-2.45-0.81-3.94-0.95-6.06
			c-2.649,0-5.3,0-7.96,0c-0.77,1.72-0.67,3.59-1.13,6.25c-0.2,1.16-0.479,5.52-1.9,5.3c-1.739-0.28-0.17-4.45,0-5.49
			c0.45-2.61,0.46-4.1,0.95-6.06c-1.2-0.13-2.97,0.32-3.6-0.38c-1.07-7.21,8.89-5,15.34-5.3c0.88-6.07,1.12-12.77,2.09-18.75
			C703.975,90.539,705.354,90.719,705.674,90.979z"/>
	</g>
	<g>
	</g>
</g>
<line display="none" fill="none" stroke="#000000" x1="750" y1="0.5" x2="750" y2="750.5"/>
<line display="none" fill="none" stroke="#000000" x1="600.02" y1="0.5" x2="600.02" y2="750.5"/>
<line display="none" fill="none" stroke="#000000" x1="0" y1="0.5" x2="750" y2="0.5"/>
<line display="none" fill="none" stroke="#000000" x1="0" y1="150.5" x2="750" y2="150.5"/>
<path d="M628.377,27.683v-17.18h6.246c1.305,0,2.268,0.16,2.889,0.48c0.621,0.32,1.131,0.853,1.529,1.598s0.598,1.611,0.598,2.594
	c0,1.296-0.338,2.346-1.014,3.15s-1.658,1.315-2.947,1.534c0.523,0.314,0.922,0.633,1.195,0.955
	c0.555,0.656,1.043,1.387,1.465,2.191l2.461,4.676h-2.344l-1.879-3.572c-0.729-1.397-1.277-2.339-1.648-2.824
	c-0.371-0.485-0.729-0.812-1.076-0.98s-0.834-0.252-1.457-0.252h-2.154v7.629H628.377z M630.24,18.085h4.008
	c0.875,0,1.539-0.105,1.992-0.316s0.813-0.543,1.078-0.996s0.398-0.98,0.398-1.582c0-0.867-0.254-1.549-0.762-2.045
	s-1.262-0.744-2.262-0.744h-4.453V18.085z"/>
<path d="M649.318,23.675l1.781,0.27c-0.297,1.328-0.834,2.33-1.611,3.006s-1.74,1.014-2.889,1.014c-1.445,0-2.615-0.549-3.51-1.646
	s-1.342-2.682-1.342-4.752c0-2.148,0.451-3.787,1.354-4.916s2.045-1.693,3.428-1.693c1.32,0,2.422,0.555,3.305,1.664
	s1.324,2.715,1.324,4.816l-0.012,0.563h-7.617c0.07,1.398,0.395,2.453,0.973,3.164s1.281,1.066,2.109,1.066
	C647.908,26.229,648.811,25.378,649.318,23.675z M643.635,20.265h5.695c-0.078-1.078-0.309-1.883-0.691-2.414
	c-0.555-0.773-1.262-1.16-2.121-1.16c-0.773,0-1.434,0.322-1.98,0.967S643.689,19.171,643.635,20.265z"/>
<path d="M652.623,23.956l1.723-0.328c0.102,0.879,0.377,1.532,0.83,1.96c0.451,0.428,1.051,0.642,1.801,0.642
	c0.748,0,1.326-0.186,1.734-0.557c0.41-0.371,0.615-0.842,0.615-1.412c0-0.492-0.176-0.875-0.527-1.148
	c-0.242-0.188-0.828-0.422-1.758-0.703c-1.344-0.414-2.242-0.766-2.695-1.055s-0.805-0.676-1.055-1.16s-0.375-1.035-0.375-1.652
	c0-1.063,0.34-1.926,1.02-2.59s1.621-0.996,2.824-0.996c0.758,0,1.424,0.137,1.998,0.41s1.014,0.641,1.318,1.102
	s0.516,1.121,0.633,1.98l-1.688,0.281c-0.156-1.359-0.895-2.039-2.215-2.039c-0.75,0-1.309,0.15-1.676,0.449
	c-0.367,0.3-0.551,0.683-0.551,1.149c0,0.459,0.176,0.821,0.527,1.086c0.211,0.155,0.838,0.404,1.879,0.747
	c1.432,0.455,2.357,0.816,2.777,1.086s0.748,0.638,0.98,1.104c0.234,0.466,0.352,1.02,0.352,1.661c0,1.189-0.377,2.152-1.131,2.888
	c-0.754,0.736-1.783,1.104-3.088,1.104C654.432,27.964,653.014,26.628,652.623,23.956z"/>
<path d="M666.979,25.796l0.234,1.863c-0.477,0.125-0.906,0.188-1.289,0.188c-0.602,0-1.086-0.119-1.453-0.357
	s-0.619-0.564-0.756-0.979s-0.205-1.238-0.205-2.473v-7.16h-1.266v-1.641h1.266v-3.082l1.723-1.266v4.348h1.746v1.641h-1.746v7.277
	c0,0.672,0.051,1.105,0.152,1.301c0.148,0.281,0.426,0.422,0.832,0.422C666.412,25.878,666.666,25.851,666.979,25.796z"/>
<path d="M675.252,26.147c-0.578,0.602-1.18,1.055-1.805,1.359s-1.273,0.457-1.945,0.457c-1.063,0-1.91-0.32-2.543-0.961
	s-0.949-1.504-0.949-2.59c0-0.719,0.148-1.355,0.445-1.91s0.703-0.988,1.219-1.301s1.297-0.543,2.344-0.691
	c1.406-0.207,2.438-0.453,3.094-0.738l0.012-0.539c0-0.852-0.152-1.449-0.457-1.793c-0.43-0.5-1.09-0.75-1.98-0.75
	c-0.805,0-1.406,0.167-1.805,0.5s-0.691,0.96-0.879,1.878l-1.699-0.281c0.242-1.336,0.732-2.309,1.471-2.918s1.795-0.914,3.17-0.914
	c1.07,0,1.91,0.201,2.52,0.604s0.994,0.9,1.154,1.494s0.24,1.461,0.24,2.602v2.813c0,1.969,0.037,3.209,0.111,3.721
	s0.221,1.01,0.439,1.494h-1.805C675.424,27.253,675.307,26.741,675.252,26.147z M675.111,21.437
	c-0.633,0.313-1.574,0.578-2.824,0.797c-0.727,0.125-1.234,0.268-1.523,0.428s-0.514,0.387-0.674,0.68s-0.24,0.631-0.24,1.014
	c0,0.594,0.184,1.068,0.551,1.424s0.875,0.533,1.523,0.533c0.617,0,1.178-0.16,1.682-0.48s0.881-0.748,1.131-1.283
	s0.375-1.314,0.375-2.338V21.437z"/>
<path d="M686.232,27.683v-1.828c-0.398,0.703-0.867,1.23-1.406,1.582s-1.148,0.527-1.828,0.527c-0.805,0-1.492-0.217-2.063-0.65
	s-0.951-0.982-1.143-1.646s-0.287-1.57-0.287-2.719v-7.711h1.723v6.902c0,1.281,0.064,2.139,0.193,2.572s0.367,0.781,0.715,1.043
	s0.744,0.393,1.189,0.393c0.828,0,1.508-0.34,2.039-1.02c0.453-0.586,0.68-1.66,0.68-3.223v-6.668h1.734v12.445H686.232z"/>
<path d="M690.498,27.683V15.237h1.559v1.887c0.398-0.875,0.764-1.455,1.096-1.74s0.705-0.428,1.119-0.428
	c0.578,0,1.168,0.227,1.77,0.68l-0.586,1.957c-0.43-0.305-0.848-0.457-1.254-0.457c-0.367,0-0.703,0.129-1.008,0.387
	s-0.52,0.617-0.645,1.078c-0.219,0.805-0.328,1.66-0.328,2.566v6.516H690.498z"/>
<path d="M703.693,26.147c-0.578,0.602-1.18,1.055-1.805,1.359s-1.273,0.457-1.945,0.457c-1.063,0-1.91-0.32-2.543-0.961
	s-0.949-1.504-0.949-2.59c0-0.719,0.148-1.355,0.445-1.91s0.703-0.988,1.219-1.301s1.297-0.543,2.344-0.691
	c1.406-0.207,2.438-0.453,3.094-0.738l0.012-0.539c0-0.852-0.152-1.449-0.457-1.793c-0.43-0.5-1.09-0.75-1.98-0.75
	c-0.805,0-1.406,0.167-1.805,0.5s-0.691,0.96-0.879,1.878l-1.699-0.281c0.242-1.336,0.732-2.309,1.471-2.918s1.795-0.914,3.17-0.914
	c1.07,0,1.91,0.201,2.52,0.604s0.994,0.9,1.154,1.494s0.24,1.461,0.24,2.602v2.813c0,1.969,0.037,3.209,0.111,3.721
	s0.221,1.01,0.439,1.494h-1.805C703.865,27.253,703.748,26.741,703.693,26.147z M703.553,21.437
	c-0.633,0.313-1.574,0.578-2.824,0.797c-0.727,0.125-1.234,0.268-1.523,0.428s-0.514,0.387-0.674,0.68s-0.24,0.631-0.24,1.014
	c0,0.594,0.184,1.068,0.551,1.424s0.875,0.533,1.523,0.533c0.617,0,1.178-0.16,1.682-0.48s0.881-0.748,1.131-1.283
	s0.375-1.314,0.375-2.338V21.437z"/>
<path d="M707.994,27.683V15.237h1.559v1.758c0.373-0.684,0.832-1.194,1.375-1.532c0.541-0.338,1.162-0.507,1.865-0.507
	c0.545,0,1.051,0.107,1.514,0.322c0.465,0.215,0.84,0.496,1.123,0.844c0.285,0.348,0.498,0.799,0.639,1.354s0.211,1.406,0.211,2.555
	v7.652h-1.723v-7.578c0-0.916-0.078-1.584-0.234-2.006s-0.4-0.749-0.732-0.979c-0.332-0.231-0.717-0.346-1.154-0.346
	c-0.828,0-1.488,0.309-1.98,0.927c-0.492,0.618-0.738,1.678-0.738,3.179v6.804H707.994z"/>
<path d="M722.783,25.796l0.234,1.863c-0.477,0.125-0.906,0.188-1.289,0.188c-0.602,0-1.086-0.119-1.453-0.357
	s-0.619-0.564-0.756-0.979s-0.205-1.238-0.205-2.473v-7.16h-1.266v-1.641h1.266v-3.082l1.723-1.266v4.348h1.746v1.641h-1.746v7.277
	c0,0.672,0.051,1.105,0.152,1.301c0.148,0.281,0.426,0.422,0.832,0.422C722.217,25.878,722.471,25.851,722.783,25.796z"/>
<path d="M643.875,47.564l1.723-0.328c0.102,0.879,0.377,1.532,0.83,1.96c0.451,0.428,1.051,0.642,1.801,0.642
	c0.748,0,1.326-0.186,1.734-0.557c0.41-0.371,0.615-0.842,0.615-1.412c0-0.492-0.176-0.875-0.527-1.148
	c-0.242-0.188-0.828-0.422-1.758-0.703c-1.344-0.414-2.242-0.766-2.695-1.055s-0.805-0.676-1.055-1.16s-0.375-1.035-0.375-1.652
	c0-1.063,0.34-1.926,1.02-2.59s1.621-0.996,2.824-0.996c0.758,0,1.424,0.137,1.998,0.41s1.014,0.641,1.318,1.102
	s0.516,1.121,0.633,1.98l-1.688,0.281c-0.156-1.359-0.895-2.039-2.215-2.039c-0.75,0-1.309,0.15-1.676,0.449
	c-0.367,0.3-0.551,0.683-0.551,1.149c0,0.459,0.176,0.821,0.527,1.086c0.211,0.155,0.838,0.404,1.879,0.747
	c1.432,0.455,2.357,0.816,2.777,1.086s0.748,0.638,0.98,1.104c0.234,0.466,0.352,1.02,0.352,1.661c0,1.189-0.377,2.152-1.131,2.888
	c-0.754,0.736-1.783,1.104-3.088,1.104C645.684,51.572,644.266,50.236,643.875,47.564z"/>
<path d="M661.359,47.283l1.781,0.27c-0.297,1.328-0.834,2.33-1.611,3.006s-1.74,1.014-2.889,1.014c-1.445,0-2.615-0.549-3.51-1.646
	s-1.342-2.682-1.342-4.752c0-2.148,0.451-3.787,1.354-4.916s2.045-1.693,3.428-1.693c1.32,0,2.422,0.555,3.305,1.664
	s1.324,2.715,1.324,4.816l-0.012,0.563h-7.617c0.07,1.398,0.395,2.453,0.973,3.164s1.281,1.066,2.109,1.066
	C659.949,49.838,660.852,48.986,661.359,47.283z M655.676,43.873h5.695c-0.078-1.078-0.309-1.883-0.691-2.414
	c-0.555-0.773-1.262-1.16-2.121-1.16c-0.773,0-1.434,0.322-1.98,0.967S655.73,42.779,655.676,43.873z"/>
<path d="M671.977,49.756c-0.578,0.602-1.18,1.055-1.805,1.359s-1.273,0.457-1.945,0.457c-1.063,0-1.91-0.32-2.543-0.961
	s-0.949-1.504-0.949-2.59c0-0.719,0.148-1.355,0.445-1.91s0.703-0.988,1.219-1.301s1.297-0.543,2.344-0.691
	c1.406-0.207,2.438-0.453,3.094-0.738l0.012-0.539c0-0.852-0.152-1.449-0.457-1.793c-0.43-0.5-1.09-0.75-1.98-0.75
	c-0.805,0-1.406,0.167-1.805,0.5s-0.691,0.96-0.879,1.878l-1.699-0.281c0.242-1.336,0.732-2.309,1.471-2.918s1.795-0.914,3.17-0.914
	c1.07,0,1.91,0.201,2.52,0.604s0.994,0.9,1.154,1.494s0.24,1.461,0.24,2.602v2.813c0,1.969,0.037,3.209,0.111,3.721
	s0.221,1.01,0.439,1.494h-1.805C672.148,50.861,672.031,50.35,671.977,49.756z M671.836,45.045
	c-0.633,0.313-1.574,0.578-2.824,0.797c-0.727,0.125-1.234,0.268-1.523,0.428s-0.514,0.387-0.674,0.68s-0.24,0.631-0.24,1.014
	c0,0.594,0.184,1.068,0.551,1.424s0.875,0.533,1.523,0.533c0.617,0,1.178-0.16,1.682-0.48s0.881-0.748,1.131-1.283
	s0.375-1.314,0.375-2.338V45.045z"/>
<path d="M680.121,49.404l0.234,1.863c-0.477,0.125-0.906,0.188-1.289,0.188c-0.602,0-1.086-0.119-1.453-0.357
	s-0.619-0.564-0.756-0.979s-0.205-1.238-0.205-2.473v-7.16h-1.266v-1.641h1.266v-3.082l1.723-1.266v4.348h1.746v1.641h-1.746v7.277
	c0,0.672,0.051,1.105,0.152,1.301c0.148,0.281,0.426,0.422,0.832,0.422C679.555,49.486,679.809,49.459,680.121,49.404z"/>
<path d="M681.75,36.537v-2.426h1.723v2.426H681.75z M681.75,51.291V38.846h1.723v12.445H681.75z"/>
<path d="M686.121,51.291V38.846h1.559v1.758c0.373-0.684,0.832-1.194,1.375-1.532c0.541-0.338,1.162-0.507,1.865-0.507
	c0.545,0,1.051,0.107,1.514,0.322c0.465,0.215,0.84,0.496,1.123,0.844c0.285,0.348,0.498,0.799,0.639,1.354s0.211,1.406,0.211,2.555
	v7.652h-1.723v-7.578c0-0.916-0.078-1.584-0.234-2.006s-0.4-0.749-0.732-0.979c-0.332-0.231-0.717-0.346-1.154-0.346
	c-0.828,0-1.488,0.309-1.98,0.927c-0.492,0.618-0.738,1.678-0.738,3.179v6.804H686.121z"/>
<path d="M696.727,52.322l1.688,0.305c0.078,0.668,0.313,1.165,0.703,1.491s0.934,0.489,1.629,0.489c0.758,0,1.361-0.182,1.811-0.545
	s0.756-0.904,0.92-1.624c0.102-0.438,0.152-1.359,0.152-2.766c-0.375,0.536-0.797,0.939-1.266,1.211s-0.988,0.407-1.559,0.407
	c-1.219,0-2.23-0.516-3.035-1.547c-0.922-1.188-1.383-2.777-1.383-4.77c0-1.336,0.203-2.504,0.609-3.504s0.939-1.734,1.6-2.203
	s1.4-0.703,2.221-0.703c0.602,0,1.15,0.147,1.646,0.442s0.936,0.737,1.318,1.327v-1.488h1.594v10.758
	c0,1.914-0.156,3.279-0.469,4.096s-0.824,1.461-1.535,1.934s-1.566,0.709-2.566,0.709c-1.32,0-2.336-0.355-3.047-1.066
	S696.703,53.58,696.727,52.322z M698.156,44.846c0,1.637,0.27,2.832,0.811,3.583c0.539,0.752,1.201,1.128,1.984,1.128
	s1.447-0.368,1.996-1.104c0.547-0.736,0.822-1.907,0.822-3.513c0-1.566-0.283-2.731-0.846-3.495
	c-0.564-0.764-1.248-1.146-2.055-1.146c-0.721,0-1.354,0.382-1.896,1.146C698.428,42.208,698.156,43.342,698.156,44.846z"/>
</svg>
