<?xml version="1.0" encoding="utf-8"?>
<!-- Generator: Adobe Illustrator 14.0.0, SVG Export Plug-In  -->
<!DOCTYPE svg PUBLIC "-//W3C//DTD SVG 1.1//EN" "http://www.w3.org/Graphics/SVG/1.1/DTD/svg11.dtd" [
	<!ENTITY ns_flows "http://ns.adobe.com/Flows/1.0/">
]>
<svg version="1.1"
	 xmlns="http://www.w3.org/2000/svg" xmlns:xlink="http://www.w3.org/1999/xlink" xmlns:a="http://ns.adobe.com/AdobeSVGViewerExtensions/3.0/"
	 x="0px" y="0px" width="150px" height="150px" viewBox="150 300 150 150" enable-background="new 150 300 150 150"
	 xml:space="preserve">
<defs>
</defs>
<path fill="none" stroke="#000000" d="M188.112,348.598c0,2.449-1.986,4.436-4.436,4.436s-4.438-1.986-4.438-4.436
	c0-2.455,1.989-4.441,4.438-4.441S188.112,346.143,188.112,348.598z"/>
<path fill="none" stroke="#000000" d="M180.967,425.155c0,4.008-3.249,7.258-7.256,7.258s-7.256-3.25-7.256-7.258
	c0-4.005,3.249-7.255,7.256-7.255S180.967,421.15,180.967,425.155z"/>
<path fill="none" stroke="#000000" d="M175.114,414.362c5.349,0.688,9.481,5.261,9.481,10.792"/>
<path fill="none" stroke="#000000" d="M262.221,425.155c0,4.008-3.249,7.258-7.256,7.258s-7.256-3.25-7.256-7.258
	c0-4.005,3.249-7.255,7.256-7.255S262.221,421.15,262.221,425.155z"/>
<line fill="none" stroke="#000000" stroke-width="3" stroke-linecap="round" x1="183.675" y1="348.595" x2="173.711" y2="425.157"/>
<line fill="none" stroke="#000000" stroke-width="5" stroke-linecap="round" x1="185.036" y1="425.155" x2="254.965" y2="425.155"/>
<line display="none" fill="none" stroke="#000000" x1="150.077" y1="0" x2="150.077" y2="750"/>
<line display="none" fill="none" stroke="#000000" x1="300.058" y1="0" x2="300.058" y2="750"/>
<line display="none" fill="none" stroke="#000000" x1="0" y1="300" x2="750" y2="300"/>
<line display="none" fill="none" stroke="#000000" x1="0" y1="450" x2="750" y2="450"/>
<path d="M223.209,321.653l1.758-0.188c0.094,0.945,0.307,1.682,0.639,2.209s0.807,0.951,1.424,1.271s1.313,0.48,2.086,0.48
	c1.109,0,1.971-0.271,2.584-0.813c0.613-0.543,0.92-1.246,0.92-2.111c0-0.507-0.111-0.949-0.334-1.327s-0.559-0.688-1.008-0.93
	c-0.449-0.242-1.42-0.583-2.912-1.025c-1.328-0.394-2.273-0.79-2.836-1.188s-1-0.904-1.313-1.518s-0.469-1.307-0.469-2.08
	c0-1.391,0.449-2.527,1.348-3.41s2.109-1.324,3.633-1.324c1.047,0,1.963,0.207,2.748,0.621s1.395,1.008,1.828,1.781
	s0.666,1.684,0.697,2.73l-1.793,0.164c-0.094-1.117-0.428-1.945-1.002-2.484s-1.381-0.809-2.42-0.809
	c-1.055,0-1.859,0.236-2.414,0.709s-0.832,1.084-0.832,1.833c0,0.695,0.203,1.234,0.609,1.617s1.32,0.771,2.741,1.163
	c1.39,0.385,2.366,0.718,2.929,1c0.859,0.439,1.507,1.017,1.946,1.73c0.438,0.715,0.658,1.566,0.658,2.559
	c0,0.982-0.23,1.878-0.691,2.686c-0.461,0.809-1.088,1.422-1.881,1.844s-1.748,0.633-2.865,0.633c-1.742,0-3.131-0.523-4.166-1.57
	S223.248,323.442,223.209,321.653z"/>
<path d="M243.4,322.626l1.699,0.27c-0.195,1.484-0.686,2.617-1.471,3.398s-1.729,1.172-2.83,1.172c-1.336,0-2.436-0.549-3.299-1.646
	s-1.295-2.721-1.295-4.869c0-2.164,0.436-3.787,1.307-4.869s1.99-1.623,3.357-1.623c1.055,0,1.943,0.328,2.666,0.984
	s1.186,1.641,1.389,2.953l-1.676,0.305c-0.164-0.84-0.449-1.469-0.855-1.885s-0.895-0.623-1.465-0.623
	c-0.852,0-1.557,0.377-2.115,1.131s-0.838,1.951-0.838,3.592c0,1.695,0.268,2.922,0.803,3.68s1.221,1.137,2.057,1.137
	c0.656,0,1.217-0.252,1.682-0.756S243.275,323.688,243.4,322.626z"/>
<path d="M245.908,320.962c0-2.148,0.451-3.77,1.354-4.863s2.045-1.641,3.428-1.641c1.359,0,2.496,0.547,3.41,1.641
	s1.371,2.672,1.371,4.734c0,2.234-0.449,3.898-1.348,4.992s-2.043,1.641-3.434,1.641c-1.367,0-2.506-0.549-3.416-1.646
	S245.908,323.103,245.908,320.962z M247.678,320.956c0,1.611,0.293,2.81,0.879,3.596s1.313,1.18,2.18,1.18
	c0.813,0,1.51-0.397,2.092-1.191s0.873-1.988,0.873-3.584c0-1.604-0.293-2.799-0.879-3.585s-1.313-1.179-2.18-1.179
	c-0.82,0-1.52,0.395-2.098,1.185S247.678,319.36,247.678,320.956z"/>
<path d="M256.854,320.962c0-2.148,0.451-3.77,1.354-4.863s2.045-1.641,3.428-1.641c1.359,0,2.496,0.547,3.41,1.641
	s1.371,2.672,1.371,4.734c0,2.234-0.449,3.898-1.348,4.992s-2.043,1.641-3.434,1.641c-1.367,0-2.506-0.549-3.416-1.646
	S256.854,323.103,256.854,320.962z M258.623,320.956c0,1.611,0.293,2.81,0.879,3.596s1.313,1.18,2.18,1.18
	c0.813,0,1.51-0.397,2.092-1.191s0.873-1.988,0.873-3.584c0-1.604-0.293-2.799-0.879-3.585s-1.313-1.179-2.18-1.179
	c-0.82,0-1.52,0.395-2.098,1.185S258.623,319.36,258.623,320.956z"/>
<path d="M272.299,325.298l0.234,1.863c-0.477,0.125-0.906,0.188-1.289,0.188c-0.602,0-1.086-0.119-1.453-0.357
	s-0.619-0.564-0.756-0.979s-0.205-1.238-0.205-2.473v-7.16h-1.266v-1.641h1.266v-3.082l1.723-1.266v4.348h1.746v1.641h-1.746v7.277
	c0,0.672,0.051,1.105,0.152,1.301c0.148,0.281,0.426,0.422,0.832,0.422C271.732,325.38,271.986,325.353,272.299,325.298z"/>
<path d="M280.9,323.177l1.781,0.27c-0.297,1.328-0.834,2.33-1.611,3.006s-1.74,1.014-2.889,1.014c-1.445,0-2.615-0.549-3.51-1.646
	s-1.342-2.682-1.342-4.752c0-2.148,0.451-3.787,1.354-4.916s2.045-1.693,3.428-1.693c1.32,0,2.422,0.555,3.305,1.664
	s1.324,2.715,1.324,4.816l-0.012,0.563h-7.617c0.07,1.398,0.395,2.453,0.973,3.164s1.281,1.066,2.109,1.066
	C279.49,325.731,280.393,324.88,280.9,323.177z M275.217,319.767h5.695c-0.078-1.078-0.309-1.883-0.691-2.414
	c-0.555-0.773-1.262-1.16-2.121-1.16c-0.773,0-1.434,0.322-1.98,0.967S275.271,318.673,275.217,319.767z"/>
<path d="M284.873,327.185v-12.445h1.559v1.887c0.398-0.875,0.764-1.455,1.096-1.74s0.705-0.428,1.119-0.428
	c0.578,0,1.168,0.227,1.77,0.68l-0.586,1.957c-0.43-0.305-0.848-0.457-1.254-0.457c-0.367,0-0.703,0.129-1.008,0.387
	s-0.52,0.617-0.645,1.078c-0.219,0.805-0.328,1.66-0.328,2.566v6.516H284.873z"/>
<path d="M220.795,350.792h-1.605v-17.18h1.734v6.129c0.367-0.563,0.783-0.982,1.248-1.26s0.982-0.416,1.553-0.416
	c0.797,0,1.521,0.238,2.174,0.715s1.174,1.199,1.564,2.168s0.586,2.145,0.586,3.527c0,2.109-0.442,3.736-1.326,4.881
	c-0.884,1.145-1.917,1.717-3.099,1.717c-0.595,0-1.128-0.154-1.602-0.463s-0.882-0.768-1.227-1.377V350.792z M220.769,344.476
	c0,1.289,0.118,2.254,0.353,2.895s0.568,1.129,0.999,1.465s0.909,0.504,1.434,0.504c0.712,0,1.345-0.4,1.897-1.201
	c0.552-0.801,0.828-1.998,0.828-3.592c0-1.633-0.267-2.832-0.799-3.598c-0.533-0.766-1.187-1.148-1.962-1.148
	c-0.712,0-1.349,0.4-1.909,1.201S220.769,342.96,220.769,344.476z"/>
<path d="M230.1,350.792v-17.18h1.723v17.18H230.1z"/>
<path d="M233.873,344.569c0-2.148,0.451-3.77,1.354-4.863s2.045-1.641,3.428-1.641c1.359,0,2.496,0.547,3.41,1.641
	s1.371,2.672,1.371,4.734c0,2.234-0.449,3.898-1.348,4.992s-2.043,1.641-3.434,1.641c-1.367,0-2.506-0.549-3.416-1.646
	S233.873,346.71,233.873,344.569z M235.643,344.563c0,1.611,0.293,2.811,0.879,3.597s1.313,1.179,2.18,1.179
	c0.813,0,1.51-0.396,2.092-1.19s0.873-1.989,0.873-3.585c0-1.604-0.293-2.798-0.879-3.584s-1.313-1.18-2.18-1.18
	c-0.82,0-1.52,0.396-2.098,1.186S235.643,342.968,235.643,344.563z"/>
<path d="M252.154,346.233l1.699,0.27c-0.195,1.484-0.686,2.617-1.471,3.398s-1.729,1.172-2.83,1.172
	c-1.336,0-2.436-0.549-3.299-1.646s-1.295-2.721-1.295-4.869c0-2.164,0.436-3.787,1.307-4.869s1.99-1.623,3.357-1.623
	c1.055,0,1.943,0.328,2.666,0.984s1.186,1.641,1.389,2.953l-1.676,0.305c-0.164-0.84-0.449-1.467-0.855-1.883
	s-0.895-0.625-1.465-0.625c-0.852,0-1.557,0.377-2.115,1.131s-0.838,1.951-0.838,3.592c0,1.695,0.268,2.922,0.803,3.68
	s1.221,1.137,2.057,1.137c0.656,0,1.217-0.252,1.682-0.756S252.029,347.296,252.154,346.233z"/>
<path d="M255.354,350.792v-17.18h1.723v9.813l4.106-5.079h2.239l-3.903,4.621l4.291,7.824h-2.122l-3.391-6.378l-1.22,1.444v4.934
	H255.354z"/>
<path d="M265.162,336.038v-2.426h1.723v2.426H265.162z M265.162,350.792v-12.445h1.723v12.445H265.162z"/>
<path d="M269.533,350.792v-12.445h1.559v1.758c0.374-0.683,0.833-1.193,1.375-1.531s1.164-0.508,1.866-0.508
	c0.546,0,1.051,0.107,1.515,0.322c0.464,0.215,0.838,0.496,1.123,0.844s0.497,0.799,0.638,1.354c0.14,0.555,0.21,1.406,0.21,2.555
	v7.652h-1.723v-7.578c0-0.915-0.078-1.584-0.234-2.006s-0.4-0.749-0.732-0.979c-0.332-0.231-0.717-0.347-1.154-0.347
	c-0.828,0-1.488,0.31-1.98,0.928c-0.492,0.617-0.738,1.678-0.738,3.179v6.804H269.533z"/>
<path d="M280.139,351.823l1.688,0.305c0.078,0.668,0.313,1.166,0.703,1.492s0.934,0.488,1.629,0.488
	c0.758,0,1.361-0.182,1.811-0.545s0.756-0.904,0.92-1.623c0.102-0.438,0.152-1.359,0.152-2.766
	c-0.375,0.535-0.797,0.938-1.266,1.211c-0.469,0.271-0.988,0.406-1.559,0.406c-1.219,0-2.23-0.516-3.035-1.547
	c-0.922-1.188-1.383-2.777-1.383-4.77c0-1.336,0.203-2.504,0.609-3.504s0.939-1.734,1.6-2.203s1.4-0.703,2.221-0.703
	c0.602,0,1.15,0.148,1.646,0.443s0.936,0.736,1.318,1.326v-1.488h1.594v10.758c0,1.914-0.156,3.279-0.469,4.096
	s-0.824,1.461-1.535,1.934s-1.566,0.709-2.566,0.709c-1.32,0-2.336-0.355-3.047-1.066S280.115,353.081,280.139,351.823z
	 M281.568,344.347c0,1.637,0.27,2.832,0.81,3.584c0.541,0.752,1.202,1.127,1.985,1.127c0.783,0,1.448-0.367,1.996-1.104
	c0.548-0.736,0.822-1.908,0.822-3.514c0-1.566-0.282-2.73-0.846-3.494s-1.249-1.146-2.055-1.146c-0.721,0-1.353,0.383-1.897,1.146
	C281.84,341.71,281.568,342.843,281.568,344.347z"/>
<path d="M215.287,370.675l1.723-0.328c0.101,0.879,0.378,1.532,0.83,1.96s1.052,0.642,1.8,0.642c0.749,0,1.327-0.186,1.736-0.557
	s0.614-0.842,0.614-1.412c0-0.492-0.176-0.875-0.527-1.148c-0.242-0.188-0.828-0.422-1.758-0.703
	c-1.344-0.414-2.242-0.766-2.695-1.055s-0.805-0.676-1.055-1.16s-0.375-1.035-0.375-1.652c0-1.063,0.34-1.926,1.02-2.59
	s1.621-0.996,2.824-0.996c0.758,0,1.424,0.137,1.998,0.41s1.014,0.641,1.318,1.102s0.516,1.121,0.633,1.98l-1.688,0.281
	c-0.156-1.359-0.895-2.039-2.215-2.039c-0.75,0-1.309,0.15-1.676,0.449c-0.367,0.3-0.551,0.684-0.551,1.149
	c0,0.46,0.176,0.821,0.528,1.086c0.211,0.155,0.837,0.404,1.878,0.747c1.432,0.454,2.357,0.816,2.778,1.086s0.747,0.638,0.981,1.104
	c0.233,0.466,0.35,1.02,0.35,1.661c0,1.189-0.377,2.152-1.131,2.888c-0.754,0.736-1.783,1.104-3.088,1.104
	C217.096,374.683,215.678,373.347,215.287,370.675z"/>
<path d="M225.799,359.647v-2.426h1.723v2.426H225.799z M225.799,374.401v-12.445h1.723v12.445H225.799z"/>
<path d="M236.779,374.401v-1.57c-0.313,0.602-0.715,1.061-1.207,1.377s-1.023,0.475-1.594,0.475c-1.203,0-2.244-0.568-3.123-1.705
	s-1.318-2.736-1.318-4.799c0-1.414,0.195-2.613,0.585-3.598c0.39-0.984,0.911-1.715,1.562-2.191c0.651-0.477,1.375-0.715,2.17-0.715
	c0.569,0,1.098,0.15,1.585,0.451s0.891,0.721,1.211,1.26v-6.164h1.746v17.18H236.779z M231.307,368.19
	c0,1.609,0.279,2.805,0.838,3.586s1.21,1.172,1.953,1.172c0.734,0,1.372-0.375,1.911-1.125s0.809-1.883,0.809-3.398
	c0-1.742-0.27-3.014-0.809-3.814s-1.22-1.201-2.041-1.201c-0.727,0-1.353,0.385-1.876,1.154
	C231.568,365.333,231.307,366.542,231.307,368.19z"/>
<path d="M248.088,370.394l1.781,0.27c-0.297,1.328-0.834,2.33-1.611,3.006s-1.74,1.014-2.889,1.014c-1.445,0-2.615-0.549-3.51-1.646
	s-1.342-2.682-1.342-4.752c0-2.148,0.451-3.787,1.354-4.916s2.045-1.693,3.428-1.693c1.32,0,2.422,0.555,3.305,1.664
	s1.324,2.715,1.324,4.816l-0.012,0.563h-7.617c0.07,1.398,0.395,2.453,0.973,3.164s1.281,1.066,2.109,1.066
	C246.678,372.948,247.58,372.097,248.088,370.394z M242.404,366.983h5.695c-0.078-1.078-0.309-1.883-0.691-2.414
	c-0.555-0.773-1.262-1.16-2.121-1.16c-0.773,0-1.434,0.322-1.98,0.967S242.459,365.89,242.404,366.983z"/>
<path d="M253.942,374.401l-3.135-12.445h1.788l1.625,7.184l0.601,2.672l0.54-2.566l1.619-7.289h1.786l1.518,7.219l0.514,2.379
	l0.584-2.402l1.742-7.195h1.688l-3.186,12.445h-1.8l-1.629-7.453l-0.387-2.121l-2.063,9.574H253.942z"/>
<path d="M272.908,372.866c-0.578,0.602-1.18,1.055-1.805,1.359s-1.273,0.457-1.945,0.457c-1.063,0-1.91-0.32-2.543-0.961
	s-0.949-1.504-0.949-2.59c0-0.719,0.148-1.355,0.445-1.91s0.703-0.988,1.219-1.301s1.297-0.543,2.344-0.691
	c1.406-0.207,2.438-0.453,3.094-0.738l0.012-0.539c0-0.852-0.152-1.449-0.457-1.793c-0.43-0.5-1.09-0.75-1.98-0.75
	c-0.805,0-1.406,0.167-1.805,0.5c-0.398,0.334-0.691,0.961-0.879,1.879l-1.699-0.281c0.242-1.336,0.732-2.309,1.471-2.918
	s1.795-0.914,3.17-0.914c1.07,0,1.91,0.201,2.52,0.604s0.994,0.9,1.154,1.494s0.24,1.461,0.24,2.602v2.813
	c0,1.969,0.037,3.209,0.111,3.721s0.221,1.01,0.439,1.494h-1.805C273.08,373.972,272.963,373.46,272.908,372.866z M272.768,368.155
	c-0.633,0.313-1.574,0.578-2.824,0.797c-0.727,0.125-1.234,0.268-1.523,0.428s-0.514,0.387-0.674,0.68s-0.24,0.631-0.24,1.014
	c0,0.594,0.184,1.068,0.551,1.424s0.875,0.533,1.523,0.533c0.617,0,1.178-0.16,1.682-0.48s0.881-0.748,1.131-1.283
	s0.375-1.314,0.375-2.338V368.155z"/>
<path d="M277.15,374.401v-17.18h1.723v17.18H277.15z"/>
<path d="M281.615,374.401v-17.18h1.723v9.813l4.106-5.078h2.239l-3.903,4.621l4.291,7.824h-2.122l-3.391-6.379l-1.22,1.445v4.934
	H281.615z"/>
</svg>
