<?xml version="1.0" encoding="utf-8"?>
<!-- Generator: Adobe Illustrator 14.0.0, SVG Export Plug-In  -->
<!DOCTYPE svg PUBLIC "-//W3C//DTD SVG 1.1//EN" "http://www.w3.org/Graphics/SVG/1.1/DTD/svg11.dtd" [
	<!ENTITY ns_flows "http://ns.adobe.com/Flows/1.0/">
]>
<svg version="1.1"
	 xmlns="http://www.w3.org/2000/svg" xmlns:xlink="http://www.w3.org/1999/xlink" xmlns:a="http://ns.adobe.com/AdobeSVGViewerExtensions/3.0/"
	 x="0px" y="0px" width="150px" height="150px" viewBox="0.5 150 150 150" enable-background="new 0.5 150 150 150"
	 xml:space="preserve">
<defs>
</defs>
<line fill="none" stroke="#000000" x1="31.274" y1="227.272" x2="31.274" y2="233.229"/>
<ellipse fill="none" stroke="#000000" cx="31.275" cy="236.978" rx="5.775" ry="17.509"/>
<path fill="none" stroke="#000000" d="M31.274,219.467l48.67,0.737c0,0,4.412,3.81,5.149,7.987"/>
<line fill="none" stroke="#000000" x1="81.606" y1="255.249" x2="31.274" y2="254.487"/>
<ellipse fill="none" stroke="#000000" cx="54.007" cy="263.395" rx="3.256" ry="5.837"/>
<path fill="none" stroke="#000000" d="M54.007,257.558l17.939,6.322l27.4-9.886c0,0,3.441,1.229,4.056,4.424
	s-1.229,6.144-1.229,6.144l-30.227,9.694l-17.939-5.271"/>
<line fill="none" stroke="#000000" x1="82.904" y1="259.926" x2="86.813" y2="269.675"/>
<path fill="none" stroke="#000000" d="M103.52,260.018c6.717,0.254,9.832,0.235,12.047-0.984c2.458-1.353,9.216-7.987,9.83-11.551
	s-1.597-11.796-4.178-14.622c-2.58-2.826-15.974-9.952-21.741-0.373"/>
<path fill="none" stroke="#000000" d="M89.886,244.656c0,0,3.317,4.055,7.372,3.194c4.055-0.859,3.933-7.125,3.933-10.873
	s-4.3-8.048-7.372-8.786c-3.072-0.738-7.128-0.493-10.322,1.228s-6.758,5.53-6.758,8.97c0,3.441-1.963,11.674,2.028,15.114
	c1.996,1.721,5.514,3.241,9.576,4.375"/>
<path fill="none" stroke="#000000" d="M109.914,239.987c0,0,0.737,6.021,3.932,8.232c3.195,2.212,9.953,0.122,11.551-0.737"/>
<line display="none" fill="none" stroke="#000000" x1="0.5" y1="0" x2="0.5" y2="750"/>
<line display="none" fill="none" stroke="#000000" x1="150.577" y1="0" x2="150.577" y2="750"/>
<line display="none" fill="none" stroke="#000000" x1="0.5" y1="150" x2="750.5" y2="150"/>
<line display="none" fill="none" stroke="#000000" x1="0.5" y1="300" x2="750.5" y2="300"/>
<path d="M34.508,177.253v-15.152h-4.641v-2.027h11.168v2.027h-4.664v15.152H34.508z"/>
<path d="M41.961,177.253v-12.445h1.559v1.887c0.398-0.875,0.764-1.455,1.096-1.74s0.705-0.428,1.119-0.428
	c0.578,0,1.168,0.227,1.77,0.68l-0.586,1.957c-0.43-0.305-0.848-0.457-1.254-0.457c-0.367,0-0.703,0.129-1.008,0.387
	s-0.52,0.617-0.645,1.078c-0.219,0.805-0.328,1.66-0.328,2.566v6.516H41.961z"/>
<path d="M55.156,175.718c-0.578,0.602-1.18,1.055-1.805,1.359s-1.273,0.457-1.945,0.457c-1.063,0-1.91-0.32-2.543-0.961
	s-0.949-1.504-0.949-2.59c0-0.719,0.148-1.355,0.445-1.91s0.703-0.988,1.219-1.301s1.297-0.543,2.344-0.691
	c1.406-0.207,2.438-0.453,3.094-0.738l0.012-0.539c0-0.852-0.152-1.449-0.457-1.793c-0.43-0.5-1.09-0.75-1.98-0.75
	c-0.805,0-1.406,0.167-1.805,0.5s-0.691,0.96-0.879,1.878l-1.699-0.281c0.242-1.336,0.732-2.309,1.471-2.918s1.795-0.914,3.17-0.914
	c1.07,0,1.91,0.201,2.52,0.604s0.994,0.9,1.154,1.494s0.24,1.461,0.24,2.602v2.813c0,1.969,0.037,3.209,0.111,3.721
	s0.221,1.01,0.439,1.494h-1.805C55.328,176.823,55.211,176.312,55.156,175.718z M55.016,171.007
	c-0.633,0.313-1.574,0.578-2.824,0.797c-0.727,0.125-1.234,0.268-1.523,0.428s-0.514,0.387-0.674,0.68s-0.24,0.631-0.24,1.014
	c0,0.594,0.184,1.068,0.551,1.424s0.875,0.533,1.523,0.533c0.617,0,1.178-0.16,1.682-0.48s0.881-0.748,1.131-1.283
	s0.375-1.314,0.375-2.338V171.007z"/>
<path d="M58.789,173.526l1.723-0.328c0.101,0.879,0.378,1.532,0.83,1.96s1.052,0.642,1.8,0.642c0.749,0,1.327-0.186,1.736-0.557
	s0.614-0.842,0.614-1.412c0-0.492-0.176-0.875-0.527-1.148c-0.242-0.188-0.828-0.422-1.758-0.703
	c-1.344-0.414-2.242-0.766-2.695-1.055s-0.805-0.676-1.055-1.16s-0.375-1.035-0.375-1.652c0-1.063,0.34-1.926,1.02-2.59
	s1.621-0.996,2.824-0.996c0.758,0,1.424,0.137,1.998,0.41s1.014,0.641,1.318,1.102s0.516,1.121,0.633,1.98l-1.688,0.281
	c-0.156-1.359-0.895-2.039-2.215-2.039c-0.75,0-1.309,0.15-1.676,0.449c-0.367,0.3-0.551,0.683-0.551,1.149
	c0,0.459,0.176,0.821,0.528,1.086c0.211,0.155,0.837,0.404,1.878,0.747c1.432,0.455,2.357,0.816,2.778,1.086
	s0.747,0.638,0.981,1.104c0.233,0.466,0.35,1.02,0.35,1.661c0,1.189-0.377,2.152-1.131,2.888c-0.754,0.736-1.783,1.104-3.088,1.104
	C60.598,177.534,59.18,176.198,58.789,173.526z"/>
<path d="M69.301,177.253v-17.18h1.723v6.164c0.406-0.57,0.865-0.998,1.377-1.283s1.076-0.428,1.693-0.428
	c1.086,0,1.943,0.346,2.572,1.037s0.943,1.959,0.943,3.803v7.887h-1.723v-7.887c0-1.078-0.191-1.852-0.574-2.32
	s-0.91-0.703-1.582-0.703c-0.75,0-1.389,0.301-1.916,0.902s-0.791,1.668-0.791,3.199v6.809H69.301z"/>
<path d="M78.959,177.534l4.082-17.754h1.407l-4.094,17.754H78.959z"/>
<path d="M85.66,177.253v-17.18h1.723v17.18H85.66z"/>
<path d="M90.09,162.499v-2.426h1.723v2.426H90.09z M90.09,177.253v-12.445h1.723v12.445H90.09z"/>
<path d="M98.305,175.366l0.234,1.863c-0.477,0.125-0.906,0.188-1.289,0.188c-0.602,0-1.086-0.119-1.453-0.357
	s-0.619-0.564-0.756-0.979s-0.205-1.238-0.205-2.473v-7.16H93.57v-1.641h1.266v-3.082l1.723-1.266v4.348h1.746v1.641h-1.746v7.277
	c0,0.672,0.051,1.105,0.152,1.301c0.148,0.281,0.426,0.422,0.832,0.422C97.738,175.448,97.992,175.421,98.305,175.366z"/>
<path d="M103.777,175.366l0.234,1.863c-0.477,0.125-0.906,0.188-1.289,0.188c-0.602,0-1.086-0.119-1.453-0.357
	s-0.619-0.564-0.756-0.979s-0.205-1.238-0.205-2.473v-7.16h-1.266v-1.641h1.266v-3.082l1.723-1.266v4.348h1.746v1.641h-1.746v7.277
	c0,0.672,0.051,1.105,0.152,1.301c0.148,0.281,0.426,0.422,0.832,0.422C103.211,175.448,103.465,175.421,103.777,175.366z"/>
<path d="M112.379,173.245l1.781,0.27c-0.297,1.328-0.834,2.33-1.611,3.006s-1.74,1.014-2.889,1.014c-1.445,0-2.615-0.549-3.51-1.646
	s-1.342-2.682-1.342-4.752c0-2.148,0.451-3.787,1.354-4.916s2.045-1.693,3.428-1.693c1.32,0,2.422,0.555,3.305,1.664
	s1.324,2.715,1.324,4.816l-0.012,0.563h-7.617c0.07,1.398,0.395,2.453,0.973,3.164s1.281,1.066,2.109,1.066
	C110.969,175.8,111.871,174.948,112.379,173.245z M106.695,169.835h5.695c-0.078-1.078-0.309-1.883-0.691-2.414
	c-0.555-0.773-1.262-1.16-2.121-1.16c-0.773,0-1.434,0.322-1.98,0.967S106.75,168.741,106.695,169.835z"/>
<path d="M116.352,177.253v-12.445h1.559v1.887c0.398-0.875,0.764-1.455,1.096-1.74s0.705-0.428,1.119-0.428
	c0.578,0,1.168,0.227,1.77,0.68l-0.586,1.957c-0.43-0.305-0.848-0.457-1.254-0.457c-0.367,0-0.703,0.129-1.008,0.387
	s-0.52,0.617-0.645,1.078c-0.219,0.805-0.328,1.66-0.328,2.566v6.516H116.352z"/>
</svg>
