<?xml version="1.0" encoding="utf-8"?>
<!-- Generator: Adobe Illustrator 14.0.0, SVG Export Plug-In  -->
<!DOCTYPE svg PUBLIC "-//W3C//DTD SVG 1.1//EN" "http://www.w3.org/Graphics/SVG/1.1/DTD/svg11.dtd" [
	<!ENTITY ns_flows "http://ns.adobe.com/Flows/1.0/">
]>
<svg version="1.1"
	 xmlns="http://www.w3.org/2000/svg" xmlns:xlink="http://www.w3.org/1999/xlink" xmlns:a="http://ns.adobe.com/AdobeSVGViewerExtensions/3.0/"
	 x="0px" y="0px" width="150px" height="150px" viewBox="600 600 150 150" enable-background="new 600 600 150 150"
	 xml:space="preserve">
<defs>
</defs>
<path fill="none" stroke="#636466" stroke-width="7" stroke-linecap="round" d="M679.459,729.664c0,0-9.049-9.899-9.049-10.583
	s7.17-13.486,7.17-13.486s11.096,7.853,12.461,8.535s11.609,1.366,11.609,1.366"/>
<path fill="none" stroke="#636466" stroke-width="9" stroke-linecap="round" d="M663.918,688.218c0,0,8.867,14.797,13.662,18.165"/>
<path fill="none" stroke="#636466" stroke-width="5" stroke-linecap="round" d="M654.736,705.206c0,0,8.184-4.399,9.182-5.797
	s0.709-10.031,0.709-10.031"/>
<path fill="none" stroke="#636466" stroke-width="5" stroke-linecap="round" d="M648.35,700.606c0,0,10.729-3.991,11.352-4.989
	s4.217-8.188,4.217-8.188"/>
<circle fill="#636466" cx="657.707" cy="677.796" r="6.959"/>
<path fill="none" stroke="#636466" d="M672.896,684.43c0,0,2.195-4.457,6.785-6.717s10.379-2.917,10.379-2.917"/>
<path fill="none" stroke="#636466" d="M681.684,683.755c0,0,3.594-3.379,8.582-4.042c4.99-0.663,8.982,0,8.982,0"/>
<path fill="#636466" d="M669.383,734.036h5.215c0,0-0.971-3.881-2.607-3.881C670.352,730.155,669.383,734.036,669.383,734.036z"/>
<line display="none" fill="none" stroke="#000000" x1="750" y1="0" x2="750" y2="750"/>
<line display="none" fill="none" stroke="#000000" x1="600.02" y1="0" x2="600.02" y2="750"/>
<line display="none" fill="none" stroke="#000000" x1="0" y1="750" x2="750" y2="750"/>
<line display="none" fill="none" stroke="#000000" x1="0" y1="600" x2="750" y2="600"/>
<path d="M644.939,627.185v-15.152h-4.641v-2.027h11.168v2.027h-4.664v15.152H644.939z"/>
<path d="M652.393,627.185v-12.445h1.559v1.887c0.398-0.875,0.764-1.455,1.096-1.74s0.705-0.428,1.119-0.428
	c0.578,0,1.168,0.227,1.77,0.68l-0.586,1.957c-0.43-0.305-0.848-0.457-1.254-0.457c-0.367,0-0.703,0.129-1.008,0.387
	s-0.52,0.617-0.645,1.078c-0.219,0.805-0.328,1.66-0.328,2.566v6.516H652.393z"/>
<path d="M658.943,612.431v-2.426h1.723v2.426H658.943z M658.943,627.185v-12.445h1.723v12.445H658.943z"/>
<path d="M663.314,631.954v-17.215h1.594v1.617c0.391-0.672,0.824-1.156,1.299-1.453c0.477-0.297,1.021-0.445,1.639-0.445
	c0.803,0,1.529,0.238,2.176,0.715s1.168,1.201,1.563,2.174c0.393,0.973,0.59,2.143,0.59,3.51c0,2.117-0.443,3.748-1.33,4.893
	s-1.928,1.717-3.123,1.717c-0.531,0-1.027-0.137-1.488-0.41s-0.859-0.66-1.195-1.16v6.059H663.314z M664.887,621.032
	c0,1.609,0.27,2.795,0.807,3.557c0.539,0.762,1.189,1.143,1.953,1.143c0.732,0,1.375-0.395,1.928-1.184
	c0.555-0.789,0.83-2.008,0.83-3.656c0-1.625-0.268-2.828-0.807-3.609c-0.537-0.781-1.191-1.172-1.963-1.172
	c-0.693,0-1.326,0.42-1.895,1.26S664.887,619.431,664.887,621.032z"/>
<path d="M674.26,631.954v-17.215h1.594v1.617c0.391-0.672,0.824-1.156,1.299-1.453c0.477-0.297,1.021-0.445,1.639-0.445
	c0.803,0,1.529,0.238,2.176,0.715s1.168,1.201,1.563,2.174c0.393,0.973,0.59,2.143,0.59,3.51c0,2.117-0.443,3.748-1.33,4.893
	s-1.928,1.717-3.123,1.717c-0.531,0-1.027-0.137-1.488-0.41s-0.859-0.66-1.195-1.16v6.059H674.26z M675.832,621.032
	c0,1.609,0.27,2.795,0.807,3.557c0.539,0.762,1.189,1.143,1.953,1.143c0.732,0,1.375-0.395,1.928-1.184
	c0.555-0.789,0.83-2.008,0.83-3.656c0-1.625-0.268-2.828-0.807-3.609c-0.537-0.781-1.191-1.172-1.963-1.172
	c-0.693,0-1.326,0.42-1.895,1.26S675.832,619.431,675.832,621.032z"/>
<path d="M685.205,612.431v-2.426h1.723v2.426H685.205z M685.205,627.185v-12.445h1.723v12.445H685.205z"/>
<path d="M689.576,627.185v-12.445h1.559v1.758c0.375-0.684,0.834-1.194,1.375-1.532c0.543-0.338,1.164-0.507,1.865-0.507
	c0.547,0,1.051,0.107,1.516,0.322s0.838,0.496,1.123,0.844s0.498,0.799,0.637,1.354c0.141,0.555,0.211,1.406,0.211,2.555v7.652
	h-1.723v-7.578c0-0.915-0.078-1.584-0.234-2.007c-0.156-0.422-0.4-0.748-0.732-0.979c-0.332-0.23-0.717-0.346-1.154-0.346
	c-0.828,0-1.488,0.31-1.98,0.927c-0.492,0.618-0.738,1.678-0.738,3.18v6.804H689.576z"/>
<path d="M700.182,628.216l1.688,0.305c0.078,0.668,0.313,1.165,0.703,1.491s0.934,0.489,1.629,0.489
	c0.758,0,1.361-0.182,1.811-0.545s0.756-0.904,0.92-1.623c0.102-0.438,0.152-1.359,0.152-2.767
	c-0.375,0.535-0.797,0.939-1.266,1.211s-0.988,0.407-1.559,0.407c-1.219,0-2.23-0.516-3.035-1.547
	c-0.922-1.188-1.383-2.777-1.383-4.77c0-1.336,0.203-2.504,0.609-3.504s0.939-1.734,1.6-2.203s1.4-0.703,2.221-0.703
	c0.602,0,1.15,0.147,1.646,0.442s0.936,0.737,1.318,1.327v-1.488h1.594v10.758c0,1.914-0.156,3.279-0.469,4.096
	s-0.824,1.461-1.535,1.934s-1.566,0.709-2.566,0.709c-1.32,0-2.336-0.355-3.047-1.066S700.158,629.474,700.182,628.216z
	 M701.611,620.739c0,1.637,0.271,2.831,0.811,3.583c0.541,0.752,1.201,1.128,1.984,1.128s1.449-0.368,1.996-1.104
	c0.549-0.736,0.822-1.907,0.822-3.513c0-1.566-0.281-2.731-0.846-3.495c-0.563-0.764-1.248-1.146-2.055-1.146
	c-0.721,0-1.352,0.382-1.896,1.146S701.611,619.235,701.611,620.739z"/>
<path d="M646.188,650.793v-17.18h1.723v6.164c0.406-0.57,0.865-0.998,1.377-1.283s1.076-0.428,1.693-0.428
	c1.086,0,1.943,0.346,2.572,1.037s0.943,1.959,0.943,3.803v7.887h-1.723v-7.887c0-1.078-0.191-1.852-0.574-2.32
	s-0.91-0.703-1.582-0.703c-0.75,0-1.389,0.301-1.916,0.902s-0.791,1.668-0.791,3.199v6.809H646.188z"/>
<path d="M663.777,649.258c-0.578,0.602-1.18,1.055-1.805,1.359s-1.273,0.457-1.945,0.457c-1.063,0-1.91-0.32-2.543-0.961
	s-0.949-1.504-0.949-2.59c0-0.719,0.148-1.355,0.445-1.91s0.703-0.988,1.219-1.301s1.297-0.543,2.344-0.691
	c1.406-0.206,2.438-0.452,3.094-0.738l0.012-0.539c0-0.852-0.152-1.449-0.457-1.793c-0.43-0.5-1.09-0.75-1.98-0.75
	c-0.805,0-1.406,0.167-1.805,0.501c-0.398,0.333-0.691,0.96-0.879,1.878l-1.699-0.281c0.242-1.336,0.732-2.309,1.471-2.918
	s1.795-0.914,3.17-0.914c1.07,0,1.91,0.201,2.52,0.604s0.994,0.9,1.154,1.494s0.24,1.461,0.24,2.602v2.813
	c0,1.969,0.037,3.209,0.111,3.721s0.221,1.01,0.439,1.494h-1.805C663.949,650.363,663.832,649.852,663.777,649.258z
	 M663.637,644.547c-0.633,0.313-1.574,0.578-2.824,0.797c-0.727,0.125-1.234,0.268-1.523,0.428s-0.514,0.387-0.674,0.68
	s-0.24,0.631-0.24,1.014c0,0.594,0.184,1.068,0.551,1.424s0.875,0.533,1.523,0.533c0.617,0,1.178-0.16,1.682-0.48
	s0.881-0.748,1.131-1.283s0.375-1.314,0.375-2.338V644.547z"/>
<path d="M667.188,650.793v-1.711l6.51-9.094c-0.744,0.047-1.396,0.07-1.959,0.07h-4.164v-1.711h8.355v1.395l-5.543,7.898
	l-1.068,1.441c0.773-0.07,1.5-0.105,2.182-0.105h4.723v1.816H667.188z"/>
<path d="M684.566,649.258c-0.578,0.602-1.18,1.055-1.805,1.359s-1.273,0.457-1.945,0.457c-1.063,0-1.91-0.32-2.543-0.961
	s-0.949-1.504-0.949-2.59c0-0.719,0.148-1.355,0.445-1.91s0.703-0.988,1.219-1.301s1.297-0.543,2.344-0.691
	c1.406-0.206,2.438-0.452,3.094-0.738l0.012-0.539c0-0.852-0.152-1.449-0.457-1.793c-0.43-0.5-1.09-0.75-1.98-0.75
	c-0.805,0-1.406,0.167-1.805,0.501c-0.398,0.333-0.691,0.96-0.879,1.878l-1.699-0.281c0.242-1.336,0.732-2.309,1.471-2.918
	s1.795-0.914,3.17-0.914c1.07,0,1.91,0.201,2.52,0.604s0.994,0.9,1.154,1.494s0.24,1.461,0.24,2.602v2.813
	c0,1.969,0.037,3.209,0.111,3.721s0.221,1.01,0.439,1.494h-1.805C684.738,650.363,684.621,649.852,684.566,649.258z
	 M684.426,644.547c-0.633,0.313-1.574,0.578-2.824,0.797c-0.727,0.125-1.234,0.268-1.523,0.428s-0.514,0.387-0.674,0.68
	s-0.24,0.631-0.24,1.014c0,0.594,0.184,1.068,0.551,1.424s0.875,0.533,1.523,0.533c0.617,0,1.178-0.16,1.682-0.48
	s0.881-0.748,1.131-1.283s0.375-1.314,0.375-2.338V644.547z"/>
<path d="M688.867,650.793v-12.445h1.559v1.887c0.398-0.875,0.764-1.455,1.096-1.74s0.705-0.428,1.119-0.428
	c0.578,0,1.168,0.227,1.77,0.68l-0.586,1.957c-0.43-0.305-0.848-0.457-1.254-0.457c-0.367,0-0.703,0.129-1.008,0.387
	s-0.52,0.617-0.645,1.078c-0.219,0.805-0.328,1.66-0.328,2.566v6.516H688.867z"/>
<path d="M702.027,650.793v-1.57c-0.313,0.602-0.715,1.061-1.207,1.377s-1.023,0.475-1.594,0.475c-1.203,0-2.244-0.568-3.123-1.705
	s-1.318-2.736-1.318-4.799c0-1.414,0.195-2.613,0.586-3.598c0.389-0.984,0.91-1.715,1.561-2.191
	c0.652-0.477,1.375-0.715,2.172-0.715c0.568,0,1.098,0.15,1.584,0.451c0.488,0.301,0.891,0.721,1.211,1.26v-6.164h1.746v17.18
	H702.027z M696.555,644.582c0,1.609,0.279,2.805,0.84,3.586c0.559,0.781,1.209,1.172,1.951,1.172c0.734,0,1.373-0.375,1.912-1.125
	s0.809-1.883,0.809-3.398c0-1.742-0.27-3.014-0.809-3.814s-1.221-1.201-2.041-1.201c-0.727,0-1.352,0.385-1.877,1.154
	C696.816,641.725,696.555,642.934,696.555,644.582z"/>
</svg>
