<?xml version="1.0" encoding="utf-8"?>
<!-- Generator: Adobe Illustrator 14.0.0, SVG Export Plug-In  -->
<!DOCTYPE svg PUBLIC "-//W3C//DTD SVG 1.1//EN" "http://www.w3.org/Graphics/SVG/1.1/DTD/svg11.dtd" [
	<!ENTITY ns_flows "http://ns.adobe.com/Flows/1.0/">
]>
<svg version="1.1"
	 xmlns="http://www.w3.org/2000/svg" xmlns:xlink="http://www.w3.org/1999/xlink" xmlns:a="http://ns.adobe.com/AdobeSVGViewerExtensions/3.0/"
	 x="0px" y="0px" width="150px" height="150px" viewBox="450 450 150 150" enable-background="new 450 450 150 150"
	 xml:space="preserve">
<defs>
</defs>
<path fill="#636466" d="M527.666,549.57c0,0,19.459-0.008,25.535,0.973s30.465,7.968,28.365,13.49s-16.211,7.679-22.484,8.07
	c-6.271,0.392-19.404,0-19.404,0s-11.729,5.096-28.699,4.508c-16.969-0.588-25.201-5.488-25.201-5.488s-2.744-2.547-8.035-2.939
	c-5.293-0.393-9.016-4.316-9.408-7.07s3.332-10.752,24.107-11.543s24.012,0,24.012,0"/>
<path fill="#FFFFFF" stroke="#000000" d="M542.221,502.555c0,0-0.24,1.63-0.047,4.722s1.389,7.957,0.047,11.509
	c-1.492,3.951-5.648,6.816-11.207,3.865c-4.93-2.616-4.664-7.667-2.039-10.975c3.143-3.96,7.004-5.097,9.428-6.348
	C540.729,504.129,542.221,502.555,542.221,502.555z"/>
<path fill="#FFFFFF" stroke="#000000" d="M508.941,512.702c0,0-0.24,1.63-0.047,4.722s1.389,7.957,0.047,11.509
	c-1.492,3.951-5.648,6.816-11.207,3.865c-4.93-2.616-4.664-7.667-2.039-10.975c3.143-3.96,7.004-5.097,9.428-6.348
	C507.449,514.276,508.941,512.702,508.941,512.702z"/>
<path fill="#FFFFFF" stroke="#000000" d="M527.494,542.722c0,0-0.24,1.63-0.047,4.722s1.389,7.957,0.047,11.509
	c-1.492,3.951-5.648,6.816-11.207,3.865c-4.93-2.616-4.664-7.667-2.039-10.975c3.143-3.96,7.004-5.097,9.428-6.348
	C526.002,544.296,527.494,542.722,527.494,542.722z"/>
<line display="none" fill="none" stroke="#000000" x1="450.097" y1="0" x2="450.097" y2="750"/>
<line display="none" fill="none" stroke="#000000" x1="600.02" y1="0" x2="600.02" y2="750"/>
<line display="none" fill="none" stroke="#000000" x1="0" y1="450" x2="750" y2="450"/>
<line display="none" fill="none" stroke="#000000" x1="0" y1="600" x2="750" y2="600"/>
<path d="M503.142,477.184l-3.752-17.18h1.906l2.147,11.262c0.227,1.156,0.427,2.328,0.599,3.516l0.632-3.176l2.681-11.602h2.264
	l2.01,8.695c0.49,2.117,0.856,4.145,1.098,6.082c0.18-1.117,0.411-2.363,0.692-3.738l2.218-11.039h1.875l-3.873,17.18h-1.791
	l-2.977-13.09l-0.445-2.016c-0.133,0.75-0.27,1.422-0.41,2.016l-2.988,13.09H503.142z"/>
<path d="M524.896,475.648c-0.578,0.602-1.18,1.055-1.805,1.359s-1.273,0.457-1.945,0.457c-1.063,0-1.91-0.32-2.543-0.961
	s-0.949-1.504-0.949-2.59c0-0.719,0.148-1.355,0.445-1.91s0.703-0.988,1.219-1.301s1.297-0.543,2.344-0.691
	c1.406-0.206,2.438-0.452,3.094-0.738l0.012-0.539c0-0.852-0.152-1.449-0.457-1.793c-0.43-0.5-1.09-0.75-1.98-0.75
	c-0.805,0-1.406,0.167-1.805,0.501c-0.398,0.333-0.691,0.959-0.879,1.878l-1.699-0.281c0.242-1.336,0.732-2.309,1.471-2.918
	s1.795-0.914,3.17-0.914c1.07,0,1.91,0.201,2.52,0.604s0.994,0.9,1.154,1.494s0.24,1.461,0.24,2.602v2.813
	c0,1.969,0.037,3.209,0.111,3.721s0.221,1.01,0.439,1.494h-1.805C525.067,476.754,524.95,476.242,524.896,475.648z M524.755,470.938
	c-0.633,0.313-1.574,0.578-2.824,0.797c-0.727,0.125-1.234,0.268-1.523,0.428s-0.514,0.387-0.674,0.68s-0.24,0.631-0.24,1.014
	c0,0.594,0.184,1.068,0.551,1.424s0.875,0.533,1.523,0.533c0.617,0,1.178-0.16,1.682-0.48s0.881-0.748,1.131-1.283
	s0.375-1.314,0.375-2.338V470.938z"/>
<path d="M533.04,475.297l0.234,1.863c-0.477,0.125-0.906,0.188-1.289,0.188c-0.602,0-1.086-0.119-1.453-0.357
	s-0.619-0.564-0.756-0.979s-0.205-1.238-0.205-2.473v-7.16h-1.266v-1.641h1.266v-3.082l1.723-1.266v4.348h1.746v1.641h-1.746v7.277
	c0,0.672,0.051,1.105,0.152,1.301c0.148,0.281,0.426,0.422,0.832,0.422C532.474,475.379,532.728,475.352,533.04,475.297z"/>
<path d="M541.642,473.176l1.781,0.27c-0.297,1.328-0.834,2.33-1.611,3.006s-1.74,1.014-2.889,1.014c-1.445,0-2.615-0.549-3.51-1.646
	s-1.342-2.682-1.342-4.752c0-2.148,0.451-3.787,1.354-4.916s2.045-1.693,3.428-1.693c1.32,0,2.422,0.555,3.305,1.664
	s1.324,2.715,1.324,4.816l-0.012,0.563h-7.617c0.07,1.398,0.395,2.453,0.973,3.164s1.281,1.066,2.109,1.066
	C540.231,475.73,541.134,474.879,541.642,473.176z M535.958,469.766h5.695c-0.078-1.078-0.309-1.883-0.691-2.414
	c-0.555-0.773-1.262-1.16-2.121-1.16c-0.773,0-1.434,0.322-1.98,0.967S536.013,468.672,535.958,469.766z"/>
<path d="M545.614,477.184v-12.445h1.559v1.887c0.398-0.875,0.764-1.455,1.096-1.74s0.705-0.428,1.119-0.428
	c0.578,0,1.168,0.227,1.77,0.68l-0.586,1.957c-0.43-0.305-0.848-0.457-1.254-0.457c-0.367,0-0.703,0.129-1.008,0.387
	s-0.52,0.617-0.645,1.078c-0.219,0.805-0.328,1.66-0.328,2.566v6.516H545.614z"/>
</svg>
