<?xml version="1.0" encoding="utf-8"?>
<!-- Generator: Adobe Illustrator 14.0.0, SVG Export Plug-In  -->
<!DOCTYPE svg PUBLIC "-//W3C//DTD SVG 1.1//EN" "http://www.w3.org/Graphics/SVG/1.1/DTD/svg11.dtd" [
	<!ENTITY ns_flows "http://ns.adobe.com/Flows/1.0/">
]>
<svg version="1.1"
	 xmlns="http://www.w3.org/2000/svg" xmlns:xlink="http://www.w3.org/1999/xlink" xmlns:a="http://ns.adobe.com/AdobeSVGViewerExtensions/3.0/"
	 x="0px" y="0px" width="750px" height="50px" viewBox="-2.5 -2.5 750 50" enable-background="new -2.5 -2.5 750 50"
	 xml:space="preserve">
<defs>
</defs>
<rect fill="#F4C823" width="6.936" height="6.936"/>
<rect y="9.516" fill="#F4C823" width="6.936" height="6.937"/>
<rect y="19.032" fill="#F4C823" width="6.936" height="6.937"/>
<rect y="28.548" fill="#F4C823" width="6.936" height="6.937"/>
<rect y="38.063" fill="#F4C823" width="6.936" height="6.937"/>
<rect x="9.516" fill="#F4C823" width="6.937" height="6.936"/>
<rect x="9.516" y="9.516" fill="#F4C823" width="6.937" height="6.937"/>
<rect x="9.516" y="19.032" fill="#F4C823" width="6.937" height="6.937"/>
<rect x="9.516" y="28.548" fill="#F4C823" width="6.937" height="6.937"/>
<rect x="9.516" y="38.063" fill="#F4C823" width="6.937" height="6.937"/>
<rect x="19.032" fill="#F4C823" width="6.937" height="6.936"/>
<rect x="19.032" y="9.516" fill="#F4C823" width="6.937" height="6.937"/>
<rect x="19.032" y="19.032" fill="#F4C823" width="6.937" height="6.937"/>
<rect x="19.032" y="28.548" fill="#F4C823" width="6.937" height="6.937"/>
<rect x="19.032" y="38.063" fill="#F4C823" width="6.937" height="6.937"/>
<rect x="28.548" fill="#F4C823" width="6.936" height="6.936"/>
<rect x="28.548" y="9.516" fill="#F4C823" width="6.936" height="6.937"/>
<rect x="28.548" y="19.032" fill="#F4C823" width="6.936" height="6.937"/>
<rect x="28.548" y="28.548" fill="#F4C823" width="6.936" height="6.937"/>
<rect x="28.548" y="38.063" fill="#F4C823" width="6.936" height="6.937"/>
<rect x="38.063" fill="#F4C823" width="6.937" height="6.936"/>
<rect x="38.063" y="9.516" fill="#F4C823" width="6.937" height="6.937"/>
<rect x="38.063" y="19.032" fill="#F4C823" width="6.937" height="6.937"/>
<rect x="38.063" y="28.548" fill="#F4C823" width="6.937" height="6.937"/>
<rect x="38.063" y="38.063" fill="#F4C823" width="6.937" height="6.937"/>
<path fill="#2C3593" d="M59.122,29.342l6.249-0.738c0.703,4.94,3.006,7.409,6.908,7.409c1.934,0,3.454-0.505,4.562-1.515
	s1.661-2.262,1.661-3.756c0-0.878-0.194-1.625-0.58-2.24c-0.387-0.615-0.976-1.12-1.767-1.516s-2.707-1.058-5.748-1.988
	c-2.725-0.824-4.72-1.719-5.985-2.686c-1.266-0.966-2.272-2.234-3.019-3.807c-0.748-1.572-1.121-3.263-1.121-5.072
	c0-2.107,0.479-4.004,1.437-5.69c0.958-1.686,2.281-2.959,3.968-3.82c1.688-0.86,3.771-1.291,6.249-1.291
	c3.727,0,6.635,1.011,8.728,3.032c2.092,2.021,3.199,4.914,3.322,8.675l-6.407,0.343c-0.281-2.074-0.888-3.524-1.819-4.351
	c-0.932-0.826-2.259-1.239-3.981-1.239c-1.723,0-3.05,0.359-3.981,1.078c-0.932,0.719-1.397,1.613-1.397,2.681
	c0,1.052,0.423,1.937,1.269,2.655c0.845,0.719,2.789,1.509,5.829,2.371c3.216,0.932,5.54,1.912,6.972,2.94s2.525,2.355,3.281,3.981
	c0.755,1.625,1.133,3.598,1.133,5.918c0,3.357-1.033,6.177-3.098,8.462c-2.066,2.285-5.296,3.427-9.69,3.427
	C64.325,42.604,60,38.184,59.122,29.342z"/>
<g>
	<g>
		<path fill="#2C3593" d="M89.625,40.003V18.528h3.545v21.475H89.625z"/>
		<path fill="#2C3593" d="M96.553,18.528h6.483c1.639,0,2.875,0.183,3.709,0.549s1.603,0.984,2.305,1.853
			c0.703,0.869,1.254,1.997,1.654,3.384s0.6,3.11,0.6,5.171c0,1.855-0.21,3.469-0.629,4.841s-0.951,2.458-1.595,3.259
			c-0.644,0.801-1.422,1.404-2.334,1.809s-2.085,0.608-3.52,0.608h-6.673V18.528z M100.098,22.161V36.37h2.666
			c1.143,0,1.97-0.107,2.483-0.322s0.933-0.539,1.26-0.973s0.598-1.12,0.813-2.056s0.322-2.17,0.322-3.702
			c0-1.59-0.11-2.844-0.33-3.761s-0.562-1.639-1.025-2.166s-1.028-0.874-1.692-1.039c-0.498-0.127-1.46-0.19-2.886-0.19H100.098z"/>
		<path fill="#2C3593" d="M114.336,40.003V18.528h13.066v3.633h-9.521v4.761h8.848v3.618h-8.848v5.83h9.844v3.633H114.336z"/>
		<path fill="#2C3593" d="M133.234,40.003l-4.22-21.475h3.647l2.644,14.758l3.219-14.758h4.237l3.091,15.007l2.717-15.007h3.574
			l-4.277,21.475h-3.785l-3.518-16.062l-3.486,16.062H133.234z"/>
		<path fill="#2C3593" d="M168.492,40.003h-3.854l-1.542-4.863h-7.049l-1.456,4.863h-3.779l6.857-21.475h3.766L168.492,40.003z
			 M161.951,31.507l-2.431-7.969l-2.386,7.969H161.951z"/>
		<path fill="#2C3593" d="M170.455,40.003V18.704H174V36.37h8.848v3.633H170.455z"/>
		<path fill="#2C3593" d="M185.425,40.003V18.528h3.545v9.56l7.199-9.56h4.791l-6.64,8.37l6.992,13.105h-4.601l-4.858-10.092
			l-2.882,3.603v6.489H185.425z"/>
	</g>
</g>
<path fill="#2C3593" d="M220.808,22.855c0-4.605,0.681-8.398,2.043-11.377c1.362-2.979,3.142-5.198,5.339-6.658
	c2.197-1.459,4.86-2.188,7.989-2.188c4.535,0,8.23,1.731,11.087,5.194c2.856,3.463,4.285,8.394,4.285,14.792
	c0,6.469-1.512,11.522-4.535,15.161c-2.654,3.217-6.258,4.825-10.811,4.825c-4.588,0-8.209-1.591-10.863-4.772
	C222.319,34.193,220.808,29.201,220.808,22.855z M227.399,22.592c0,4.447,0.845,7.783,2.535,10.006
	c1.69,2.224,3.785,3.335,6.285,3.335c2.517,0,4.604-1.103,6.258-3.309c1.655-2.206,2.482-5.594,2.482-10.165
	c0-4.482-0.806-7.795-2.417-9.94c-1.611-2.145-3.719-3.217-6.324-3.217s-4.727,1.081-6.364,3.243S227.399,18.057,227.399,22.592z"/>
<g>
	<g>
		<path fill="#2C3593" d="M255.562,18.528h7.053c1.926,0,3.28,0.176,4.062,0.527s1.442,0.972,1.979,1.86s0.807,1.895,0.807,3.018
			c0,1.035-0.23,1.97-0.691,2.805s-1.059,1.453-1.795,1.853c1.044,0.371,1.861,1.006,2.451,1.904
			c0.59,0.898,0.885,1.992,0.885,3.281c0,1.563-0.376,2.883-1.128,3.962s-1.641,1.746-2.666,2c-0.713,0.176-2.368,0.264-4.966,0.264
			h-5.991V18.528z M259.107,22.103v4.966h2.344c1.406,0,2.275-0.024,2.607-0.073c0.605-0.098,1.079-0.354,1.421-0.769
			s0.513-0.979,0.513-1.692c0-0.635-0.139-1.15-0.417-1.545s-0.615-0.642-1.011-0.74s-1.531-0.146-3.406-0.146H259.107z
			 M259.107,30.643v5.728h3.302c1.448,0,2.377-0.075,2.789-0.227c0.411-0.151,0.756-0.448,1.035-0.891
			c0.279-0.443,0.418-1.006,0.418-1.688c0-0.702-0.149-1.278-0.448-1.731s-0.695-0.765-1.189-0.935s-1.504-0.256-3.031-0.256
			H259.107z"/>
		<path fill="#2C3593" d="M272.422,33.001l3.472-0.41c0.391,2.744,1.67,4.116,3.838,4.116c1.074,0,1.919-0.281,2.534-0.842
			s0.923-1.257,0.923-2.087c0-0.488-0.107-0.902-0.322-1.244s-0.542-0.622-0.981-0.842s-1.504-0.588-3.193-1.104
			c-1.514-0.458-2.622-0.956-3.325-1.492s-1.262-1.242-1.677-2.115c-0.415-0.873-0.623-1.813-0.623-2.817
			c0-1.171,0.266-2.225,0.798-3.162c0.532-0.937,1.267-1.644,2.205-2.122s2.095-0.717,3.472-0.717c2.07,0,3.687,0.562,4.849,1.685
			s1.777,2.729,1.846,4.819l-3.56,0.19c-0.156-1.152-0.493-1.958-1.011-2.417s-1.255-0.688-2.212-0.688s-1.694,0.2-2.212,0.599
			c-0.518,0.399-0.776,0.896-0.776,1.49c0,0.584,0.235,1.076,0.705,1.475c0.47,0.399,1.549,0.838,3.239,1.316
			c1.787,0.518,3.078,1.063,3.873,1.634s1.403,1.309,1.822,2.211c0.42,0.903,0.63,1.999,0.63,3.288c0,1.865-0.574,3.432-1.721,4.701
			s-2.942,1.904-5.383,1.904C275.313,40.369,272.911,37.913,272.422,33.001z"/>
		<path fill="#2C3593" d="M293.692,40.003V22.161h-5.229v-3.633h13.989v3.633h-5.215v17.842H293.692z"/>
		<path fill="#2C3593" d="M304.766,40.003V18.528h7.485c1.914,0,3.281,0.193,4.102,0.579s1.494,1.055,2.021,2.007
			s0.791,2.092,0.791,3.42c0,1.68-0.403,3.032-1.208,4.058s-1.951,1.67-3.435,1.934c0.762,0.547,1.392,1.145,1.89,1.794
			s1.177,1.814,2.036,3.494l2.139,4.189h-4.241l-2.573-4.673c-0.926-1.689-1.555-2.747-1.887-3.171s-0.684-0.718-1.055-0.879
			s-0.967-0.242-1.787-0.242h-0.732v8.965H304.766z M308.311,27.61h2.637c1.611,0,2.637-0.071,3.076-0.212s0.796-0.427,1.069-0.857
			s0.41-1.001,0.41-1.714c0-0.684-0.137-1.233-0.41-1.648s-0.645-0.701-1.113-0.857c-0.332-0.107-1.294-0.161-2.886-0.161h-2.783
			V27.61z"/>
		<path fill="#2C3593" d="M322.476,18.528h3.545v11.631c0,1.807,0.044,2.983,0.132,3.53c0.157,0.947,0.531,1.68,1.123,2.197
			s1.373,0.776,2.341,0.776c0.822,0,1.493-0.183,2.011-0.549s0.874-0.874,1.064-1.523s0.286-2.043,0.286-4.182v-11.88h3.545v11.279
			c0,2.881-0.154,4.963-0.461,6.248s-1.001,2.324-2.08,3.12s-2.502,1.194-4.27,1.194c-1.836,0-3.269-0.33-4.299-0.989
			s-1.777-1.587-2.241-2.783s-0.696-3.401-0.696-6.614V18.528z"/>
		<path fill="#2C3593" d="M351.539,32.107l3.442,1.333c-0.537,2.402-1.431,4.158-2.681,5.266s-2.788,1.663-4.614,1.663
			c-2.295,0-4.155-0.884-5.581-2.651c-1.641-2.041-2.461-4.795-2.461-8.262c0-3.662,0.826-6.528,2.478-8.599
			c1.437-1.797,3.367-2.695,5.792-2.695c1.975,0,3.626,0.674,4.956,2.021c0.948,0.957,1.642,2.378,2.082,4.263l-3.516,1.025
			c-0.225-1.162-0.673-2.053-1.343-2.673c-0.67-0.62-1.46-0.93-2.37-0.93c-1.301,0-2.363,0.566-3.185,1.699s-1.232,3.003-1.232,5.61
			c0,2.705,0.4,4.629,1.201,5.771s1.841,1.714,3.12,1.714c0.938,0,1.748-0.364,2.432-1.091S351.236,33.689,351.539,32.107z"/>
		<path fill="#2C3593" d="M361.983,40.003V22.161h-5.229v-3.633h13.99v3.633h-5.215v17.842H361.983z"/>
		<path fill="#2C3593" d="M372.94,40.003V18.528h3.545v21.475H372.94z"/>
		<path fill="#2C3593" d="M379.165,29.397c0-2.559,0.379-4.666,1.136-6.321s1.745-2.888,2.966-3.699s2.701-1.216,4.439-1.216
			c2.52,0,4.572,0.962,6.159,2.886s2.38,4.663,2.38,8.218c0,3.594-0.84,6.401-2.52,8.423c-1.475,1.787-3.477,2.681-6.006,2.681
			c-2.549,0-4.561-0.884-6.035-2.651C380.005,35.696,379.165,32.923,379.165,29.397z M382.827,29.251
			c0,2.471,0.47,4.324,1.408,5.559c0.939,1.235,2.104,1.853,3.492,1.853c1.398,0,2.558-0.613,3.477-1.838
			c0.92-1.226,1.379-3.108,1.379-5.647c0-2.49-0.447-4.331-1.342-5.522s-2.066-1.787-3.514-1.787s-2.626,0.601-3.535,1.802
			C383.282,24.871,382.827,26.731,382.827,29.251z"/>
		<path fill="#2C3593" d="M399.073,40.003V18.528h3.457l7.207,14.341V18.528h3.311v21.475h-3.574l-7.09-14.004v14.004H399.073z"/>
	</g>
</g>
<path fill="#2C3593" d="M434.917,3.291h12.696c3.466,0,5.903,0.316,7.312,0.949s2.596,1.75,3.563,3.349
	c0.968,1.6,1.452,3.411,1.452,5.432c0,1.863-0.416,3.546-1.245,5.049s-1.907,2.615-3.23,3.335c1.879,0.668,3.349,1.811,4.411,3.428
	c1.063,1.618,1.594,3.586,1.594,5.906c0,2.813-0.678,5.19-2.031,7.132c-1.354,1.942-2.953,3.142-4.799,3.599
	c-1.283,0.316-4.262,0.475-8.938,0.475h-10.785V3.291z M441.298,9.725v8.938h4.219c2.531,0,4.096-0.043,4.693-0.132
	c1.09-0.175,1.942-0.637,2.559-1.384c0.615-0.747,0.922-1.762,0.922-3.045c0-1.143-0.25-2.07-0.751-2.782s-1.107-1.156-1.819-1.332
	c-0.712-0.175-2.756-0.264-6.131-0.264H441.298z M441.298,25.097v10.31h5.945c2.605,0,4.279-0.136,5.019-0.407
	c0.739-0.272,1.36-0.807,1.862-1.604c0.502-0.798,0.754-1.81,0.754-3.038c0-1.262-0.27-2.301-0.807-3.116s-1.25-1.376-2.14-1.684
	c-0.89-0.306-2.708-0.46-5.456-0.46H441.298z"/>
<g>
	<g>
		<path fill="#2C3593" d="M465.024,40.003V18.528h3.545v21.475H465.024z"/>
		<path fill="#2C3593" d="M472.013,40.003V18.528h3.457l7.207,14.341V18.528h3.311v21.475h-3.574l-7.09-14.004v14.004H472.013z"/>
		<path fill="#2C3593" d="M497.925,32.122v-3.633h7.662v8.555c-0.771,0.908-1.865,1.689-3.281,2.344s-2.838,0.981-4.264,0.981
			c-1.738,0-3.271-0.427-4.6-1.282s-2.38-2.134-3.156-3.838s-1.164-3.708-1.164-6.013c0-2.363,0.393-4.385,1.179-6.064
			s1.807-2.935,3.062-3.765s2.756-1.245,4.504-1.245c2.1,0,3.782,0.535,5.047,1.604s2.078,2.639,2.439,4.709l-3.516,0.806
			c-0.264-1.104-0.748-1.948-1.451-2.534s-1.543-0.879-2.52-0.879c-1.514,0-2.738,0.588-3.676,1.765s-1.406,2.971-1.406,5.383
			c0,2.588,0.508,4.556,1.523,5.903c0.869,1.162,2.045,1.743,3.529,1.743c0.693,0,1.414-0.163,2.161-0.489
			c0.747-0.326,1.413-0.771,1.999-1.336v-2.716H497.925z"/>
		<path fill="#2C3593" d="M508.149,29.397c0-2.559,0.379-4.666,1.136-6.321s1.745-2.888,2.966-3.699s2.701-1.216,4.439-1.216
			c2.52,0,4.572,0.962,6.159,2.886s2.38,4.663,2.38,8.218c0,3.594-0.84,6.401-2.52,8.423c-1.475,1.787-3.477,2.681-6.006,2.681
			c-2.549,0-4.561-0.884-6.035-2.651C508.989,35.696,508.149,32.923,508.149,29.397z M511.812,29.251
			c0,2.471,0.47,4.324,1.408,5.559c0.939,1.235,2.104,1.853,3.492,1.853c1.398,0,2.558-0.613,3.477-1.838
			c0.92-1.226,1.379-3.108,1.379-5.647c0-2.49-0.447-4.331-1.342-5.522s-2.066-1.787-3.514-1.787s-2.626,0.601-3.535,1.802
			C512.267,24.871,511.812,26.731,511.812,29.251z"/>
	</g>
</g>
</svg>
