<?xml version="1.0" encoding="utf-8"?>
<!-- Generator: Adobe Illustrator 14.0.0, SVG Export Plug-In  -->
<!DOCTYPE svg PUBLIC "-//W3C//DTD SVG 1.1//EN" "http://www.w3.org/Graphics/SVG/1.1/DTD/svg11.dtd" [
	<!ENTITY ns_flows "http://ns.adobe.com/Flows/1.0/">
]>
<svg version="1.1"
	 xmlns="http://www.w3.org/2000/svg" xmlns:xlink="http://www.w3.org/1999/xlink" xmlns:a="http://ns.adobe.com/AdobeSVGViewerExtensions/3.0/"
	 x="0px" y="0px" width="150px" height="150px" viewBox="150 600 150 150" enable-background="new 150 600 150 150"
	 xml:space="preserve">
<defs>
</defs>
<polyline fill="none" stroke="#000000" points="195.677,734.12 206.669,664.235 243.507,667.593 232.785,740.641 "/>
<line fill="none" stroke="#000000" x1="197.194" y1="724.473" x2="234.265" y2="730.563"/>
<line fill="none" stroke="#000000" x1="243.507" y1="667.593" x2="254.324" y2="725.889"/>
<line fill="none" stroke="#000000" x1="236.416" y1="715.905" x2="252.905" y2="718.24"/>
<line display="none" fill="none" stroke="#000000" x1="150.077" y1="0" x2="150.077" y2="750"/>
<line display="none" fill="none" stroke="#000000" x1="300.058" y1="0" x2="300.058" y2="750"/>
<line display="none" fill="none" stroke="#000000" x1="0" y1="750" x2="750" y2="750"/>
<line display="none" fill="none" stroke="#000000" x1="0" y1="600" x2="750" y2="600"/>
<path d="M189.984,627.185l5.433-17.18h1.993l5.77,17.18h-2.133l-1.639-5.203h-5.927l-1.531,5.203H189.984z M194.026,620.13h4.799
	l-1.464-4.758c-0.453-1.461-0.785-2.648-0.996-3.563c-0.182,1.102-0.439,2.195-0.772,3.281L194.026,620.13z"/>
<path d="M203.754,622.028v-2.121h5.309v2.121H203.754z"/>
<path d="M211.441,627.185V616.38h-1.535v-1.641h1.535v-1.324c0-0.977,0.102-1.709,0.306-2.197c0.203-0.488,0.515-0.861,0.934-1.119
	c0.419-0.258,0.946-0.387,1.58-0.387c0.494,0,1.034,0.074,1.622,0.223l-0.258,1.828c-0.359-0.078-0.699-0.117-1.02-0.117
	c-0.516,0-0.885,0.135-1.107,0.404s-0.334,0.783-0.334,1.541v1.148h1.992v1.641h-1.992v10.805H211.441z"/>
<path d="M216.434,627.185v-12.445h1.559v1.887c0.398-0.875,0.764-1.455,1.096-1.74s0.705-0.428,1.119-0.428
	c0.578,0,1.168,0.227,1.77,0.68l-0.586,1.957c-0.43-0.305-0.848-0.457-1.254-0.457c-0.367,0-0.703,0.129-1.008,0.387
	s-0.52,0.617-0.645,1.078c-0.219,0.805-0.328,1.66-0.328,2.566v6.516H216.434z"/>
<path d="M229.629,625.649c-0.578,0.602-1.18,1.055-1.805,1.359s-1.273,0.457-1.945,0.457c-1.063,0-1.91-0.32-2.543-0.961
	s-0.949-1.504-0.949-2.59c0-0.719,0.148-1.355,0.445-1.91s0.703-0.988,1.219-1.301s1.297-0.543,2.344-0.691
	c1.406-0.206,2.438-0.452,3.094-0.738l0.012-0.539c0-0.852-0.152-1.449-0.457-1.793c-0.43-0.5-1.09-0.75-1.98-0.75
	c-0.805,0-1.406,0.167-1.805,0.501c-0.398,0.333-0.691,0.959-0.879,1.878l-1.699-0.281c0.242-1.336,0.732-2.309,1.471-2.918
	s1.795-0.914,3.17-0.914c1.07,0,1.91,0.201,2.52,0.604s0.994,0.9,1.154,1.494s0.24,1.461,0.24,2.602v2.813
	c0,1.969,0.037,3.209,0.111,3.721s0.221,1.01,0.439,1.494h-1.805C229.801,626.755,229.684,626.243,229.629,625.649z
	 M229.488,620.938c-0.633,0.313-1.574,0.578-2.824,0.797c-0.727,0.125-1.234,0.268-1.523,0.428s-0.514,0.387-0.674,0.68
	s-0.24,0.631-0.24,1.014c0,0.594,0.184,1.068,0.551,1.424s0.875,0.533,1.523,0.533c0.617,0,1.178-0.16,1.682-0.48
	s0.881-0.748,1.131-1.283s0.375-1.314,0.375-2.338V620.938z"/>
<path d="M233.941,627.185v-12.445h1.547v1.734c0.343-0.645,0.784-1.142,1.322-1.491c0.538-0.35,1.127-0.524,1.767-0.524
	c0.717,0,1.324,0.185,1.819,0.554c0.496,0.369,0.848,0.907,1.059,1.614c0.407-0.723,0.876-1.265,1.405-1.626
	c0.529-0.361,1.115-0.542,1.758-0.542c0.979,0,1.752,0.332,2.316,0.996s0.847,1.727,0.847,3.188v8.543h-1.723v-7.849
	c0-0.892-0.065-1.522-0.194-1.895c-0.13-0.371-0.34-0.658-0.63-0.862c-0.291-0.203-0.617-0.305-0.978-0.305
	c-0.746,0-1.355,0.295-1.826,0.886s-0.707,1.52-0.707,2.786v7.238H240v-8.095c0-1.032-0.158-1.76-0.475-2.182
	c-0.316-0.423-0.752-0.634-1.307-0.634c-0.789,0-1.412,0.318-1.869,0.956s-0.686,1.801-0.686,3.49v6.464H233.941z"/>
<path d="M257.297,623.177l1.781,0.27c-0.297,1.328-0.834,2.33-1.611,3.006s-1.74,1.014-2.889,1.014c-1.445,0-2.615-0.549-3.51-1.646
	s-1.342-2.682-1.342-4.752c0-2.148,0.451-3.787,1.354-4.916s2.045-1.693,3.428-1.693c1.32,0,2.422,0.555,3.305,1.664
	s1.324,2.715,1.324,4.816l-0.012,0.563h-7.617c0.07,1.398,0.395,2.453,0.973,3.164s1.281,1.066,2.109,1.066
	C255.887,625.731,256.789,624.88,257.297,623.177z M251.613,619.767h5.695c-0.078-1.078-0.309-1.883-0.691-2.414
	c-0.555-0.773-1.262-1.16-2.121-1.16c-0.773,0-1.434,0.322-1.98,0.967S251.668,618.673,251.613,619.767z"/>
<path d="M207.557,647.066l1.723-0.328c0.101,0.879,0.378,1.532,0.83,1.96s1.052,0.642,1.8,0.642c0.749,0,1.327-0.186,1.736-0.557
	s0.614-0.842,0.614-1.412c0-0.492-0.176-0.875-0.527-1.148c-0.242-0.188-0.828-0.422-1.758-0.703
	c-1.344-0.414-2.242-0.766-2.695-1.055s-0.805-0.676-1.055-1.16s-0.375-1.035-0.375-1.652c0-1.063,0.34-1.926,1.02-2.59
	s1.621-0.996,2.824-0.996c0.758,0,1.424,0.137,1.998,0.41s1.014,0.641,1.318,1.102s0.516,1.121,0.633,1.98l-1.688,0.281
	c-0.156-1.359-0.895-2.039-2.215-2.039c-0.75,0-1.309,0.149-1.676,0.449s-0.551,0.683-0.551,1.149c0,0.46,0.176,0.821,0.528,1.086
	c0.211,0.155,0.837,0.404,1.878,0.747c1.432,0.454,2.357,0.816,2.778,1.086c0.42,0.271,0.747,0.638,0.981,1.104
	c0.233,0.466,0.35,1.02,0.35,1.661c0,1.189-0.377,2.152-1.131,2.888c-0.754,0.736-1.783,1.104-3.088,1.104
	C209.365,651.074,207.947,649.738,207.557,647.066z"/>
<path d="M218.068,636.039v-2.426h1.723v2.426H218.068z M218.068,650.793v-12.445h1.723v12.445H218.068z"/>
<path d="M222.1,651.824l1.688,0.305c0.078,0.668,0.313,1.165,0.703,1.491s0.934,0.489,1.629,0.489c0.758,0,1.361-0.182,1.811-0.545
	s0.756-0.904,0.92-1.623c0.102-0.438,0.152-1.359,0.152-2.767c-0.375,0.536-0.797,0.939-1.266,1.211s-0.988,0.407-1.559,0.407
	c-1.219,0-2.23-0.516-3.035-1.547c-0.922-1.188-1.383-2.777-1.383-4.77c0-1.336,0.203-2.504,0.609-3.504s0.939-1.734,1.6-2.203
	s1.4-0.703,2.221-0.703c0.602,0,1.15,0.147,1.646,0.442s0.936,0.737,1.318,1.327v-1.488h1.594v10.758
	c0,1.914-0.156,3.279-0.469,4.096s-0.824,1.461-1.535,1.934s-1.566,0.709-2.566,0.709c-1.32,0-2.336-0.355-3.047-1.066
	S222.076,653.082,222.1,651.824z M223.529,644.348c0,1.637,0.27,2.831,0.81,3.583c0.541,0.752,1.202,1.128,1.985,1.128
	c0.783,0,1.448-0.368,1.996-1.104c0.548-0.736,0.822-1.907,0.822-3.513c0-1.566-0.282-2.731-0.846-3.495s-1.249-1.146-2.055-1.146
	c-0.721,0-1.353,0.382-1.897,1.146C223.801,641.71,223.529,642.844,223.529,644.348z"/>
<path d="M233.385,650.793v-12.445h1.559v1.758c0.374-0.684,0.833-1.194,1.375-1.532s1.164-0.507,1.866-0.507
	c0.546,0,1.051,0.107,1.515,0.322c0.464,0.215,0.838,0.496,1.123,0.844s0.497,0.799,0.638,1.354c0.14,0.555,0.21,1.406,0.21,2.555
	v7.652h-1.723v-7.578c0-0.915-0.078-1.584-0.234-2.006c-0.156-0.423-0.4-0.749-0.732-0.98c-0.332-0.23-0.717-0.346-1.154-0.346
	c-0.828,0-1.488,0.309-1.98,0.927s-0.738,1.678-0.738,3.179v6.805H233.385z"/>
</svg>
