<?xml version="1.0" encoding="utf-8"?>
<!-- Generator: Adobe Illustrator 14.0.0, SVG Export Plug-In  -->
<!DOCTYPE svg PUBLIC "-//W3C//DTD SVG 1.1//EN" "http://www.w3.org/Graphics/SVG/1.1/DTD/svg11.dtd" [
	<!ENTITY ns_flows "http://ns.adobe.com/Flows/1.0/">
]>
<svg version="1.1"
	 xmlns="http://www.w3.org/2000/svg" xmlns:xlink="http://www.w3.org/1999/xlink" xmlns:a="http://ns.adobe.com/AdobeSVGViewerExtensions/3.0/"
	 x="0px" y="0px" width="150px" height="150px" viewBox="450 150 150 150" enable-background="new 450 150 150 150"
	 xml:space="preserve">
<defs>
</defs>
<path fill="none" stroke="#000000" stroke-linecap="round" d="M514.902,255.582c0,7.878-6.391,14.267-14.266,14.267
	c-7.881,0-14.27-6.389-14.27-14.267c0-7.879,6.389-14.263,14.27-14.263C508.512,241.319,514.902,247.703,514.902,255.582z"/>
<path fill="none" stroke="#000000" stroke-linecap="round" d="M563.633,255.582c0,7.878-6.387,14.267-14.27,14.267
	c-7.877,0-14.264-6.389-14.264-14.267c0-7.879,6.387-14.263,14.264-14.263C557.246,241.319,563.633,247.703,563.633,255.582z"/>
<polygon fill="none" stroke="#000000" stroke-linecap="round" points="513.93,232.554 540.518,232.554 521.768,255.582 
	500.637,255.582 513.93,232.554 "/>
<line fill="none" stroke="#000000" stroke-linecap="round" x1="510.313" y1="226.291" x2="521.768" y2="255.582"/>
<polyline fill="none" stroke="#000000" stroke-linecap="round" points="549.363,255.582 539.543,224.715 534.709,223.875 "/>
<line fill="none" stroke="#000000" stroke-linecap="round" x1="506.195" y1="226.291" x2="516.5" y2="226.291"/>
<line display="none" fill="none" stroke="#000000" x1="450.097" y1="0" x2="450.097" y2="750"/>
<line display="none" fill="none" stroke="#000000" x1="600.02" y1="0" x2="600.02" y2="750"/>
<line display="none" fill="none" stroke="#000000" x1="0" y1="150" x2="750" y2="150"/>
<line display="none" fill="none" stroke="#000000" x1="0" y1="300" x2="750" y2="300"/>
<path d="M480.511,177.252v-17.18h5.291c1.072,0,1.92,0.166,2.546,0.498c0.626,0.332,1.139,0.849,1.537,1.552
	c0.399,0.703,0.599,1.479,0.599,2.331c0,0.788-0.172,1.499-0.516,2.131c-0.344,0.633-0.828,1.14-1.453,1.522
	c0.816,0.297,1.46,0.804,1.931,1.519c0.471,0.715,0.706,1.597,0.706,2.645c0,1.04-0.213,1.952-0.639,2.738s-0.994,1.356-1.705,1.712
	c-0.711,0.356-1.688,0.534-2.93,0.534H480.511z M482.374,167.291h3.053c0.798,0,1.365-0.055,1.702-0.164
	c0.485-0.164,0.859-0.439,1.121-0.826c0.263-0.387,0.394-0.912,0.394-1.576c0-0.617-0.119-1.131-0.358-1.541
	c-0.238-0.41-0.556-0.693-0.95-0.85c-0.396-0.156-1.106-0.234-2.132-0.234h-2.829V167.291z M482.374,175.225h3.51
	c0.775,0,1.346-0.07,1.714-0.211c0.532-0.203,0.938-0.537,1.215-1.002c0.278-0.465,0.417-1.049,0.417-1.752
	c0-0.648-0.133-1.197-0.399-1.646c-0.266-0.449-0.624-0.777-1.074-0.984s-1.156-0.311-2.118-0.311h-3.264V175.225z"/>
<path d="M493.46,162.498v-2.426h1.723v2.426H493.46z M493.46,177.252v-12.445h1.723v12.445H493.46z"/>
<path d="M497.866,177.252v-17.18h1.723v9.813l4.106-5.079h2.239l-3.904,4.621l4.291,7.824H504.2l-3.391-6.378l-1.221,1.445v4.934
	H497.866z"/>
<path d="M514.647,173.244l1.781,0.27c-0.297,1.328-0.834,2.33-1.611,3.006s-1.74,1.014-2.889,1.014c-1.445,0-2.615-0.549-3.51-1.646
	s-1.342-2.682-1.342-4.752c0-2.148,0.451-3.787,1.354-4.916s2.045-1.693,3.428-1.693c1.32,0,2.422,0.555,3.305,1.664
	s1.324,2.715,1.324,4.816l-0.012,0.563h-7.617c0.07,1.398,0.395,2.453,0.973,3.164s1.281,1.066,2.109,1.066
	C513.237,175.799,514.14,174.947,514.647,173.244z M508.964,169.834h5.695c-0.078-1.078-0.309-1.883-0.691-2.414
	c-0.555-0.773-1.262-1.16-2.121-1.16c-0.773,0-1.434,0.322-1.98,0.967S509.019,168.74,508.964,169.834z"/>
<path d="M524.093,177.252v-12.445h1.559v1.887c0.398-0.875,0.764-1.455,1.096-1.74s0.705-0.428,1.119-0.428
	c0.578,0,1.168,0.227,1.77,0.68l-0.586,1.957c-0.43-0.305-0.848-0.457-1.254-0.457c-0.367,0-0.703,0.129-1.008,0.387
	s-0.52,0.617-0.645,1.078c-0.219,0.805-0.328,1.66-0.328,2.566v6.516H524.093z"/>
<path d="M530.644,162.498v-2.426h1.723v2.426H530.644z M530.644,177.252v-12.445h1.723v12.445H530.644z"/>
<path d="M541.624,177.252v-1.57c-0.313,0.602-0.715,1.061-1.207,1.377s-1.023,0.475-1.594,0.475c-1.203,0-2.244-0.568-3.123-1.705
	s-1.318-2.736-1.318-4.799c0-1.414,0.195-2.613,0.585-3.598s0.91-1.715,1.562-2.191s1.375-0.715,2.171-0.715
	c0.569,0,1.098,0.15,1.585,0.451s0.891,0.721,1.211,1.26v-6.164h1.746v17.18H541.624z M536.151,171.041
	c0,1.609,0.279,2.805,0.839,3.586c0.559,0.781,1.209,1.172,1.952,1.172c0.734,0,1.372-0.375,1.911-1.125s0.81-1.883,0.81-3.398
	c0-1.742-0.271-3.014-0.81-3.814s-1.22-1.201-2.04-1.201c-0.728,0-1.353,0.385-1.877,1.154
	C536.413,168.184,536.151,169.393,536.151,171.041z"/>
<path d="M545.96,162.498v-2.426h1.723v2.426H545.96z M545.96,177.252v-12.445h1.723v12.445H545.96z"/>
<path d="M550.331,177.252v-12.445h1.559v1.758c0.374-0.684,0.833-1.194,1.375-1.532c0.542-0.338,1.163-0.507,1.865-0.507
	c0.546,0,1.051,0.107,1.515,0.322s0.839,0.496,1.124,0.844c0.284,0.348,0.497,0.799,0.637,1.354
	c0.141,0.555,0.211,1.406,0.211,2.555v7.652h-1.723v-7.578c0-0.916-0.078-1.584-0.234-2.006s-0.4-0.749-0.732-0.979
	c-0.332-0.231-0.717-0.346-1.154-0.346c-0.828,0-1.488,0.309-1.98,0.927c-0.492,0.618-0.738,1.678-0.738,3.179v6.804H550.331z"/>
<path d="M560.937,178.283l1.688,0.305c0.078,0.668,0.313,1.165,0.703,1.491s0.934,0.489,1.629,0.489
	c0.758,0,1.361-0.182,1.811-0.545s0.756-0.904,0.92-1.624c0.102-0.438,0.152-1.359,0.152-2.766
	c-0.375,0.536-0.797,0.939-1.266,1.211s-0.988,0.407-1.559,0.407c-1.219,0-2.23-0.516-3.035-1.547
	c-0.922-1.188-1.383-2.777-1.383-4.77c0-1.336,0.203-2.504,0.609-3.504s0.939-1.734,1.6-2.203s1.4-0.703,2.221-0.703
	c0.602,0,1.15,0.147,1.646,0.442s0.936,0.737,1.318,1.327v-1.488h1.594v10.758c0,1.914-0.156,3.279-0.469,4.096
	s-0.824,1.461-1.535,1.934s-1.566,0.709-2.566,0.709c-1.32,0-2.336-0.355-3.047-1.066S560.913,179.541,560.937,178.283z
	 M562.366,170.807c0,1.637,0.271,2.832,0.811,3.583c0.54,0.752,1.201,1.128,1.984,1.128s1.448-0.368,1.996-1.104
	s0.822-1.907,0.822-3.513c0-1.566-0.282-2.731-0.846-3.495s-1.248-1.146-2.055-1.146c-0.721,0-1.353,0.382-1.896,1.146
	C562.638,168.169,562.366,169.303,562.366,170.807z"/>
<path d="M474.205,194.638c0-2.148,0.451-3.77,1.354-4.863s2.045-1.641,3.428-1.641c1.359,0,2.496,0.547,3.41,1.641
	s1.371,2.672,1.371,4.734c0,2.234-0.449,3.898-1.348,4.992s-2.043,1.641-3.434,1.641c-1.367,0-2.506-0.549-3.416-1.646
	S474.205,196.778,474.205,194.638z M475.975,194.632c0,1.611,0.293,2.81,0.879,3.596s1.313,1.179,2.18,1.179
	c0.813,0,1.51-0.397,2.092-1.191s0.873-1.989,0.873-3.584c0-1.604-0.293-2.798-0.879-3.584s-1.313-1.179-2.18-1.179
	c-0.82,0-1.52,0.395-2.098,1.185S475.975,193.036,475.975,194.632z"/>
<path d="M485.807,200.86v-12.445h1.559v1.758c0.374-0.684,0.833-1.194,1.375-1.532c0.542-0.338,1.163-0.507,1.865-0.507
	c0.546,0,1.051,0.107,1.515,0.322c0.465,0.215,0.839,0.496,1.123,0.844c0.285,0.348,0.498,0.799,0.638,1.354
	c0.141,0.555,0.211,1.406,0.211,2.555v7.652h-1.723v-7.578c0-0.916-0.078-1.584-0.234-2.006s-0.4-0.749-0.732-0.979
	c-0.332-0.231-0.717-0.346-1.154-0.346c-0.828,0-1.488,0.309-1.98,0.927c-0.492,0.618-0.738,1.678-0.738,3.179v6.804H485.807z"/>
<path d="M501.557,197.134l1.723-0.328c0.102,0.879,0.378,1.532,0.83,1.96s1.052,0.642,1.801,0.642c0.748,0,1.326-0.186,1.735-0.557
	s0.614-0.842,0.614-1.412c0-0.492-0.176-0.875-0.527-1.148c-0.242-0.188-0.828-0.422-1.758-0.703
	c-1.344-0.414-2.242-0.766-2.695-1.055s-0.805-0.676-1.055-1.16s-0.375-1.035-0.375-1.652c0-1.063,0.34-1.926,1.02-2.59
	s1.621-0.996,2.824-0.996c0.758,0,1.424,0.137,1.998,0.41s1.014,0.641,1.318,1.102s0.516,1.121,0.633,1.98l-1.688,0.281
	c-0.156-1.359-0.895-2.039-2.215-2.039c-0.75,0-1.309,0.15-1.676,0.449c-0.367,0.3-0.551,0.683-0.551,1.149
	c0,0.459,0.176,0.821,0.528,1.086c0.211,0.155,0.837,0.404,1.879,0.747c1.431,0.455,2.357,0.816,2.777,1.086s0.747,0.638,0.98,1.104
	s0.351,1.02,0.351,1.661c0,1.189-0.377,2.152-1.131,2.888c-0.754,0.736-1.783,1.104-3.088,1.104
	C503.365,201.142,501.947,199.806,501.557,197.134z"/>
<path d="M512.068,186.106v-2.426h1.723v2.426H512.068z M512.068,200.86v-12.445h1.723v12.445H512.068z"/>
<path d="M523.049,200.86v-1.57c-0.313,0.602-0.715,1.061-1.207,1.377s-1.023,0.475-1.594,0.475c-1.203,0-2.244-0.568-3.123-1.705
	s-1.318-2.736-1.318-4.799c0-1.414,0.194-2.613,0.585-3.598c0.39-0.984,0.91-1.715,1.562-2.191s1.375-0.715,2.171-0.715
	c0.569,0,1.098,0.15,1.585,0.451s0.891,0.721,1.211,1.26v-6.164h1.746v17.18H523.049z M517.576,194.649
	c0,1.609,0.279,2.805,0.839,3.586c0.559,0.781,1.209,1.172,1.952,1.172c0.734,0,1.372-0.375,1.911-1.125s0.81-1.883,0.81-3.398
	c0-1.742-0.271-3.014-0.81-3.814s-1.22-1.201-2.04-1.201c-0.728,0-1.353,0.385-1.877,1.154
	C517.838,191.792,517.576,193.001,517.576,194.649z"/>
<path d="M534.357,196.853l1.781,0.27c-0.297,1.328-0.834,2.33-1.611,3.006s-1.74,1.014-2.889,1.014c-1.445,0-2.615-0.549-3.51-1.646
	s-1.342-2.682-1.342-4.752c0-2.148,0.451-3.787,1.354-4.916s2.045-1.693,3.428-1.693c1.32,0,2.422,0.555,3.305,1.664
	s1.324,2.715,1.324,4.816l-0.012,0.563h-7.617c0.07,1.398,0.395,2.453,0.973,3.164s1.281,1.066,2.109,1.066
	C532.947,199.407,533.85,198.556,534.357,196.853z M528.674,193.442h5.695c-0.078-1.078-0.309-1.883-0.691-2.414
	c-0.555-0.773-1.262-1.16-2.121-1.16c-0.773,0-1.434,0.322-1.98,0.967S528.729,192.349,528.674,193.442z"/>
<path d="M540.211,200.86l-3.135-12.445h1.788l1.625,7.184l0.601,2.672l0.54-2.566l1.619-7.289h1.785l1.519,7.219l0.514,2.379
	l0.585-2.402l1.741-7.195h1.688l-3.186,12.445h-1.801l-1.629-7.453l-0.387-2.121l-2.063,9.574H540.211z"/>
<path d="M559.178,199.325c-0.578,0.602-1.18,1.055-1.805,1.359s-1.273,0.457-1.945,0.457c-1.063,0-1.91-0.32-2.543-0.961
	s-0.949-1.504-0.949-2.59c0-0.719,0.148-1.355,0.445-1.91s0.703-0.988,1.219-1.301s1.297-0.543,2.344-0.691
	c1.406-0.207,2.438-0.453,3.094-0.738l0.012-0.539c0-0.852-0.152-1.449-0.457-1.793c-0.43-0.5-1.09-0.75-1.98-0.75
	c-0.805,0-1.406,0.167-1.805,0.5s-0.691,0.96-0.879,1.878l-1.699-0.281c0.242-1.336,0.732-2.309,1.471-2.918s1.795-0.914,3.17-0.914
	c1.07,0,1.91,0.201,2.52,0.604s0.994,0.9,1.154,1.494s0.24,1.461,0.24,2.602v2.813c0,1.969,0.037,3.209,0.111,3.721
	s0.221,1.01,0.439,1.494h-1.805C559.35,200.431,559.232,199.919,559.178,199.325z M559.037,194.614
	c-0.633,0.313-1.574,0.578-2.824,0.797c-0.727,0.125-1.234,0.268-1.523,0.428s-0.514,0.387-0.674,0.68s-0.24,0.631-0.24,1.014
	c0,0.594,0.184,1.068,0.551,1.424s0.875,0.533,1.523,0.533c0.617,0,1.178-0.16,1.682-0.48s0.881-0.748,1.131-1.283
	s0.375-1.314,0.375-2.338V194.614z"/>
<path d="M563.42,200.86v-17.18h1.723v17.18H563.42z"/>
<path d="M567.885,200.86v-17.18h1.723v9.813l4.106-5.079h2.239l-3.903,4.621l4.29,7.824h-2.121l-3.391-6.378l-1.221,1.445v4.934
	H567.885z"/>
</svg>
