<?xml version="1.0" encoding="utf-8"?>
<!-- Generator: Adobe Illustrator 14.0.0, SVG Export Plug-In  -->
<!DOCTYPE svg PUBLIC "-//W3C//DTD SVG 1.1//EN" "http://www.w3.org/Graphics/SVG/1.1/DTD/svg11.dtd" [
	<!ENTITY ns_flows "http://ns.adobe.com/Flows/1.0/">
]>
<svg version="1.1"
	 xmlns="http://www.w3.org/2000/svg" xmlns:xlink="http://www.w3.org/1999/xlink" xmlns:a="http://ns.adobe.com/AdobeSVGViewerExtensions/3.0/"
	 x="0px" y="0px" width="150px" height="150px" viewBox="600 450 150 150" enable-background="new 600 450 150 150"
	 xml:space="preserve">
<defs>
</defs>
<path fill="none" stroke="#000000" d="M652.268,564.106c0,4.271-3.465,7.736-7.74,7.736s-7.738-3.465-7.738-7.736
	c0-4.278,3.463-7.741,7.738-7.741S652.268,559.828,652.268,564.106z"/>
<path fill="none" stroke="#000000" d="M713.795,564.106c0,4.271-3.463,7.736-7.738,7.736s-7.742-3.465-7.742-7.736
	c0-4.278,3.467-7.741,7.742-7.741S713.795,559.828,713.795,564.106z"/>
<polygon fill="none" stroke="#000000" points="661.848,532.132 677.861,532.132 690.844,543.602 661.848,543.602 "/>
<path fill="none" stroke="#000000" d="M658.818,532.132h-10.279c0,0-1.838,0.757-5.625,4.329c-3.787,3.57-6.125,7.141-6.125,7.141
	h22.029V532.132z"/>
<path fill="none" stroke="#000000" d="M657.686,564.106h35.211c0-7.271,5.893-13.159,13.16-13.159c6.85,0,12.477,5.235,13.1,11.922
	v0.005H725v-10.18c0,0-0.061-1.095-0.645-1.747c-1.383-1.549-8.891-3.923-13.787-4.954c-4.9-1.03-13.535-2.318-13.535-2.318
	L679,529.37h-32.998c0,0-4.527,2.323-9.791,6.443c-5.523,4.326-8.635,8.119-8.635,8.119L625,544.577v17.395l2.074,1.203h4.326
	c0.479-6.835,6.172-12.228,13.127-12.228C651.795,550.947,657.686,556.836,657.686,564.106z"/>
<line display="none" fill="none" stroke="#000000" x1="750" y1="0" x2="750" y2="750"/>
<line display="none" fill="none" stroke="#000000" x1="600.02" y1="0" x2="600.02" y2="750"/>
<line display="none" fill="none" stroke="#000000" x1="0" y1="450" x2="750" y2="450"/>
<line display="none" fill="none" stroke="#000000" x1="0" y1="600" x2="750" y2="600"/>
<path d="M631.826,471.163l1.875,0.574c-0.414,1.93-1.139,3.369-2.174,4.318s-2.295,1.424-3.779,1.424
	c-1.305,0-2.42-0.318-3.346-0.955c-0.926-0.638-1.684-1.66-2.273-3.066c-0.59-1.408-0.885-3.069-0.885-4.984
	c0-1.892,0.295-3.492,0.887-4.803c0.59-1.309,1.389-2.298,2.398-2.966c1.008-0.669,2.135-1.003,3.379-1.003
	c1.359,0,2.529,0.423,3.506,1.269c0.979,0.846,1.662,2.087,2.053,3.724l-1.828,0.527c-0.625-2.383-1.881-3.574-3.766-3.574
	c-0.939,0-1.754,0.24-2.441,0.722c-0.689,0.48-1.238,1.229-1.648,2.245c-0.412,1.018-0.617,2.303-0.617,3.859
	c0,2.354,0.414,4.119,1.242,5.295c0.828,1.178,1.93,1.766,3.305,1.766c1.016,0,1.893-0.361,2.631-1.084
	S631.576,472.632,631.826,471.163z"/>
<path d="M642.432,475.651c-0.578,0.602-1.18,1.055-1.805,1.359s-1.273,0.457-1.945,0.457c-1.063,0-1.91-0.32-2.543-0.961
	s-0.949-1.504-0.949-2.59c0-0.719,0.148-1.355,0.445-1.91s0.703-0.988,1.219-1.301s1.297-0.543,2.344-0.691
	c1.406-0.207,2.438-0.453,3.094-0.738l0.012-0.539c0-0.852-0.152-1.449-0.457-1.793c-0.43-0.5-1.09-0.75-1.98-0.75
	c-0.805,0-1.406,0.167-1.805,0.5c-0.398,0.334-0.691,0.961-0.879,1.879l-1.699-0.281c0.242-1.336,0.732-2.309,1.471-2.918
	s1.795-0.914,3.17-0.914c1.07,0,1.91,0.201,2.52,0.604s0.994,0.9,1.154,1.494s0.24,1.461,0.24,2.602v2.813
	c0,1.969,0.037,3.209,0.111,3.721s0.221,1.01,0.439,1.494h-1.805C642.604,476.757,642.486,476.245,642.432,475.651z M642.291,470.94
	c-0.633,0.313-1.574,0.578-2.824,0.797c-0.727,0.125-1.234,0.268-1.523,0.428s-0.514,0.387-0.674,0.68s-0.24,0.631-0.24,1.014
	c0,0.594,0.184,1.068,0.551,1.424s0.875,0.533,1.523,0.533c0.617,0,1.178-0.16,1.682-0.48s0.881-0.748,1.131-1.283
	s0.375-1.314,0.375-2.338V470.94z"/>
<path d="M646.732,477.187v-12.445h1.559v1.887c0.398-0.875,0.764-1.455,1.096-1.74s0.705-0.428,1.119-0.428
	c0.578,0,1.168,0.227,1.77,0.68l-0.586,1.957c-0.43-0.305-0.848-0.457-1.254-0.457c-0.367,0-0.703,0.129-1.008,0.387
	s-0.52,0.617-0.645,1.078c-0.219,0.805-0.328,1.66-0.328,2.566v6.516H646.732z"/>
<path d="M660.338,477.187h-1.605v-17.18h1.734v6.129c0.367-0.563,0.783-0.982,1.248-1.26s0.982-0.416,1.553-0.416
	c0.797,0,1.521,0.238,2.174,0.715s1.174,1.199,1.564,2.168s0.586,2.145,0.586,3.527c0,2.109-0.441,3.736-1.326,4.881
	s-1.916,1.717-3.098,1.717c-0.596,0-1.129-0.154-1.604-0.463c-0.473-0.309-0.881-0.768-1.227-1.377V477.187z M660.313,470.87
	c0,1.289,0.117,2.254,0.354,2.895c0.234,0.641,0.566,1.129,0.998,1.465c0.43,0.336,0.908,0.504,1.434,0.504
	c0.713,0,1.344-0.4,1.896-1.201s0.828-1.998,0.828-3.592c0-1.633-0.266-2.832-0.799-3.598c-0.531-0.766-1.186-1.148-1.961-1.148
	c-0.713,0-1.35,0.4-1.91,1.201S660.313,469.354,660.313,470.87z"/>
<path d="M669.643,477.187v-17.18h1.723v17.18H669.643z"/>
<path d="M673.416,470.964c0-2.148,0.451-3.77,1.354-4.863s2.045-1.641,3.428-1.641c1.359,0,2.496,0.547,3.41,1.641
	s1.371,2.672,1.371,4.734c0,2.234-0.449,3.898-1.348,4.992s-2.043,1.641-3.434,1.641c-1.367,0-2.506-0.549-3.416-1.646
	S673.416,473.104,673.416,470.964z M675.186,470.958c0,1.611,0.293,2.811,0.879,3.596c0.586,0.787,1.313,1.18,2.18,1.18
	c0.813,0,1.51-0.396,2.092-1.191c0.582-0.793,0.873-1.988,0.873-3.584c0-1.604-0.293-2.799-0.879-3.584
	c-0.586-0.787-1.313-1.18-2.18-1.18c-0.82,0-1.52,0.395-2.098,1.186C675.475,468.169,675.186,469.362,675.186,470.958z"/>
<path d="M691.697,472.628l1.699,0.27c-0.195,1.484-0.686,2.617-1.471,3.398s-1.729,1.172-2.83,1.172
	c-1.336,0-2.436-0.549-3.299-1.646s-1.295-2.721-1.295-4.869c0-2.164,0.436-3.787,1.307-4.869s1.99-1.623,3.357-1.623
	c1.055,0,1.943,0.328,2.666,0.984s1.186,1.641,1.389,2.953l-1.676,0.305c-0.164-0.84-0.449-1.468-0.855-1.884
	s-0.895-0.624-1.465-0.624c-0.852,0-1.557,0.377-2.115,1.131s-0.838,1.951-0.838,3.592c0,1.695,0.268,2.922,0.803,3.68
	s1.221,1.137,2.057,1.137c0.656,0,1.217-0.252,1.682-0.756S691.572,473.69,691.697,472.628z"/>
<path d="M694.896,477.187v-17.18h1.723v9.813l4.107-5.078h2.238l-3.902,4.621l4.289,7.824h-2.121l-3.391-6.379l-1.221,1.445v4.934
	H694.896z"/>
<path d="M704.705,462.433v-2.426h1.723v2.426H704.705z M704.705,477.187v-12.445h1.723v12.445H704.705z"/>
<path d="M709.076,477.187v-12.445h1.559v1.758c0.375-0.684,0.834-1.193,1.375-1.532c0.543-0.338,1.164-0.507,1.865-0.507
	c0.547,0,1.051,0.107,1.516,0.322s0.838,0.496,1.123,0.844s0.498,0.799,0.637,1.354c0.141,0.555,0.211,1.406,0.211,2.555v7.652
	h-1.723v-7.578c0-0.916-0.078-1.584-0.234-2.006c-0.156-0.423-0.4-0.75-0.732-0.98s-0.717-0.346-1.154-0.346
	c-0.828,0-1.488,0.309-1.98,0.927s-0.738,1.678-0.738,3.179v6.805H709.076z"/>
<path d="M719.682,478.218l1.688,0.305c0.078,0.668,0.313,1.165,0.703,1.491s0.934,0.489,1.629,0.489
	c0.758,0,1.361-0.182,1.811-0.545s0.756-0.904,0.92-1.623c0.102-0.438,0.152-1.359,0.152-2.767
	c-0.375,0.536-0.797,0.939-1.266,1.211s-0.988,0.407-1.559,0.407c-1.219,0-2.23-0.516-3.035-1.547
	c-0.922-1.188-1.383-2.777-1.383-4.77c0-1.336,0.203-2.504,0.609-3.504s0.939-1.734,1.6-2.203s1.4-0.703,2.221-0.703
	c0.602,0,1.15,0.147,1.646,0.442s0.936,0.737,1.318,1.327v-1.488h1.594v10.758c0,1.914-0.156,3.279-0.469,4.096
	s-0.824,1.461-1.535,1.934s-1.566,0.709-2.566,0.709c-1.32,0-2.336-0.355-3.047-1.066S719.658,479.476,719.682,478.218z
	 M721.111,470.741c0,1.637,0.271,2.832,0.811,3.583c0.541,0.752,1.201,1.128,1.984,1.128s1.449-0.368,1.996-1.104
	c0.549-0.736,0.822-1.907,0.822-3.513c0-1.566-0.281-2.731-0.846-3.495c-0.563-0.764-1.248-1.146-2.055-1.146
	c-0.721,0-1.352,0.382-1.896,1.146S721.111,469.237,721.111,470.741z"/>
<path d="M639.76,496.236l1.699,0.27c-0.195,1.484-0.686,2.617-1.471,3.398s-1.729,1.172-2.83,1.172
	c-1.336,0-2.436-0.549-3.299-1.646s-1.295-2.721-1.295-4.869c0-2.164,0.436-3.787,1.307-4.869s1.99-1.623,3.357-1.623
	c1.055,0,1.943,0.328,2.666,0.984s1.186,1.641,1.389,2.953l-1.676,0.305c-0.164-0.84-0.449-1.468-0.855-1.884
	s-0.895-0.624-1.465-0.624c-0.852,0-1.557,0.377-2.115,1.131s-0.838,1.951-0.838,3.592c0,1.695,0.268,2.922,0.803,3.68
	s1.221,1.137,2.057,1.137c0.656,0,1.217-0.252,1.682-0.756S639.635,497.299,639.76,496.236z"/>
<path d="M642.924,500.795V488.35h1.559v1.887c0.398-0.875,0.764-1.455,1.096-1.74s0.705-0.428,1.119-0.428
	c0.578,0,1.168,0.227,1.77,0.68l-0.586,1.957c-0.43-0.305-0.848-0.457-1.254-0.457c-0.367,0-0.703,0.129-1.008,0.387
	s-0.52,0.617-0.645,1.078c-0.219,0.805-0.328,1.66-0.328,2.566v6.516H642.924z"/>
<path d="M648.818,494.572c0-2.148,0.451-3.77,1.354-4.863s2.045-1.641,3.428-1.641c1.359,0,2.496,0.547,3.41,1.641
	s1.371,2.672,1.371,4.734c0,2.234-0.449,3.898-1.348,4.992s-2.043,1.641-3.434,1.641c-1.367,0-2.506-0.549-3.416-1.646
	S648.818,496.713,648.818,494.572z M650.588,494.566c0,1.611,0.293,2.81,0.879,3.597c0.586,0.785,1.313,1.179,2.18,1.179
	c0.813,0,1.51-0.397,2.092-1.19c0.582-0.795,0.873-1.989,0.873-3.585c0-1.604-0.293-2.798-0.879-3.585
	c-0.586-0.785-1.313-1.179-2.18-1.179c-0.82,0-1.52,0.396-2.098,1.185C650.877,491.778,650.588,492.971,650.588,494.566z"/>
<path d="M659.752,497.068l1.723-0.328c0.102,0.879,0.379,1.532,0.83,1.96c0.453,0.428,1.053,0.642,1.801,0.642
	s1.326-0.186,1.736-0.557c0.408-0.371,0.613-0.842,0.613-1.412c0-0.492-0.176-0.875-0.527-1.148
	c-0.242-0.188-0.828-0.422-1.758-0.703c-1.344-0.414-2.242-0.766-2.695-1.055s-0.805-0.676-1.055-1.16s-0.375-1.035-0.375-1.652
	c0-1.063,0.34-1.926,1.02-2.59s1.621-0.996,2.824-0.996c0.758,0,1.424,0.137,1.998,0.41s1.014,0.641,1.318,1.102
	s0.516,1.121,0.633,1.98l-1.688,0.281c-0.156-1.359-0.895-2.039-2.215-2.039c-0.75,0-1.309,0.149-1.676,0.449
	s-0.551,0.683-0.551,1.149c0,0.459,0.176,0.821,0.529,1.086c0.211,0.155,0.836,0.404,1.879,0.746
	c1.43,0.455,2.357,0.816,2.777,1.087s0.746,0.638,0.98,1.104c0.232,0.466,0.35,1.02,0.35,1.661c0,1.189-0.377,2.152-1.131,2.888
	s-1.783,1.104-3.088,1.104C661.561,501.076,660.143,499.74,659.752,497.068z"/>
<path d="M669.596,497.068l1.723-0.328c0.102,0.879,0.379,1.532,0.83,1.96c0.453,0.428,1.053,0.642,1.801,0.642
	s1.326-0.186,1.736-0.557c0.408-0.371,0.613-0.842,0.613-1.412c0-0.492-0.176-0.875-0.527-1.148
	c-0.242-0.188-0.828-0.422-1.758-0.703c-1.344-0.414-2.242-0.766-2.695-1.055s-0.805-0.676-1.055-1.16s-0.375-1.035-0.375-1.652
	c0-1.063,0.34-1.926,1.02-2.59s1.621-0.996,2.824-0.996c0.758,0,1.424,0.137,1.998,0.41s1.014,0.641,1.318,1.102
	s0.516,1.121,0.633,1.98l-1.688,0.281c-0.156-1.359-0.895-2.039-2.215-2.039c-0.75,0-1.309,0.149-1.676,0.449
	s-0.551,0.683-0.551,1.149c0,0.459,0.176,0.821,0.529,1.086c0.211,0.155,0.836,0.404,1.879,0.746
	c1.43,0.455,2.357,0.816,2.777,1.087s0.746,0.638,0.98,1.104c0.232,0.466,0.35,1.02,0.35,1.661c0,1.189-0.377,2.152-1.131,2.888
	s-1.783,1.104-3.088,1.104C671.404,501.076,669.986,499.74,669.596,497.068z"/>
<path d="M681.988,500.795l-3.135-12.445h1.789l1.625,7.184l0.6,2.672l0.541-2.566l1.619-7.289h1.785l1.518,7.219l0.514,2.379
	l0.586-2.402l1.74-7.195h1.688l-3.186,12.445h-1.801l-1.629-7.453l-0.387-2.121l-2.063,9.574H681.988z"/>
<path d="M700.955,499.26c-0.578,0.602-1.18,1.055-1.805,1.359s-1.273,0.457-1.945,0.457c-1.063,0-1.91-0.32-2.543-0.961
	s-0.949-1.504-0.949-2.59c0-0.719,0.148-1.355,0.445-1.91s0.703-0.988,1.219-1.301s1.297-0.543,2.344-0.691
	c1.406-0.206,2.438-0.452,3.094-0.738l0.012-0.539c0-0.852-0.152-1.449-0.457-1.793c-0.43-0.5-1.09-0.75-1.98-0.75
	c-0.805,0-1.406,0.167-1.805,0.501c-0.398,0.333-0.691,0.959-0.879,1.878l-1.699-0.281c0.242-1.336,0.732-2.309,1.471-2.918
	s1.795-0.914,3.17-0.914c1.07,0,1.91,0.201,2.52,0.604s0.994,0.9,1.154,1.494s0.24,1.461,0.24,2.602v2.813
	c0,1.969,0.037,3.209,0.111,3.721s0.221,1.01,0.439,1.494h-1.805C701.127,500.365,701.01,499.854,700.955,499.26z M700.814,494.549
	c-0.633,0.313-1.574,0.578-2.824,0.797c-0.727,0.125-1.234,0.268-1.523,0.428s-0.514,0.387-0.674,0.68s-0.24,0.631-0.24,1.014
	c0,0.594,0.184,1.068,0.551,1.424s0.875,0.533,1.523,0.533c0.617,0,1.178-0.16,1.682-0.48s0.881-0.748,1.131-1.283
	s0.375-1.314,0.375-2.338V494.549z"/>
<path d="M705.197,500.795v-17.18h1.723v17.18H705.197z"/>
<path d="M709.662,500.795v-17.18h1.723v9.813l4.107-5.079h2.238l-3.902,4.621l4.289,7.824h-2.121l-3.391-6.378l-1.221,1.444v4.934
	H709.662z"/>
</svg>
