<?xml version="1.0" encoding="utf-8"?>
<!-- Generator: Adobe Illustrator 14.0.0, SVG Export Plug-In  -->
<!DOCTYPE svg PUBLIC "-//W3C//DTD SVG 1.1//EN" "http://www.w3.org/Graphics/SVG/1.1/DTD/svg11.dtd" [
	<!ENTITY ns_flows "http://ns.adobe.com/Flows/1.0/">
]>
<svg version="1.1"
	 xmlns="http://www.w3.org/2000/svg" xmlns:xlink="http://www.w3.org/1999/xlink" xmlns:a="http://ns.adobe.com/AdobeSVGViewerExtensions/3.0/"
	 x="0px" y="0px" width="150px" height="150px" viewBox="0.5 300 150 150" enable-background="new 0.5 300 150 150"
	 xml:space="preserve">
<defs>
</defs>
<circle fill="#939598" cx="72.075" cy="377.53" r="4.109"/>
<path fill="#939598" d="M85.772,399.796h2.626v-12.112l-11.873-6.051l-4.793,1.711l-3.082,8.906l-7.647,5.593l1.141,2.511
	l7.991-3.311l2.282-3.881l3.081,5.365l-4.45,8.105l-4.339,18.264l5.024,1.028l3.765-14.956l3.083-3.538l8.105,19.063l3.311-2.854
	l-6.506-21.8c0,0,0.685-2.855,0.457-4.91c-0.23-2.055-2.511-7.877-2.511-7.877l3.423,0.23L85.772,399.796z"/>
<circle fill="none" stroke="#636466" stroke-width="3" cx="75.5" cy="399.959" r="35.485"/>
<line fill="none" stroke="#636466" stroke-width="3" x1="50.408" y1="374.867" x2="100.591" y2="425.049"/>
<line display="none" fill="none" stroke="#000000" x1="0.5" y1="0" x2="0.5" y2="750"/>
<line display="none" fill="none" stroke="#000000" x1="150.577" y1="0" x2="150.577" y2="750"/>
<line display="none" fill="none" stroke="#000000" x1="0.5" y1="300" x2="750.5" y2="300"/>
<line display="none" fill="none" stroke="#000000" x1="0.5" y1="450" x2="750.5" y2="450"/>
<path d="M56.393,321.162l1.875,0.574c-0.414,1.93-1.139,3.369-2.174,4.318s-2.295,1.424-3.779,1.424
	c-1.305,0-2.42-0.318-3.346-0.956c-0.926-0.637-1.684-1.658-2.273-3.066c-0.59-1.406-0.885-3.068-0.885-4.983
	c0-1.892,0.295-3.493,0.886-4.802c0.59-1.31,1.39-2.299,2.398-2.967s2.135-1.003,3.378-1.003c1.361,0,2.53,0.423,3.507,1.269
	s1.662,2.087,2.053,3.724l-1.828,0.527c-0.626-2.383-1.882-3.574-3.767-3.574c-0.939,0-1.753,0.241-2.441,0.722
	s-1.238,1.229-1.648,2.246c-0.411,1.016-0.616,2.303-0.616,3.858c0,2.354,0.414,4.118,1.242,5.296
	c0.828,1.176,1.93,1.765,3.305,1.765c1.016,0,1.893-0.361,2.631-1.084S56.143,322.631,56.393,321.162z"/>
<path d="M60.295,327.186v-17.18h1.723v17.18H60.295z"/>
<path d="M64.068,320.963c0-2.148,0.451-3.77,1.354-4.863s2.045-1.641,3.428-1.641c1.359,0,2.496,0.547,3.41,1.641
	s1.371,2.672,1.371,4.734c0,2.234-0.449,3.898-1.348,4.992s-2.043,1.641-3.434,1.641c-1.367,0-2.506-0.549-3.416-1.646
	S64.068,323.104,64.068,320.963z M65.838,320.957c0,1.611,0.293,2.81,0.879,3.597c0.586,0.785,1.313,1.179,2.18,1.179
	c0.813,0,1.51-0.397,2.092-1.19c0.582-0.795,0.873-1.989,0.873-3.585c0-1.604-0.293-2.798-0.879-3.585
	c-0.586-0.785-1.313-1.179-2.18-1.179c-0.82,0-1.52,0.396-2.098,1.185C66.127,318.169,65.838,319.361,65.838,320.957z"/>
<path d="M75.002,323.459l1.723-0.328c0.101,0.879,0.378,1.532,0.83,1.96s1.052,0.642,1.8,0.642c0.749,0,1.327-0.186,1.736-0.557
	s0.614-0.842,0.614-1.412c0-0.492-0.176-0.875-0.527-1.148c-0.242-0.188-0.828-0.422-1.758-0.703
	c-1.344-0.414-2.242-0.766-2.695-1.055s-0.805-0.676-1.055-1.16s-0.375-1.035-0.375-1.652c0-1.063,0.34-1.926,1.02-2.59
	s1.621-0.996,2.824-0.996c0.758,0,1.424,0.137,1.998,0.41s1.014,0.641,1.318,1.102s0.516,1.121,0.633,1.98l-1.688,0.281
	c-0.156-1.359-0.895-2.039-2.215-2.039c-0.75,0-1.309,0.149-1.676,0.449s-0.551,0.683-0.551,1.149c0,0.459,0.176,0.821,0.528,1.086
	c0.211,0.155,0.837,0.404,1.878,0.746c1.432,0.455,2.357,0.816,2.778,1.087s0.747,0.638,0.981,1.104
	c0.233,0.466,0.35,1.02,0.35,1.661c0,1.189-0.377,2.152-1.131,2.888s-1.783,1.104-3.088,1.104
	C76.811,327.467,75.393,326.131,75.002,323.459z"/>
<path d="M92.486,323.178l1.781,0.27c-0.297,1.328-0.834,2.33-1.611,3.006s-1.74,1.014-2.889,1.014c-1.445,0-2.615-0.549-3.51-1.646
	s-1.342-2.682-1.342-4.752c0-2.148,0.451-3.787,1.354-4.916s2.045-1.693,3.428-1.693c1.32,0,2.422,0.555,3.305,1.664
	s1.324,2.715,1.324,4.816l-0.012,0.563h-7.617c0.07,1.398,0.395,2.453,0.973,3.164s1.281,1.066,2.109,1.066
	C91.076,325.732,91.979,324.881,92.486,323.178z M86.803,319.768h5.695c-0.078-1.078-0.309-1.883-0.691-2.414
	c-0.555-0.773-1.262-1.16-2.121-1.16c-0.773,0-1.434,0.322-1.98,0.967S86.857,318.674,86.803,319.768z"/>
<path d="M103.068,327.186v-1.57c-0.313,0.602-0.715,1.061-1.207,1.377s-1.023,0.475-1.594,0.475c-1.203,0-2.244-0.568-3.123-1.705
	s-1.318-2.736-1.318-4.799c0-1.414,0.195-2.613,0.585-3.598c0.39-0.984,0.911-1.715,1.562-2.191c0.651-0.477,1.375-0.715,2.17-0.715
	c0.569,0,1.098,0.15,1.585,0.451s0.891,0.721,1.211,1.26v-6.164h1.746v17.18H103.068z M97.596,320.975
	c0,1.609,0.279,2.805,0.838,3.586s1.21,1.172,1.953,1.172c0.734,0,1.372-0.375,1.911-1.125s0.809-1.883,0.809-3.398
	c0-1.742-0.27-3.014-0.809-3.814s-1.22-1.201-2.041-1.201c-0.727,0-1.353,0.385-1.876,1.154
	C97.857,318.117,97.596,319.326,97.596,320.975z"/>
<path d="M40.262,346.235l1.699,0.27c-0.195,1.484-0.686,2.617-1.471,3.398s-1.729,1.172-2.83,1.172
	c-1.336,0-2.436-0.549-3.299-1.646s-1.295-2.721-1.295-4.869c0-2.164,0.436-3.787,1.307-4.869s1.99-1.623,3.357-1.623
	c1.055,0,1.943,0.328,2.666,0.984s1.186,1.641,1.389,2.953l-1.676,0.305c-0.164-0.84-0.449-1.468-0.855-1.884
	s-0.895-0.624-1.465-0.624c-0.852,0-1.557,0.377-2.115,1.131s-0.838,1.951-0.838,3.592c0,1.695,0.268,2.922,0.803,3.68
	s1.221,1.137,2.057,1.137c0.656,0,1.217-0.252,1.682-0.756S40.137,347.298,40.262,346.235z"/>
<path d="M43.426,350.794v-12.445h1.559v1.887c0.398-0.875,0.764-1.455,1.096-1.74s0.705-0.428,1.119-0.428
	c0.578,0,1.168,0.227,1.77,0.68l-0.586,1.957c-0.43-0.305-0.848-0.457-1.254-0.457c-0.367,0-0.703,0.129-1.008,0.387
	s-0.52,0.617-0.645,1.078c-0.219,0.805-0.328,1.66-0.328,2.566v6.516H43.426z"/>
<path d="M49.32,344.571c0-2.148,0.451-3.77,1.354-4.863s2.045-1.641,3.428-1.641c1.359,0,2.496,0.547,3.41,1.641
	s1.371,2.672,1.371,4.734c0,2.234-0.449,3.898-1.348,4.992s-2.043,1.641-3.434,1.641c-1.367,0-2.506-0.549-3.416-1.646
	S49.32,346.712,49.32,344.571z M51.09,344.565c0,1.611,0.293,2.811,0.879,3.596c0.586,0.787,1.313,1.18,2.18,1.18
	c0.813,0,1.51-0.396,2.092-1.191c0.582-0.793,0.873-1.988,0.873-3.584c0-1.604-0.293-2.799-0.879-3.584
	c-0.586-0.787-1.313-1.18-2.18-1.18c-0.82,0-1.52,0.395-2.098,1.186C51.379,341.776,51.09,342.97,51.09,344.565z"/>
<path d="M60.254,347.067l1.723-0.328c0.101,0.879,0.378,1.532,0.83,1.96s1.052,0.642,1.8,0.642c0.749,0,1.327-0.186,1.736-0.557
	s0.614-0.842,0.614-1.412c0-0.492-0.176-0.875-0.527-1.148c-0.242-0.188-0.828-0.422-1.758-0.703
	c-1.344-0.414-2.242-0.766-2.695-1.055s-0.805-0.676-1.055-1.16s-0.375-1.035-0.375-1.652c0-1.063,0.34-1.926,1.02-2.59
	s1.621-0.996,2.824-0.996c0.758,0,1.424,0.137,1.998,0.41s1.014,0.641,1.318,1.102s0.516,1.121,0.633,1.98l-1.688,0.281
	c-0.156-1.359-0.895-2.039-2.215-2.039c-0.75,0-1.309,0.15-1.676,0.449c-0.367,0.3-0.551,0.684-0.551,1.149
	c0,0.46,0.176,0.821,0.528,1.086c0.211,0.155,0.837,0.404,1.878,0.747c1.432,0.454,2.357,0.816,2.778,1.086s0.747,0.638,0.981,1.104
	c0.233,0.466,0.35,1.02,0.35,1.661c0,1.189-0.377,2.152-1.131,2.888c-0.754,0.736-1.783,1.104-3.088,1.104
	C62.063,351.075,60.645,349.739,60.254,347.067z"/>
<path d="M70.098,347.067l1.723-0.328c0.101,0.879,0.378,1.532,0.83,1.96s1.052,0.642,1.8,0.642c0.749,0,1.327-0.186,1.736-0.557
	s0.614-0.842,0.614-1.412c0-0.492-0.176-0.875-0.527-1.148c-0.242-0.188-0.828-0.422-1.758-0.703
	c-1.344-0.414-2.242-0.766-2.695-1.055s-0.805-0.676-1.055-1.16s-0.375-1.035-0.375-1.652c0-1.063,0.34-1.926,1.02-2.59
	s1.621-0.996,2.824-0.996c0.758,0,1.424,0.137,1.998,0.41s1.014,0.641,1.318,1.102s0.516,1.121,0.633,1.98l-1.688,0.281
	c-0.156-1.359-0.895-2.039-2.215-2.039c-0.75,0-1.309,0.15-1.676,0.449c-0.367,0.3-0.551,0.684-0.551,1.149
	c0,0.46,0.176,0.821,0.528,1.086c0.211,0.155,0.837,0.404,1.878,0.747c1.432,0.454,2.357,0.816,2.778,1.086s0.747,0.638,0.981,1.104
	c0.233,0.466,0.35,1.02,0.35,1.661c0,1.189-0.377,2.152-1.131,2.888c-0.754,0.736-1.783,1.104-3.088,1.104
	C71.906,351.075,70.488,349.739,70.098,347.067z"/>
<path d="M82.491,350.794l-3.135-12.445h1.788l1.625,7.184l0.601,2.672l0.54-2.566l1.619-7.289h1.786l1.518,7.219l0.514,2.379
	l0.584-2.402l1.742-7.195h1.688l-3.186,12.445h-1.8l-1.629-7.453l-0.387-2.121l-2.063,9.574H82.491z"/>
<path d="M101.457,349.259c-0.578,0.602-1.18,1.055-1.805,1.359s-1.273,0.457-1.945,0.457c-1.063,0-1.91-0.32-2.543-0.961
	s-0.949-1.504-0.949-2.59c0-0.719,0.148-1.355,0.445-1.91s0.703-0.988,1.219-1.301s1.297-0.543,2.344-0.691
	c1.406-0.207,2.438-0.453,3.094-0.738l0.012-0.539c0-0.852-0.152-1.449-0.457-1.793c-0.43-0.5-1.09-0.75-1.98-0.75
	c-0.805,0-1.406,0.167-1.805,0.5c-0.398,0.334-0.691,0.961-0.879,1.879l-1.699-0.281c0.242-1.336,0.732-2.309,1.471-2.918
	s1.795-0.914,3.17-0.914c1.07,0,1.91,0.201,2.52,0.604s0.994,0.9,1.154,1.494s0.24,1.461,0.24,2.602v2.813
	c0,1.969,0.037,3.209,0.111,3.721s0.221,1.01,0.439,1.494h-1.805C101.629,350.364,101.512,349.853,101.457,349.259z
	 M101.316,344.548c-0.633,0.313-1.574,0.578-2.824,0.797c-0.727,0.125-1.234,0.268-1.523,0.428s-0.514,0.387-0.674,0.68
	s-0.24,0.631-0.24,1.014c0,0.594,0.184,1.068,0.551,1.424s0.875,0.533,1.523,0.533c0.617,0,1.178-0.16,1.682-0.48
	s0.881-0.748,1.131-1.283s0.375-1.314,0.375-2.338V344.548z"/>
<path d="M105.699,350.794v-17.18h1.723v17.18H105.699z"/>
<path d="M110.164,350.794v-17.18h1.723v9.813l4.106-5.078h2.239l-3.903,4.621l4.291,7.824h-2.122l-3.391-6.379l-1.22,1.445v4.934
	H110.164z"/>
</svg>
