<?xml version="1.0" encoding="utf-8"?>
<!-- Generator: Adobe Illustrator 14.0.0, SVG Export Plug-In  -->
<!DOCTYPE svg PUBLIC "-//W3C//DTD SVG 1.1//EN" "http://www.w3.org/Graphics/SVG/1.1/DTD/svg11.dtd" [
	<!ENTITY ns_flows "http://ns.adobe.com/Flows/1.0/">
]>
<svg version="1.1"
	 xmlns="http://www.w3.org/2000/svg" xmlns:xlink="http://www.w3.org/1999/xlink" xmlns:a="http://ns.adobe.com/AdobeSVGViewerExtensions/3.0/"
	 x="0px" y="0px" width="150px" height="150px" viewBox="300 450 150 150" enable-background="new 300 450 150 150"
	 xml:space="preserve">
<defs>
</defs>
<path fill="none" stroke="#000000" d="M355.429,551.84c0,0-4.69-3.863-3.65-7.499c1.874-6.554,15.589-5.919,17.167-8.484"/>
<path fill="none" stroke="#000000" d="M360.876,538.504c0,0-4.494-3.94-3.276-7.976c1.578-5.229,10.162-3.946,14.404-7.104"/>
<path fill="none" stroke="#000000" d="M364.11,550.655c-1.381,2.072-22.593-1.479-21.705,10.557c0,0,0.789,5.525,7.597,5.229
	s4.934-1.546,12.925-1.546s13.518,2.063,25.258,1.558s19.337-2.578,19.436-8.398s-7.005-7.202-10.162-7.399"/>
<path fill="none" stroke="#000000" d="M376.542,561.508c0,0-7.016,2.798-11.845,3.422"/>
<path fill="none" stroke="#000000" d="M390.552,539.507c0,0,6.517-0.753,8.781,3.848c3.157,6.413-8.781,13.114-15.49,15.239"/>
<path fill="none" stroke="#000000" d="M382.758,529.937c0,0,7.34-0.695,9.091,2.96c3.144,6.564-9.313,13.318-16.849,14.404"/>
<path fill="none" stroke="#000000" d="M374.957,534.87c2.185-1.147,8.692-1.646,8.889-10.123c0.111-4.797-3.927-7.209-6.479-8.695
	c-4.521-2.632-8.184-3.704-8.914-3.282c-1.002,0.579-0.741,2.203-0.959,3.17c-0.249,1.104-2.001,4.724-2.198,5.907
	s0.407,3.902,0.407,3.902"/>
<line display="none" fill="none" stroke="#000000" x1="300.058" y1="0" x2="300.058" y2="750"/>
<line display="none" fill="none" stroke="#000000" x1="450.097" y1="0" x2="450.097" y2="750"/>
<line display="none" fill="none" stroke="#000000" x1="0" y1="450" x2="750" y2="450"/>
<line display="none" fill="none" stroke="#000000" x1="0" y1="600" x2="750" y2="600"/>
<path d="M333.803,477.184v-17.18h4.863c1.203,0,2.117,0.105,2.742,0.316c0.82,0.273,1.531,0.773,2.133,1.5s1.07,1.643,1.406,2.748
	s0.504,2.416,0.504,3.932c0,1.945-0.285,3.596-0.855,4.951s-1.303,2.316-2.197,2.883s-2.064,0.85-3.51,0.85H333.803z
	 M335.667,475.156h3c1.211,0,2.129-0.197,2.754-0.592s1.105-1.029,1.441-1.904c0.445-1.164,0.668-2.559,0.668-4.184
	c0-1.742-0.236-3.111-0.709-4.107s-1.08-1.662-1.822-1.998c-0.5-0.227-1.293-0.34-2.379-0.34h-2.953V475.156z"/>
<path d="M347.151,470.961c0-2.148,0.451-3.77,1.354-4.863s2.045-1.641,3.428-1.641c1.359,0,2.496,0.547,3.41,1.641
	s1.371,2.672,1.371,4.734c0,2.234-0.449,3.898-1.348,4.992s-2.043,1.641-3.434,1.641c-1.367,0-2.506-0.549-3.416-1.646
	S347.151,473.102,347.151,470.961z M348.92,470.955c0,1.611,0.293,2.81,0.879,3.597c0.586,0.785,1.313,1.179,2.18,1.179
	c0.813,0,1.51-0.397,2.092-1.19c0.582-0.795,0.873-1.989,0.873-3.585c0-1.604-0.293-2.798-0.879-3.585
	c-0.586-0.785-1.313-1.179-2.18-1.179c-0.82,0-1.52,0.396-2.098,1.185C349.209,468.167,348.92,469.359,348.92,470.955z"/>
<path d="M358.413,478.215l1.688,0.305c0.078,0.668,0.313,1.165,0.703,1.491s0.934,0.489,1.629,0.489
	c0.758,0,1.361-0.182,1.811-0.545s0.756-0.905,0.92-1.624c0.102-0.438,0.152-1.359,0.152-2.766
	c-0.375,0.535-0.797,0.939-1.266,1.211s-0.988,0.407-1.559,0.407c-1.219,0-2.23-0.516-3.035-1.547
	c-0.922-1.188-1.383-2.777-1.383-4.77c0-1.336,0.203-2.504,0.609-3.504s0.939-1.734,1.6-2.203s1.4-0.703,2.221-0.703
	c0.602,0,1.15,0.147,1.646,0.442s0.936,0.737,1.318,1.327v-1.488h1.594v10.758c0,1.914-0.156,3.279-0.469,4.096
	s-0.824,1.461-1.535,1.934s-1.566,0.709-2.566,0.709c-1.32,0-2.336-0.355-3.047-1.066S358.389,479.473,358.413,478.215z
	 M359.842,470.738c0,1.637,0.271,2.831,0.811,3.583s1.201,1.128,1.984,1.128s1.448-0.368,1.996-1.104s0.822-1.907,0.822-3.513
	c0-1.566-0.282-2.731-0.846-3.495s-1.248-1.146-2.055-1.146c-0.721,0-1.353,0.382-1.896,1.146
	C360.114,468.101,359.842,469.234,359.842,470.738z"/>
<path d="M375.17,481.953v-17.215h1.593v1.617c0.391-0.672,0.824-1.156,1.299-1.453c0.477-0.297,1.021-0.445,1.639-0.445
	c0.803,0,1.529,0.238,2.176,0.715s1.168,1.201,1.563,2.174c0.393,0.973,0.59,2.143,0.59,3.51c0,2.117-0.443,3.748-1.33,4.893
	s-1.928,1.717-3.123,1.717c-0.531,0-1.027-0.137-1.488-0.41s-0.859-0.66-1.195-1.16v6.059H375.17z M376.742,471.031
	c0,1.609,0.27,2.795,0.807,3.557s1.189,1.143,1.953,1.143c0.732,0,1.375-0.395,1.928-1.184c0.555-0.789,0.83-2.008,0.83-3.656
	c0-1.625-0.268-2.828-0.807-3.609c-0.537-0.781-1.191-1.172-1.963-1.172c-0.693,0-1.326,0.42-1.895,1.26
	S376.742,469.43,376.742,471.031z"/>
<path d="M385.459,470.961c0-2.148,0.451-3.77,1.354-4.863s2.045-1.641,3.428-1.641c1.359,0,2.496,0.547,3.41,1.641
	s1.371,2.672,1.371,4.734c0,2.234-0.449,3.898-1.348,4.992s-2.043,1.641-3.434,1.641c-1.367,0-2.506-0.549-3.416-1.646
	S385.459,473.102,385.459,470.961z M387.229,470.955c0,1.611,0.293,2.81,0.879,3.597c0.586,0.785,1.313,1.179,2.18,1.179
	c0.813,0,1.51-0.397,2.092-1.19c0.582-0.795,0.873-1.989,0.873-3.585c0-1.604-0.293-2.798-0.879-3.585
	c-0.586-0.785-1.313-1.179-2.18-1.179c-0.82,0-1.52,0.396-2.098,1.185C387.518,468.167,387.229,469.359,387.229,470.955z"/>
<path d="M396.404,470.961c0-2.148,0.451-3.77,1.354-4.863s2.045-1.641,3.428-1.641c1.359,0,2.496,0.547,3.41,1.641
	s1.371,2.672,1.371,4.734c0,2.234-0.449,3.898-1.348,4.992s-2.043,1.641-3.434,1.641c-1.367,0-2.506-0.549-3.416-1.646
	S396.404,473.102,396.404,470.961z M398.174,470.955c0,1.611,0.293,2.81,0.879,3.597c0.586,0.785,1.313,1.179,2.18,1.179
	c0.813,0,1.51-0.397,2.092-1.19c0.582-0.795,0.873-1.989,0.873-3.585c0-1.604-0.293-2.798-0.879-3.585
	c-0.586-0.785-1.313-1.179-2.18-1.179c-0.82,0-1.52,0.396-2.098,1.185C398.463,468.167,398.174,469.359,398.174,470.955z"/>
<path d="M408.006,481.953v-17.215h1.594v1.617c0.391-0.672,0.824-1.156,1.299-1.453c0.477-0.297,1.021-0.445,1.639-0.445
	c0.803,0,1.529,0.238,2.176,0.715s1.168,1.201,1.563,2.174c0.393,0.973,0.59,2.143,0.59,3.51c0,2.117-0.443,3.748-1.33,4.893
	s-1.928,1.717-3.123,1.717c-0.531,0-1.027-0.137-1.488-0.41s-0.859-0.66-1.195-1.16v6.059H408.006z M409.578,471.031
	c0,1.609,0.27,2.795,0.807,3.557s1.189,1.143,1.953,1.143c0.732,0,1.375-0.395,1.928-1.184c0.555-0.789,0.83-2.008,0.83-3.656
	c0-1.625-0.268-2.828-0.807-3.609c-0.537-0.781-1.191-1.172-1.963-1.172c-0.693,0-1.326,0.42-1.895,1.26
	S409.578,469.43,409.578,471.031z"/>
</svg>
