<?xml version="1.0" encoding="utf-8"?>
<!-- Generator: Adobe Illustrator 14.0.0, SVG Export Plug-In  -->
<!DOCTYPE svg PUBLIC "-//W3C//DTD SVG 1.1//EN" "http://www.w3.org/Graphics/SVG/1.1/DTD/svg11.dtd" [
	<!ENTITY ns_flows "http://ns.adobe.com/Flows/1.0/">
]>
<svg version="1.1"
	 xmlns="http://www.w3.org/2000/svg" xmlns:xlink="http://www.w3.org/1999/xlink" xmlns:a="http://ns.adobe.com/AdobeSVGViewerExtensions/3.0/"
	 x="0px" y="0px" width="150px" height="150px" viewBox="300 600 150 150" enable-background="new 300 600 150 150"
	 xml:space="preserve">
<defs>
</defs>
<path fill="none" stroke="#000000" d="M398.015,702.427c0-5.355-4.342-9.697-9.698-9.697s-9.698,4.342-9.698,9.697H398.015z"/>
<path fill="none" stroke="#000000" d="M398.015,716.631c0,5.356-4.342,9.698-9.698,9.698s-9.698-4.342-9.698-9.698H398.015z"/>
<path fill="none" stroke="#000000" d="M378.618,702.427c0,0-4.522,1.726-7.854,5.296c-3.332,3.57-4.642,8.908-4.642,8.908h12.495"/>
<path fill="none" stroke="#000000" d="M398.015,702.427c0,0,4.521,1.726,7.853,5.296s4.641,8.908,4.641,8.908h-12.493"/>
<path fill="none" stroke="#000000" d="M388.316,692.729v-2.666c0-10.751-8.716-19.466-19.466-19.466s-19.466,8.715-19.466,19.466
	v48.305"/>
<line fill="none" stroke="#000000" x1="388.316" y1="730.57" x2="388.316" y2="736.282"/>
<line fill="none" stroke="#000000" x1="397.3" y1="728.099" x2="400.155" y2="733.045"/>
<line fill="none" stroke="#000000" x1="379.331" y1="728.099" x2="376.476" y2="733.045"/>
<line fill="none" stroke="#636466" stroke-width="3" x1="339.492" y1="664.436" x2="402.4" y2="727.343"/>
<line fill="none" stroke="#636466" stroke-width="3" x1="402.4" y1="664.436" x2="339.492" y2="727.343"/>
<path d="M341.936,627.891v-17.18h1.863v15.152h6.938v2.027H341.936z"/>
<path d="M352.752,613.137v-2.426h1.723v2.426H352.752z M352.752,627.891v-12.445h1.723v12.445H352.752z"/>
<path d="M356.783,628.922l1.688,0.305c0.078,0.668,0.313,1.165,0.703,1.491s0.934,0.489,1.629,0.489
	c0.758,0,1.361-0.182,1.811-0.545s0.756-0.904,0.92-1.623c0.102-0.438,0.152-1.359,0.152-2.767
	c-0.375,0.536-0.797,0.939-1.266,1.211s-0.988,0.407-1.559,0.407c-1.219,0-2.23-0.516-3.035-1.547
	c-0.922-1.188-1.383-2.777-1.383-4.77c0-1.336,0.203-2.504,0.609-3.504s0.939-1.734,1.6-2.203s1.4-0.703,2.221-0.703
	c0.602,0,1.15,0.147,1.646,0.442s0.936,0.737,1.318,1.327v-1.488h1.594v10.758c0,1.914-0.156,3.279-0.469,4.096
	s-0.824,1.461-1.535,1.934s-1.566,0.709-2.566,0.709c-1.32,0-2.336-0.355-3.047-1.066S356.76,630.18,356.783,628.922z
	 M358.213,621.445c0,1.637,0.271,2.831,0.811,3.583s1.201,1.128,1.984,1.128s1.448-0.368,1.996-1.104s0.822-1.907,0.822-3.513
	c0-1.566-0.282-2.731-0.846-3.495s-1.248-1.146-2.055-1.146c-0.721,0-1.353,0.382-1.896,1.146
	C358.484,618.808,358.213,619.941,358.213,621.445z"/>
<path d="M368.068,627.891v-17.18h1.723v6.164c0.406-0.57,0.865-0.998,1.377-1.283s1.076-0.428,1.693-0.428
	c1.086,0,1.943,0.346,2.572,1.037s0.943,1.959,0.943,3.803v7.887h-1.723v-7.887c0-1.078-0.191-1.852-0.574-2.32
	s-0.91-0.703-1.582-0.703c-0.75,0-1.389,0.301-1.916,0.902s-0.791,1.668-0.791,3.199v6.809H368.068z"/>
<path d="M382.857,626.004l0.234,1.863c-0.477,0.125-0.906,0.188-1.289,0.188c-0.602,0-1.086-0.119-1.453-0.357
	s-0.619-0.564-0.756-0.979s-0.205-1.238-0.205-2.473v-7.16h-1.266v-1.641h1.266v-3.082l1.723-1.266v4.348h1.746v1.641h-1.746v7.277
	c0,0.672,0.051,1.105,0.152,1.301c0.148,0.281,0.426,0.422,0.832,0.422C382.291,626.086,382.545,626.059,382.857,626.004z"/>
<path d="M384.486,613.137v-2.426h1.723v2.426H384.486z M384.486,627.891v-12.445h1.723v12.445H384.486z"/>
<path d="M388.857,627.891v-12.445h1.559v1.758c0.374-0.684,0.833-1.194,1.375-1.532s1.163-0.507,1.865-0.507
	c0.546,0,1.051,0.107,1.515,0.322c0.465,0.215,0.839,0.496,1.123,0.844c0.285,0.348,0.498,0.799,0.638,1.354
	c0.141,0.555,0.211,1.406,0.211,2.555v7.652h-1.723v-7.578c0-0.915-0.078-1.584-0.234-2.006c-0.156-0.423-0.4-0.749-0.732-0.98
	c-0.332-0.23-0.717-0.346-1.154-0.346c-0.828,0-1.488,0.309-1.98,0.927s-0.738,1.678-0.738,3.179v6.805H388.857z"/>
<path d="M399.463,628.922l1.688,0.305c0.078,0.668,0.313,1.165,0.703,1.491s0.934,0.489,1.629,0.489
	c0.758,0,1.361-0.182,1.811-0.545s0.756-0.904,0.92-1.623c0.102-0.438,0.152-1.359,0.152-2.767
	c-0.375,0.536-0.797,0.939-1.266,1.211s-0.988,0.407-1.559,0.407c-1.219,0-2.23-0.516-3.035-1.547
	c-0.922-1.188-1.383-2.777-1.383-4.77c0-1.336,0.203-2.504,0.609-3.504s0.939-1.734,1.6-2.203s1.4-0.703,2.221-0.703
	c0.602,0,1.15,0.147,1.646,0.442s0.936,0.737,1.318,1.327v-1.488h1.594v10.758c0,1.914-0.156,3.279-0.469,4.096
	s-0.824,1.461-1.535,1.934s-1.566,0.709-2.566,0.709c-1.32,0-2.336-0.355-3.047-1.066S399.439,630.18,399.463,628.922z
	 M400.893,621.445c0,1.637,0.271,2.831,0.811,3.583s1.201,1.128,1.984,1.128s1.448-0.368,1.996-1.104s0.822-1.907,0.822-3.513
	c0-1.566-0.282-2.731-0.846-3.495s-1.248-1.146-2.055-1.146c-0.721,0-1.353,0.382-1.896,1.146
	C401.164,618.808,400.893,619.941,400.893,621.445z"/>
<path d="M310.107,651.499v-12.445h1.547v1.734c0.343-0.645,0.784-1.142,1.322-1.491s1.127-0.524,1.767-0.524
	c0.717,0,1.323,0.185,1.819,0.554c0.495,0.369,0.848,0.907,1.059,1.614c0.407-0.723,0.876-1.265,1.405-1.626
	s1.115-0.542,1.758-0.542c0.979,0,1.752,0.332,2.316,0.996s0.847,1.727,0.847,3.188v8.543h-1.723v-7.849
	c0-0.892-0.064-1.522-0.194-1.895c-0.13-0.371-0.34-0.658-0.631-0.862c-0.29-0.203-0.616-0.305-0.978-0.305
	c-0.746,0-1.354,0.295-1.826,0.886s-0.707,1.52-0.707,2.786v7.238h-1.723v-8.095c0-1.032-0.158-1.76-0.475-2.182
	c-0.316-0.423-0.752-0.634-1.307-0.634c-0.789,0-1.412,0.318-1.869,0.956s-0.686,1.801-0.686,3.49v6.464H310.107z"/>
<path d="M326.49,636.745v-2.426h1.723v2.426H326.49z M326.49,651.499v-12.445h1.723v12.445H326.49z"/>
<path d="M330.193,647.772l1.723-0.328c0.102,0.879,0.378,1.532,0.83,1.96s1.052,0.642,1.801,0.642c0.748,0,1.326-0.186,1.735-0.557
	s0.614-0.842,0.614-1.412c0-0.492-0.176-0.875-0.527-1.148c-0.242-0.188-0.828-0.422-1.758-0.703
	c-1.344-0.414-2.242-0.766-2.695-1.055s-0.805-0.676-1.055-1.16s-0.375-1.035-0.375-1.652c0-1.063,0.34-1.926,1.02-2.59
	s1.621-0.996,2.824-0.996c0.758,0,1.424,0.137,1.998,0.41s1.014,0.641,1.318,1.102s0.516,1.121,0.633,1.98l-1.688,0.281
	c-0.156-1.359-0.895-2.039-2.215-2.039c-0.75,0-1.309,0.149-1.676,0.449s-0.551,0.683-0.551,1.149c0,0.459,0.176,0.821,0.528,1.086
	c0.211,0.155,0.837,0.404,1.879,0.747c1.431,0.454,2.357,0.816,2.777,1.086c0.42,0.271,0.747,0.638,0.98,1.104
	s0.351,1.02,0.351,1.661c0,1.189-0.377,2.152-1.131,2.888s-1.783,1.104-3.088,1.104C332.002,651.78,330.584,650.444,330.193,647.772
	z"/>
<path d="M340.037,647.772l1.723-0.328c0.102,0.879,0.378,1.532,0.83,1.96s1.052,0.642,1.801,0.642c0.748,0,1.326-0.186,1.735-0.557
	s0.614-0.842,0.614-1.412c0-0.492-0.176-0.875-0.527-1.148c-0.242-0.188-0.828-0.422-1.758-0.703
	c-1.344-0.414-2.242-0.766-2.695-1.055s-0.805-0.676-1.055-1.16s-0.375-1.035-0.375-1.652c0-1.063,0.34-1.926,1.02-2.59
	s1.621-0.996,2.824-0.996c0.758,0,1.424,0.137,1.998,0.41s1.014,0.641,1.318,1.102s0.516,1.121,0.633,1.98l-1.688,0.281
	c-0.156-1.359-0.895-2.039-2.215-2.039c-0.75,0-1.309,0.149-1.676,0.449s-0.551,0.683-0.551,1.149c0,0.459,0.176,0.821,0.528,1.086
	c0.211,0.155,0.837,0.404,1.879,0.747c1.431,0.454,2.357,0.816,2.777,1.086c0.42,0.271,0.747,0.638,0.98,1.104
	s0.351,1.02,0.351,1.661c0,1.189-0.377,2.152-1.131,2.888s-1.783,1.104-3.088,1.104C341.846,651.78,340.428,650.444,340.037,647.772
	z"/>
<path d="M350.549,636.745v-2.426h1.723v2.426H350.549z M350.549,651.499v-12.445h1.723v12.445H350.549z"/>
<path d="M354.92,651.499v-12.445h1.559v1.758c0.374-0.684,0.833-1.194,1.375-1.532s1.163-0.507,1.865-0.507
	c0.546,0,1.051,0.107,1.515,0.322c0.465,0.215,0.839,0.496,1.123,0.844c0.285,0.348,0.498,0.799,0.638,1.354
	c0.141,0.555,0.211,1.406,0.211,2.555v7.652h-1.723v-7.578c0-0.915-0.078-1.584-0.234-2.007c-0.156-0.422-0.4-0.748-0.732-0.979
	c-0.332-0.23-0.717-0.346-1.154-0.346c-0.828,0-1.488,0.31-1.98,0.927c-0.492,0.618-0.738,1.678-0.738,3.18v6.804H354.92z"/>
<path d="M365.525,652.53l1.688,0.305c0.078,0.668,0.313,1.165,0.703,1.491s0.934,0.489,1.629,0.489c0.758,0,1.361-0.182,1.811-0.545
	s0.756-0.904,0.92-1.623c0.102-0.438,0.152-1.359,0.152-2.767c-0.375,0.535-0.797,0.939-1.266,1.211s-0.988,0.407-1.559,0.407
	c-1.219,0-2.23-0.516-3.035-1.547c-0.922-1.188-1.383-2.777-1.383-4.77c0-1.336,0.203-2.504,0.609-3.504s0.939-1.734,1.6-2.203
	s1.4-0.703,2.221-0.703c0.602,0,1.15,0.147,1.646,0.442s0.936,0.737,1.318,1.327v-1.488h1.594v10.758
	c0,1.914-0.156,3.279-0.469,4.096s-0.824,1.461-1.535,1.934s-1.566,0.709-2.566,0.709c-1.32,0-2.336-0.355-3.047-1.066
	S365.502,653.788,365.525,652.53z M366.955,645.054c0,1.637,0.271,2.831,0.811,3.583s1.201,1.128,1.984,1.128
	s1.448-0.368,1.996-1.104s0.822-1.907,0.822-3.513c0-1.566-0.282-2.731-0.846-3.495s-1.248-1.146-2.055-1.146
	c-0.721,0-1.353,0.382-1.896,1.146C367.227,642.416,366.955,643.55,366.955,645.054z"/>
<path d="M375.523,651.78l4.081-17.754h1.407l-4.094,17.754H375.523z"/>
<path d="M383.865,651.499h-1.605v-17.18h1.734v6.129c0.367-0.563,0.783-0.982,1.248-1.26s0.982-0.416,1.553-0.416
	c0.797,0,1.521,0.238,2.174,0.715s1.174,1.199,1.564,2.168s0.586,2.145,0.586,3.527c0,2.109-0.442,3.736-1.326,4.881
	c-0.885,1.145-1.917,1.717-3.099,1.717c-0.595,0-1.129-0.154-1.603-0.463s-0.882-0.768-1.227-1.377V651.499z M383.84,645.183
	c0,1.289,0.117,2.254,0.353,2.895c0.234,0.641,0.567,1.129,0.998,1.465s0.908,0.504,1.434,0.504c0.713,0,1.345-0.4,1.897-1.201
	c0.552-0.801,0.828-1.998,0.828-3.592c0-1.633-0.267-2.832-0.799-3.598s-1.187-1.148-1.962-1.148c-0.713,0-1.35,0.4-1.909,1.201
	C384.119,642.509,383.84,643.667,383.84,645.183z"/>
<path d="M393.229,651.499v-12.445h1.559v1.887c0.398-0.875,0.764-1.455,1.096-1.74s0.705-0.428,1.119-0.428
	c0.578,0,1.168,0.227,1.77,0.68l-0.586,1.957c-0.43-0.305-0.848-0.457-1.254-0.457c-0.367,0-0.703,0.129-1.008,0.387
	s-0.52,0.617-0.645,1.078c-0.219,0.805-0.328,1.66-0.328,2.566v6.516H393.229z"/>
<path d="M399.123,645.276c0-2.148,0.451-3.77,1.354-4.863s2.045-1.641,3.428-1.641c1.359,0,2.496,0.547,3.41,1.641
	s1.371,2.672,1.371,4.734c0,2.234-0.449,3.898-1.348,4.992s-2.043,1.641-3.434,1.641c-1.367,0-2.506-0.549-3.416-1.646
	S399.123,647.417,399.123,645.276z M400.893,645.271c0,1.611,0.293,2.811,0.879,3.597s1.313,1.179,2.18,1.179
	c0.813,0,1.51-0.397,2.092-1.19c0.582-0.795,0.873-1.989,0.873-3.585c0-1.604-0.293-2.798-0.879-3.585
	c-0.586-0.785-1.313-1.179-2.18-1.179c-0.82,0-1.52,0.396-2.098,1.185C401.182,642.482,400.893,643.675,400.893,645.271z"/>
<path d="M410.76,651.499v-17.18h1.723v9.813l4.106-5.079h2.239l-3.903,4.621l4.29,7.824h-2.121l-3.391-6.378l-1.221,1.444v4.934
	H410.76z"/>
<path d="M427.541,647.491l1.781,0.27c-0.297,1.328-0.834,2.33-1.611,3.006s-1.74,1.014-2.889,1.014c-1.445,0-2.615-0.549-3.51-1.646
	s-1.342-2.682-1.342-4.752c0-2.148,0.451-3.787,1.354-4.916s2.045-1.693,3.428-1.693c1.32,0,2.422,0.555,3.305,1.664
	s1.324,2.715,1.324,4.816l-0.012,0.563h-7.617c0.07,1.398,0.395,2.453,0.973,3.164s1.281,1.066,2.109,1.066
	C426.131,650.046,427.033,649.194,427.541,647.491z M421.857,644.081h5.695c-0.078-1.078-0.309-1.883-0.691-2.414
	c-0.555-0.773-1.262-1.16-2.121-1.16c-0.773,0-1.434,0.322-1.98,0.967S421.912,642.987,421.857,644.081z"/>
<path d="M431.514,651.499v-12.445h1.559v1.758c0.374-0.684,0.833-1.194,1.375-1.532s1.163-0.507,1.865-0.507
	c0.546,0,1.051,0.107,1.515,0.322c0.465,0.215,0.839,0.496,1.123,0.844c0.285,0.348,0.498,0.799,0.638,1.354
	c0.141,0.555,0.211,1.406,0.211,2.555v7.652h-1.723v-7.578c0-0.915-0.078-1.584-0.234-2.007c-0.156-0.422-0.4-0.748-0.732-0.979
	c-0.332-0.23-0.717-0.346-1.154-0.346c-0.828,0-1.488,0.31-1.98,0.927c-0.492,0.618-0.738,1.678-0.738,3.18v6.804H431.514z"/>
<line display="none" fill="none" stroke="#000000" x1="300.058" y1="0" x2="300.058" y2="750"/>
<line display="none" fill="none" stroke="#000000" x1="450.097" y1="0" x2="450.097" y2="750"/>
<line display="none" fill="none" stroke="#000000" x1="0" y1="750" x2="750" y2="750"/>
<line display="none" fill="none" stroke="#000000" x1="0" y1="600" x2="750" y2="600"/>
</svg>
