<?xml version="1.0" encoding="utf-8"?>
<!-- Generator: Adobe Illustrator 14.0.0, SVG Export Plug-In  -->
<!DOCTYPE svg PUBLIC "-//W3C//DTD SVG 1.1//EN" "http://www.w3.org/Graphics/SVG/1.1/DTD/svg11.dtd" [
	<!ENTITY ns_flows "http://ns.adobe.com/Flows/1.0/">
]>
<svg version="1.1"
	 xmlns="http://www.w3.org/2000/svg" xmlns:xlink="http://www.w3.org/1999/xlink" xmlns:a="http://ns.adobe.com/AdobeSVGViewerExtensions/3.0/"
	 x="0px" y="0px" width="150px" height="150px" viewBox="450 0.5 150 150" enable-background="new 450 0.5 150 150"
	 xml:space="preserve">
<defs>
</defs>
<path fill="none" stroke="#000000" d="M451.027,80.098c0,0,5.088-14.552,8.555-21.485s15.384-17.768,15.384-17.768
	s-10.401,12.351-13.001,22.752s-10.938,50.921-10.938,50.921"/>
<path fill="none" stroke="#000000" d="M451.097,119.107c0,0,2.35-9.511,5.019-15.014c3.39-6.988,8.45-10.38,8.45-10.38
	s-6.5,10.729-8.21,19.407c-2.785,14.135-3.195,15.811-5.328,34.334"/>
<path fill="none" stroke="#000000" d="M465.259,150.5c0,0,4.225-25.917,9.707-38.995c7.459-17.792,24.293-28.708,24.293-28.708
	s-21.833,7.667-31.867,27.305c-7.388,14.459-12.503,40.399-12.503,40.399"/>
<path fill="none" stroke="#000000" d="M463.369,119.668c0,0,4.389-20.205,7.556-26.872s17.667-21.667,17.667-21.667
	s-12.754,6.188-17.561,11.926c-7.24,8.644-9.678,13.642-9.678,13.642"/>
<path fill="none" stroke="#000000" d="M472.024,150.5c0,0-2.929-3.96,0-9.379s22.847-20.538,22.847-20.538
	s-13.951,5.089-20.191,10.432c-5.212,4.462-7.712,10.177-7.712,10.177"/>
<path fill="none" stroke="#000000" d="M481.256,126.696c0,0,5.121-6.518,9.808-10.253s13.914-9.74,13.914-9.74
	s-15.085,5.419-21.383,8.934s-13.745,12.454-13.745,12.454"/>
<line display="none" fill="none" stroke="#000000" x1="450.097" y1="0.5" x2="450.097" y2="750.5"/>
<line display="none" fill="none" stroke="#000000" x1="600.02" y1="0.5" x2="600.02" y2="750.5"/>
<line display="none" fill="none" stroke="#000000" x1="0" y1="0.5" x2="750" y2="0.5"/>
<line display="none" fill="none" stroke="#000000" x1="0" y1="150.5" x2="750" y2="150.5"/>
<path d="M500.242,22.152L502,21.964c0.094,0.945,0.307,1.682,0.639,2.209s0.807,0.951,1.424,1.271s1.313,0.48,2.086,0.48
	c1.109,0,1.971-0.271,2.584-0.813c0.613-0.542,0.92-1.246,0.92-2.111c0-0.507-0.111-0.949-0.334-1.327
	c-0.223-0.378-0.559-0.688-1.008-0.93c-0.449-0.242-1.42-0.583-2.912-1.025c-1.328-0.394-2.273-0.791-2.836-1.189
	s-1-0.904-1.313-1.518s-0.469-1.307-0.469-2.08c0-1.391,0.449-2.527,1.348-3.41s2.109-1.324,3.633-1.324
	c1.047,0,1.963,0.207,2.748,0.621s1.395,1.008,1.828,1.781s0.666,1.684,0.697,2.73l-1.793,0.164
	c-0.094-1.117-0.428-1.945-1.002-2.484s-1.381-0.809-2.42-0.809c-1.055,0-1.859,0.236-2.414,0.709s-0.832,1.084-0.832,1.833
	c0,0.695,0.203,1.234,0.609,1.617s1.32,0.771,2.741,1.163c1.39,0.385,2.366,0.718,2.929,1c0.858,0.439,1.508,1.017,1.946,1.73
	c0.438,0.714,0.657,1.567,0.657,2.558c0,0.983-0.23,1.878-0.691,2.687c-0.461,0.808-1.088,1.422-1.881,1.843
	s-1.748,0.632-2.865,0.632c-1.742,0-3.131-0.523-4.166-1.57S500.281,23.941,500.242,22.152z"/>
<path d="M513.754,27.683v-17.18h1.723v6.164c0.406-0.57,0.865-0.998,1.377-1.283s1.076-0.428,1.693-0.428
	c1.086,0,1.943,0.346,2.572,1.037s0.943,1.959,0.943,3.803v7.887h-1.723v-7.887c0-1.078-0.191-1.852-0.574-2.32
	s-0.91-0.703-1.582-0.703c-0.75,0-1.389,0.301-1.916,0.902s-0.791,1.668-0.791,3.199v6.809H513.754z"/>
<path d="M524.699,27.683V15.238h1.559v1.887c0.398-0.875,0.764-1.455,1.096-1.74s0.705-0.428,1.119-0.428
	c0.578,0,1.168,0.227,1.77,0.68l-0.586,1.957c-0.43-0.305-0.848-0.457-1.254-0.457c-0.367,0-0.703,0.129-1.008,0.387
	s-0.52,0.617-0.645,1.078c-0.219,0.805-0.328,1.66-0.328,2.566v6.516H524.699z"/>
<path d="M537.93,27.683v-1.828c-0.398,0.703-0.867,1.23-1.406,1.582s-1.148,0.527-1.828,0.527c-0.805,0-1.492-0.217-2.063-0.65
	s-0.951-0.982-1.143-1.646s-0.287-1.57-0.287-2.719v-7.711h1.723v6.902c0,1.281,0.064,2.139,0.193,2.572s0.367,0.781,0.715,1.043
	s0.744,0.393,1.189,0.393c0.828,0,1.508-0.34,2.039-1.02c0.453-0.586,0.68-1.66,0.68-3.223v-6.668h1.734v12.445H537.93z"/>
<path d="M543.777,27.683h-1.605v-17.18h1.734v6.129c0.367-0.563,0.783-0.982,1.248-1.26s0.982-0.416,1.553-0.416
	c0.797,0,1.521,0.238,2.174,0.715s1.174,1.199,1.564,2.168s0.586,2.145,0.586,3.527c0,2.109-0.442,3.736-1.326,4.881
	c-0.885,1.145-1.917,1.717-3.099,1.717c-0.595,0-1.129-0.154-1.603-0.463s-0.882-0.768-1.227-1.377V27.683z M543.752,21.367
	c0,1.289,0.117,2.254,0.353,2.895c0.234,0.641,0.567,1.129,0.998,1.465s0.908,0.504,1.434,0.504c0.713,0,1.345-0.4,1.897-1.201
	c0.552-0.801,0.828-1.998,0.828-3.592c0-1.633-0.267-2.832-0.799-3.598s-1.187-1.148-1.962-1.148c-0.713,0-1.35,0.4-1.909,1.201
	C544.031,18.693,543.752,19.851,543.752,21.367z"/>
<path d="M554.723,27.683h-1.605v-17.18h1.734v6.129c0.367-0.563,0.783-0.982,1.248-1.26s0.982-0.416,1.553-0.416
	c0.797,0,1.521,0.238,2.174,0.715s1.174,1.199,1.564,2.168s0.586,2.145,0.586,3.527c0,2.109-0.442,3.736-1.326,4.881
	c-0.885,1.145-1.917,1.717-3.099,1.717c-0.595,0-1.129-0.154-1.603-0.463s-0.882-0.768-1.227-1.377V27.683z M554.697,21.367
	c0,1.289,0.117,2.254,0.353,2.895c0.234,0.641,0.567,1.129,0.998,1.465s0.908,0.504,1.434,0.504c0.713,0,1.345-0.4,1.897-1.201
	c0.552-0.801,0.828-1.998,0.828-3.592c0-1.633-0.267-2.832-0.799-3.598s-1.187-1.148-1.962-1.148c-0.713,0-1.35,0.4-1.909,1.201
	C554.977,18.693,554.697,19.851,554.697,21.367z"/>
<path d="M571.059,23.675l1.781,0.27c-0.297,1.328-0.834,2.33-1.611,3.006s-1.74,1.014-2.889,1.014c-1.445,0-2.615-0.549-3.51-1.646
	s-1.342-2.682-1.342-4.752c0-2.148,0.451-3.787,1.354-4.916s2.045-1.693,3.428-1.693c1.32,0,2.422,0.555,3.305,1.664
	s1.324,2.715,1.324,4.816L572.887,22h-7.617c0.07,1.398,0.395,2.453,0.973,3.164s1.281,1.066,2.109,1.066
	C569.648,26.23,570.551,25.378,571.059,23.675z M565.375,20.265h5.695c-0.078-1.078-0.309-1.883-0.691-2.414
	c-0.555-0.773-1.262-1.16-2.121-1.16c-0.773,0-1.434,0.322-1.98,0.967S565.43,19.171,565.375,20.265z"/>
<path d="M575.031,27.683V15.238h1.559v1.887c0.398-0.875,0.764-1.455,1.096-1.74s0.705-0.428,1.119-0.428
	c0.578,0,1.168,0.227,1.77,0.68l-0.586,1.957c-0.43-0.305-0.848-0.457-1.254-0.457c-0.367,0-0.703,0.129-1.008,0.387
	s-0.52,0.617-0.645,1.078c-0.219,0.805-0.328,1.66-0.328,2.566v6.516H575.031z"/>
<path d="M581.523,32.476l-0.188-1.98c0.383,0.125,0.712,0.188,0.985,0.188c0.367,0,0.67-0.074,0.909-0.223
	c0.238-0.149,0.436-0.379,0.592-0.692c0.055-0.109,0.281-0.798,0.681-2.067l-3.882-12.464h1.863l2.133,7.203
	c0.266,0.898,0.512,1.858,0.738,2.881c0.195-0.968,0.43-1.913,0.703-2.834l2.18-7.25h1.734l-3.872,12.656
	c-0.508,1.641-0.909,2.736-1.203,3.287c-0.293,0.551-0.625,0.947-0.997,1.189s-0.792,0.363-1.262,0.363
	C582.31,32.734,581.938,32.648,581.523,32.476z"/>
<path d="M491.945,56.342c-0.859-1.344-1.643-3-2.35-4.969s-1.061-4.074-1.061-6.316c0-3.797,1.137-7.543,3.41-11.238h1.242
	c-0.875,1.836-1.479,3.26-1.811,4.271s-0.594,2.123-0.785,3.334s-0.287,2.43-0.287,3.656c0,3.75,0.961,7.504,2.883,11.262H491.945z"
	/>
<path d="M497.066,42.702v-6.492c-0.656,0.633-1.375,1.074-2.156,1.324v-1.441c0.398-0.156,0.842-0.443,1.33-0.861
	s0.881-0.861,1.178-1.33h1.043v8.801H497.066z M496.275,51.959l10.595-18.141h1.499l-10.582,18.141H496.275z M507.648,51.655V49.85
	h-3.668v-1.441l3.885-5.555h1.178v5.73h0.984v1.266h-0.984v1.805H507.648z M507.648,48.584v-3.082l-2.203,3.082H507.648z"/>
<path d="M516.414,45.069c0-2.148,0.451-3.77,1.354-4.863s2.045-1.641,3.428-1.641c1.359,0,2.496,0.547,3.41,1.641
	s1.371,2.672,1.371,4.734c0,2.234-0.449,3.898-1.348,4.992s-2.043,1.641-3.434,1.641c-1.367,0-2.506-0.549-3.416-1.646
	S516.414,47.209,516.414,45.069z M518.184,45.063c0,1.611,0.293,2.81,0.879,3.596s1.313,1.179,2.18,1.179
	c0.813,0,1.51-0.397,2.092-1.191s0.873-1.989,0.873-3.584c0-1.604-0.293-2.798-0.879-3.584s-1.313-1.179-2.18-1.179
	c-0.82,0-1.52,0.395-2.098,1.185S518.184,43.467,518.184,45.063z"/>
<path d="M528.016,51.292V38.846h1.559v1.887c0.398-0.875,0.764-1.455,1.096-1.74s0.705-0.428,1.119-0.428
	c0.578,0,1.168,0.227,1.77,0.68l-0.586,1.957c-0.43-0.305-0.848-0.457-1.254-0.457c-0.367,0-0.703,0.129-1.008,0.387
	s-0.52,0.617-0.645,1.078c-0.219,0.805-0.328,1.66-0.328,2.566v6.516H528.016z"/>
<path d="M540.051,51.292V38.846h1.547v1.734c0.343-0.645,0.784-1.142,1.322-1.491s1.127-0.524,1.767-0.524
	c0.717,0,1.323,0.185,1.819,0.554c0.495,0.369,0.848,0.908,1.059,1.615c0.407-0.723,0.876-1.265,1.405-1.626
	c0.529-0.361,1.115-0.542,1.758-0.542c0.979,0,1.752,0.332,2.316,0.996s0.847,1.727,0.847,3.188v8.543h-1.723v-7.848
	c0-0.892-0.064-1.523-0.194-1.895c-0.13-0.372-0.34-0.659-0.631-0.862c-0.29-0.203-0.616-0.305-0.978-0.305
	c-0.746,0-1.354,0.295-1.826,0.886s-0.707,1.519-0.707,2.786v7.238h-1.723v-8.095c0-1.032-0.158-1.76-0.475-2.182
	c-0.316-0.422-0.752-0.633-1.307-0.633c-0.789,0-1.412,0.319-1.869,0.956c-0.457,0.638-0.686,1.801-0.686,3.49v6.464H540.051z"/>
<path d="M555.777,45.069c0-2.148,0.451-3.77,1.354-4.863s2.045-1.641,3.428-1.641c1.359,0,2.496,0.547,3.41,1.641
	s1.371,2.672,1.371,4.734c0,2.234-0.449,3.898-1.348,4.992s-2.043,1.641-3.434,1.641c-1.367,0-2.506-0.549-3.416-1.646
	S555.777,47.209,555.777,45.069z M557.547,45.063c0,1.611,0.293,2.81,0.879,3.596s1.313,1.179,2.18,1.179
	c0.813,0,1.51-0.397,2.092-1.191s0.873-1.989,0.873-3.584c0-1.604-0.293-2.798-0.879-3.584s-1.313-1.179-2.18-1.179
	c-0.82,0-1.52,0.395-2.098,1.185S557.547,43.467,557.547,45.063z"/>
<path d="M567.379,51.292V38.846h1.559v1.887c0.398-0.875,0.764-1.455,1.096-1.74s0.705-0.428,1.119-0.428
	c0.578,0,1.168,0.227,1.77,0.68l-0.586,1.957c-0.43-0.305-0.848-0.457-1.254-0.457c-0.367,0-0.703,0.129-1.008,0.387
	s-0.52,0.617-0.645,1.078c-0.219,0.805-0.328,1.66-0.328,2.566v6.516H567.379z"/>
<path d="M580.902,47.284l1.781,0.27c-0.297,1.328-0.834,2.33-1.611,3.006s-1.74,1.014-2.889,1.014c-1.445,0-2.615-0.549-3.51-1.646
	s-1.342-2.682-1.342-4.752c0-2.148,0.451-3.787,1.354-4.916s2.045-1.693,3.428-1.693c1.32,0,2.422,0.555,3.305,1.664
	s1.324,2.715,1.324,4.816l-0.012,0.563h-7.617c0.07,1.398,0.395,2.453,0.973,3.164s1.281,1.066,2.109,1.066
	C579.492,49.838,580.395,48.987,580.902,47.284z M575.219,43.874h5.695c-0.078-1.078-0.309-1.883-0.691-2.414
	c-0.555-0.773-1.262-1.16-2.121-1.16c-0.773,0-1.434,0.322-1.98,0.967S575.273,42.78,575.219,43.874z"/>
<path d="M585.555,56.342h-1.242c1.914-3.758,2.871-7.512,2.871-11.262c0-1.227-0.096-2.445-0.287-3.656s-0.451-2.322-0.779-3.334
	s-0.93-2.436-1.805-4.271h1.242c2.266,3.695,3.398,7.441,3.398,11.238c0,2.18-0.339,4.252-1.016,6.217
	C587.26,53.239,586.466,54.928,585.555,56.342z"/>
</svg>
