<?xml version="1.0" encoding="utf-8"?>
<!-- Generator: Adobe Illustrator 14.0.0, SVG Export Plug-In  -->
<!DOCTYPE svg PUBLIC "-//W3C//DTD SVG 1.1//EN" "http://www.w3.org/Graphics/SVG/1.1/DTD/svg11.dtd" [
	<!ENTITY ns_flows "http://ns.adobe.com/Flows/1.0/">
]>
<svg version="1.1"
	 xmlns="http://www.w3.org/2000/svg" xmlns:xlink="http://www.w3.org/1999/xlink" xmlns:a="http://ns.adobe.com/AdobeSVGViewerExtensions/3.0/"
	 x="0px" y="0px" width="150px" height="150px" viewBox="0.5 600 150 150" enable-background="new 0.5 600 150 150"
	 xml:space="preserve">
<defs>
</defs>
<path fill="none" stroke="#000000" d="M0.5,629.459c2.231-1.904,4.056,3.413,4.056,3.413s-0.635-4.443,3.095-5.158
	s4.761,4.285,4.761,4.285s-2.777-5.158,2.698-6.428s5.158,1.031,5.158,1.031"/>
<path fill="none" stroke="#FFFFFF" d="M38.681,620.851c0,0,1.744-1.151,3.728,0.436s0,8.649,0,8.649s2.857-8.094,6.507-7.459
	s4.285,6.554,4.285,6.554s5.714-5.681,8.65-3.142s-0.397,9.205-0.397,9.205s7.143-2.857,8.333-0.477s-1.032,4.603-1.032,4.603
	s3.412-1.031,4.444,1.429s0,6.983,0,6.983s0.635-4.286,2.619-4.444s1.316,4.731,1.316,4.731s4.001-2.23,5.114-1.396
	c1.395,1.047,0.55,4.923,0.55,4.923s2.239,2.748,1.153,4.062c-0.773,0.936-4.01,1.256-4.01,1.256s0.318,3.173-1.19,4.205
	s-4.126-0.714-4.126-0.714s0.159,3.571-0.873,4.841s-3.571-0.873-3.571-0.873s-0.793,3.57-1.984,3.809s-3.174-1.19-3.174-1.19"/>
<path fill="none" stroke="#000000" d="M79.273,660.429c0,0,1.856,1.021,2.015,2.608s-1.667,3.729-1.667,3.729
	s5.079,0.239,5.158,3.175c0.044,1.617-2.854,4.346-3.94,5.322c0,0,9.082-0.147,9.457,3.186s-5.077,5.915-5.077,5.915
	s6.789,0.983,6.868,3.84s-7.167,5.772-7.167,5.772s3.433,3.256,3.411,5.16s-5.218,3.106-5.218,3.106s7.143-0.477,6.031,4.603
	s-4.285,2.942-4.285,2.942s-0.08,7.142-2.54,8.491s-6.269-2.777-6.269-2.777s0.159,6.429-2.539,7.222s-4.603-3.485-4.603-3.485
	s0.873,7.856-1.587,8.809s-6.666-1.746-6.666-1.746s0.317,4.683-2.301,5.952"/>
<path fill="none" stroke="#000000" d="M88.332,699.137c0,0,0.502-2.329,1.632-2.796s2.887,2.796,2.887,2.796
	s3.138-4.839,4.644-2.796s0.933,4.872,0.933,4.872s5.585-1.186,6.321,0.152c1.511,2.746-2.197,7.689-2.197,7.689
	s5.033,3.01,4.531,4.516s-6.454,3.312-6.454,3.312s4.288,3.438,3.158,4.943s-5.63,2.883-5.63,2.883s4.204,2.422,2.824,4.18
	s-4.234,2.567-4.234,2.567s7.547,0.33,7.341,5.886c-0.158,4.248-10.534,2.713-10.534,2.713s4.895-0.251,3.891,2.887
	s-6.903,3.766-6.903,3.766s3.012,1.065,1.631,3.294"/>
<path fill="none" stroke="#000000" d="M12.9,727.251c0,0-2.887-5.898-0.627-7.781s6.275,3.449,6.275,3.449s-1.632-9.349,0.878-9.349
	s6.025,9.349,6.025,9.349s-1.004-6.713,2.636-6.713s2.008,6.713,2.008,6.713s2.636-4.077,3.891-3.826s2.008,4.394,2.008,4.394
	s1.381-5.773,2.887-5.522s1.757,5.522,1.757,5.522s2.887-7.029,5.522-5.146s1.255,7.154,1.255,7.154s5.647-4.393,6.526-1.255
	s-2.51,5.396-2.51,5.396s7.195-0.375,6.924,3.641s-6.924,4.267-6.924,4.267s5.146,5.397,1.883,6.652s-11.421-3.389-11.421-3.389
	s1.631,6.338-1.757,9.193"/>
<path fill="none" stroke="#000000" d="M13.653,665.746c0,0-2.312-3.389,0.539-4.644s4.858,3.013,4.858,3.013s1.38-7.53,2.887-7.405
	s2.636,9.915,2.636,9.915s3.159-5.648,4.466-4.958s1.308,4.958,1.308,4.958s2.887-4.894,3.263-3.012s0,4.444,0,4.444
	s3.64-0.68,3.765,0.952s-5.397,4.393-5.397,4.393"/>
<path fill="none" stroke="#000000" d="M45.784,696.341c0,0-2.259-3.483,0-4.613s5.648,2.307,5.648,2.307s-1.883-8.458,0-9.587
	s6.931,9.665,6.931,9.665s3.487-5.888,4.742-3.76s0,5.988,0,5.988s6.777,0.155,5.648,2.415s-5.271,1.757-5.271,1.757
	s4.393,5.147,0.627,5.774s-7.279-5.522-7.279-5.522"/>
<path fill="none" stroke="#000000" d="M23.918,633.99c0,0-6.824-1.119-5.951-5.245s3.888-2.301,3.888-2.301
	s-1.428-3.255,0.159-4.048s3.095,1.825,3.095,1.825s-0.476-5.077,1.587-5.157s2.539,6.125,2.539,6.125s-0.475-7.489,2.064-7.647
	s3.649,4.696,3.649,4.696s0.873-3.254,2.381-2.937s2.857,5.888,2.857,5.888"/>
<line display="none" fill="none" stroke="#000000" x1="0.5" y1="0" x2="0.5" y2="750"/>
<line display="none" fill="none" stroke="#000000" x1="150.577" y1="0" x2="150.577" y2="750"/>
<line display="none" fill="none" stroke="#000000" x1="0.5" y1="750" x2="750.5" y2="750"/>
<line display="none" fill="none" stroke="#000000" x1="0.5" y1="600" x2="750.5" y2="600"/>
<path d="M50.052,621.652l1.758-0.188c0.094,0.945,0.307,1.682,0.639,2.209s0.807,0.951,1.424,1.271s1.313,0.48,2.086,0.48
	c1.109,0,1.971-0.271,2.584-0.813s0.92-1.246,0.92-2.111c0-0.506-0.111-0.948-0.334-1.327c-0.223-0.378-0.559-0.688-1.008-0.93
	c-0.449-0.241-1.42-0.583-2.912-1.024c-1.328-0.395-2.273-0.791-2.836-1.189s-1-0.904-1.313-1.518s-0.469-1.307-0.469-2.08
	c0-1.391,0.449-2.527,1.348-3.41s2.109-1.324,3.633-1.324c1.047,0,1.963,0.207,2.748,0.621s1.395,1.008,1.828,1.781
	s0.666,1.684,0.697,2.73l-1.793,0.164c-0.094-1.117-0.428-1.945-1.002-2.484s-1.381-0.809-2.42-0.809
	c-1.055,0-1.859,0.236-2.414,0.709s-0.832,1.084-0.832,1.834c0,0.695,0.203,1.234,0.609,1.616c0.406,0.384,1.32,0.771,2.741,1.163
	c1.39,0.385,2.366,0.719,2.929,1.001c0.859,0.439,1.507,1.016,1.946,1.73c0.438,0.714,0.658,1.566,0.658,2.558
	c0,0.983-0.23,1.879-0.691,2.687s-1.088,1.422-1.881,1.844c-0.793,0.421-1.748,0.632-2.865,0.632c-1.742,0-3.131-0.523-4.166-1.57
	S50.091,623.441,50.052,621.652z"/>
<path d="M63.564,627.184v-17.18h1.723v6.164c0.406-0.57,0.865-0.998,1.377-1.283s1.076-0.428,1.693-0.428
	c1.086,0,1.943,0.346,2.572,1.037s0.943,1.959,0.943,3.803v7.887H70.15v-7.887c0-1.078-0.191-1.852-0.574-2.32
	s-0.91-0.703-1.582-0.703c-0.75,0-1.389,0.301-1.916,0.902s-0.791,1.668-0.791,3.199v6.809H63.564z"/>
<path d="M74.509,627.184v-12.445h1.559v1.887c0.398-0.875,0.764-1.455,1.096-1.74s0.705-0.428,1.119-0.428
	c0.578,0,1.168,0.227,1.77,0.68l-0.586,1.957c-0.43-0.305-0.848-0.457-1.254-0.457c-0.367,0-0.703,0.129-1.008,0.387
	s-0.52,0.617-0.645,1.078c-0.219,0.805-0.328,1.66-0.328,2.566v6.516H74.509z"/>
<path d="M87.74,627.184v-1.828c-0.398,0.703-0.867,1.23-1.406,1.582s-1.148,0.527-1.828,0.527c-0.805,0-1.492-0.217-2.063-0.65
	s-0.951-0.982-1.143-1.646s-0.287-1.57-0.287-2.719v-7.711h1.723v6.902c0,1.281,0.064,2.139,0.193,2.572s0.367,0.781,0.715,1.043
	s0.744,0.393,1.189,0.393c0.828,0,1.508-0.34,2.039-1.02c0.453-0.586,0.68-1.66,0.68-3.223v-6.668h1.734v12.445H87.74z"/>
<path d="M93.587,627.184h-1.605v-17.18h1.734v6.129c0.367-0.563,0.783-0.982,1.248-1.26s0.982-0.416,1.553-0.416
	c0.797,0,1.521,0.238,2.174,0.715s1.174,1.199,1.564,2.168s0.586,2.145,0.586,3.527c0,2.109-0.442,3.736-1.326,4.881
	c-0.884,1.145-1.917,1.717-3.099,1.717c-0.595,0-1.128-0.154-1.602-0.463s-0.882-0.768-1.227-1.377V627.184z M93.562,620.867
	c0,1.289,0.118,2.254,0.353,2.895s0.568,1.129,0.999,1.465s0.909,0.504,1.434,0.504c0.712,0,1.345-0.4,1.897-1.201
	c0.552-0.801,0.828-1.998,0.828-3.592c0-1.633-0.267-2.832-0.799-3.598c-0.533-0.766-1.187-1.148-1.962-1.148
	c-0.712,0-1.349,0.4-1.909,1.201S93.562,619.352,93.562,620.867z"/>
<path d="M104.533,627.184h-1.605v-17.18h1.734v6.129c0.367-0.563,0.783-0.982,1.248-1.26s0.982-0.416,1.553-0.416
	c0.797,0,1.521,0.238,2.174,0.715s1.174,1.199,1.564,2.168s0.586,2.145,0.586,3.527c0,2.109-0.442,3.736-1.326,4.881
	c-0.884,1.145-1.917,1.717-3.099,1.717c-0.595,0-1.128-0.154-1.602-0.463s-0.882-0.768-1.227-1.377V627.184z M104.507,620.867
	c0,1.289,0.118,2.254,0.353,2.895s0.568,1.129,0.999,1.465s0.909,0.504,1.434,0.504c0.712,0,1.345-0.4,1.897-1.201
	c0.552-0.801,0.828-1.998,0.828-3.592c0-1.633-0.267-2.832-0.799-3.598c-0.533-0.766-1.187-1.148-1.962-1.148
	c-0.712,0-1.349,0.4-1.909,1.201S104.507,619.352,104.507,620.867z"/>
<path d="M120.869,623.176l1.781,0.27c-0.297,1.328-0.834,2.33-1.611,3.006s-1.74,1.014-2.889,1.014c-1.445,0-2.615-0.549-3.51-1.646
	s-1.342-2.682-1.342-4.752c0-2.148,0.451-3.787,1.354-4.916s2.045-1.693,3.428-1.693c1.32,0,2.422,0.555,3.305,1.664
	s1.324,2.715,1.324,4.816l-0.012,0.563h-7.617c0.07,1.398,0.395,2.453,0.973,3.164s1.281,1.066,2.109,1.066
	C119.458,625.73,120.361,624.879,120.869,623.176z M115.185,619.766h5.695c-0.078-1.078-0.309-1.883-0.691-2.414
	c-0.555-0.773-1.262-1.16-2.121-1.16c-0.773,0-1.434,0.322-1.98,0.967S115.24,618.672,115.185,619.766z"/>
<path d="M124.841,627.184v-12.445h1.559v1.887c0.398-0.875,0.764-1.455,1.096-1.74s0.705-0.428,1.119-0.428
	c0.578,0,1.168,0.227,1.77,0.68l-0.586,1.957c-0.43-0.305-0.848-0.457-1.254-0.457c-0.367,0-0.703,0.129-1.008,0.387
	s-0.52,0.617-0.645,1.078c-0.219,0.805-0.328,1.66-0.328,2.566v6.516H124.841z"/>
<path d="M131.333,631.977l-0.188-1.98c0.383,0.125,0.711,0.188,0.985,0.188c0.367,0,0.67-0.074,0.909-0.223
	c0.239-0.148,0.436-0.379,0.592-0.691c0.055-0.109,0.282-0.799,0.681-2.067l-3.882-12.464h1.863l2.133,7.203
	c0.266,0.898,0.512,1.858,0.738,2.881c0.195-0.968,0.43-1.913,0.703-2.834l2.18-7.25h1.734l-3.872,12.656
	c-0.509,1.641-0.91,2.736-1.203,3.287s-0.626,0.947-0.998,1.189s-0.792,0.363-1.262,0.363
	C132.12,632.234,131.748,632.148,131.333,631.977z"/>
<path d="M41.755,655.843c-0.859-1.344-1.643-3-2.35-4.969s-1.061-4.074-1.061-6.316c0-3.797,1.137-7.543,3.41-11.238h1.242
	c-0.875,1.836-1.479,3.26-1.811,4.271s-0.594,2.123-0.785,3.334s-0.287,2.43-0.287,3.656c0,3.75,0.961,7.504,2.883,11.262H41.755z"
	/>
<path d="M46.876,642.202v-6.492c-0.656,0.633-1.375,1.074-2.156,1.324v-1.441c0.398-0.156,0.842-0.443,1.33-0.861
	s0.881-0.861,1.178-1.33h1.043v8.801H46.876z M45.851,651.46l10.595-18.141h1.499L47.363,651.46H45.851z M53.791,651.155
	c0.094-1.023,0.922-2.227,2.484-3.609c0.938-0.828,1.498-1.379,1.682-1.652s0.275-0.559,0.275-0.855
	c0-0.406-0.117-0.725-0.352-0.955s-0.559-0.346-0.973-0.346s-0.727,0.09-0.938,0.27s-0.387,0.535-0.527,1.066l-1.453-0.188
	c0.195-0.898,0.527-1.545,0.996-1.939s1.113-0.592,1.934-0.592c0.922,0,1.621,0.217,2.098,0.65s0.715,1.018,0.715,1.752
	c0,0.656-0.195,1.277-0.586,1.863c-0.289,0.43-0.938,1.09-1.945,1.98c-0.531,0.477-0.91,0.855-1.137,1.137h3.715v1.418H53.791z"/>
<path d="M66.224,644.569c0-2.148,0.451-3.77,1.354-4.863s2.045-1.641,3.428-1.641c1.359,0,2.496,0.547,3.41,1.641
	s1.371,2.672,1.371,4.734c0,2.234-0.449,3.898-1.348,4.992s-2.043,1.641-3.434,1.641c-1.367,0-2.506-0.549-3.416-1.646
	S66.224,646.71,66.224,644.569z M67.994,644.563c0,1.611,0.293,2.811,0.879,3.597s1.313,1.179,2.18,1.179
	c0.813,0,1.51-0.397,2.092-1.19c0.582-0.795,0.873-1.989,0.873-3.585c0-1.604-0.293-2.798-0.879-3.585
	c-0.586-0.785-1.313-1.179-2.18-1.179c-0.82,0-1.52,0.396-2.098,1.185C68.283,641.775,67.994,642.968,67.994,644.563z"/>
<path d="M77.826,650.792v-12.445h1.559v1.887c0.398-0.875,0.764-1.455,1.096-1.74s0.705-0.428,1.119-0.428
	c0.578,0,1.168,0.227,1.77,0.68l-0.586,1.957c-0.43-0.305-0.848-0.457-1.254-0.457c-0.367,0-0.703,0.129-1.008,0.387
	s-0.52,0.617-0.645,1.078c-0.219,0.805-0.328,1.66-0.328,2.566v6.516H77.826z"/>
<path d="M89.861,650.792v-12.445h1.547v1.734c0.343-0.645,0.784-1.142,1.322-1.491c0.538-0.35,1.127-0.524,1.767-0.524
	c0.717,0,1.324,0.185,1.819,0.554c0.496,0.369,0.848,0.907,1.059,1.614c0.407-0.723,0.876-1.265,1.405-1.626
	c0.529-0.361,1.115-0.542,1.758-0.542c0.979,0,1.752,0.332,2.316,0.996s0.847,1.727,0.847,3.188v8.543h-1.723v-7.849
	c0-0.892-0.065-1.522-0.194-1.895c-0.13-0.371-0.34-0.658-0.63-0.862c-0.291-0.203-0.617-0.305-0.978-0.305
	c-0.746,0-1.355,0.295-1.826,0.886s-0.707,1.52-0.707,2.786v7.238h-1.723v-8.095c0-1.032-0.158-1.76-0.475-2.182
	c-0.316-0.423-0.752-0.634-1.307-0.634c-0.789,0-1.412,0.318-1.869,0.956s-0.686,1.801-0.686,3.49v6.464H89.861z"/>
<path d="M105.587,644.569c0-2.148,0.451-3.77,1.354-4.863s2.045-1.641,3.428-1.641c1.359,0,2.496,0.547,3.41,1.641
	s1.371,2.672,1.371,4.734c0,2.234-0.449,3.898-1.348,4.992s-2.043,1.641-3.434,1.641c-1.367,0-2.506-0.549-3.416-1.646
	S105.587,646.71,105.587,644.569z M107.357,644.563c0,1.611,0.293,2.811,0.879,3.597s1.313,1.179,2.18,1.179
	c0.813,0,1.51-0.397,2.092-1.19c0.582-0.795,0.873-1.989,0.873-3.585c0-1.604-0.293-2.798-0.879-3.585
	c-0.586-0.785-1.313-1.179-2.18-1.179c-0.82,0-1.52,0.396-2.098,1.185C107.646,641.775,107.357,642.968,107.357,644.563z"/>
<path d="M117.189,650.792v-12.445h1.559v1.887c0.398-0.875,0.764-1.455,1.096-1.74s0.705-0.428,1.119-0.428
	c0.578,0,1.168,0.227,1.77,0.68l-0.586,1.957c-0.43-0.305-0.848-0.457-1.254-0.457c-0.367,0-0.703,0.129-1.008,0.387
	s-0.52,0.617-0.645,1.078c-0.219,0.805-0.328,1.66-0.328,2.566v6.516H117.189z"/>
<path d="M130.712,646.784l1.781,0.27c-0.297,1.328-0.834,2.33-1.611,3.006s-1.74,1.014-2.889,1.014c-1.445,0-2.615-0.549-3.51-1.646
	s-1.342-2.682-1.342-4.752c0-2.148,0.451-3.787,1.354-4.916s2.045-1.693,3.428-1.693c1.32,0,2.422,0.555,3.305,1.664
	s1.324,2.715,1.324,4.816l-0.012,0.563h-7.617c0.07,1.398,0.395,2.453,0.973,3.164s1.281,1.066,2.109,1.066
	C129.302,649.339,130.205,648.487,130.712,646.784z M125.029,643.374h5.695c-0.078-1.078-0.309-1.883-0.691-2.414
	c-0.555-0.773-1.262-1.16-2.121-1.16c-0.773,0-1.434,0.322-1.98,0.967S125.083,642.28,125.029,643.374z"/>
<path d="M135.365,655.843h-1.242c1.914-3.758,2.871-7.512,2.871-11.262c0-1.227-0.096-2.445-0.287-3.656s-0.451-2.322-0.779-3.334
	s-0.93-2.436-1.805-4.271h1.242c2.266,3.695,3.398,7.441,3.398,11.238c0,2.18-0.339,4.252-1.016,6.217
	S136.275,654.429,135.365,655.843z"/>
</svg>
