<?xml version="1.0" encoding="utf-8"?>
<!-- Generator: Adobe Illustrator 14.0.0, SVG Export Plug-In  -->
<!DOCTYPE svg PUBLIC "-//W3C//DTD SVG 1.1//EN" "http://www.w3.org/Graphics/SVG/1.1/DTD/svg11.dtd" [
	<!ENTITY ns_flows "http://ns.adobe.com/Flows/1.0/">
]>
<svg version="1.1"
	 xmlns="http://www.w3.org/2000/svg" xmlns:xlink="http://www.w3.org/1999/xlink" xmlns:a="http://ns.adobe.com/AdobeSVGViewerExtensions/3.0/"
	 x="0px" y="0px" width="150px" height="150px" viewBox="150 0.5 150 150" enable-background="new 150 0.5 150 150"
	 xml:space="preserve">
<defs>
</defs>
<polyline fill="none" stroke="#636466" stroke-width="7" stroke-linecap="round" points="250.911,101.5 238.295,94.674 
	221.955,98.398 234.985,108.436 238.295,124.873 "/>
<path fill="none" stroke="#636466" stroke-width="10" stroke-linecap="round" d="M209.376,83.615c0,0,2.275,4.196,5.378,7.505
	c3.103,3.31,10.46,7.89,10.46,7.89"/>
<path fill="none" stroke="#636466" stroke-width="5" stroke-linecap="round" d="M208.549,83.615c0,0,8.515-2.601,12.204-4.904
	c4.461-2.786,7.445-8.529,7.445-8.529"/>
<path fill="none" stroke="#636466" stroke-width="5" stroke-linecap="round" d="M220.491,63.26c0,0,0,4.732-2.118,8.49
	c-2.813,4.99-8.998,10.477-8.998,10.477"/>
<circle fill="#636466" cx="203.594" cy="71.889" r="6.958"/>
<path fill="none" stroke="#636466" d="M228.431,57.638c0,0,2.386-0.557,8.927,1.809c6.541,2.366,8.35,6.819,8.35,6.819"/>
<path fill="none" stroke="#636466" d="M239.649,56.524c0,0,3.414-0.279,8.702,4.592c5.289,4.87,5.01,8.628,5.01,8.628"/>
<path fill="none" stroke="#636466" d="M250.434,119.372c0,0,0.23,0.791,0,2.173c-0.23,1.382-1.053,2.633-1.053,2.633"/>
<path fill="none" stroke="#636466" d="M252.278,116.87c0,0,0.494,0.296,0.592,2.074c0.099,1.777-0.592,2.666-0.592,2.666"/>
<path fill="#636466" d="M235.786,131.403c0.18,0.06,6.142,0,6.142,0l4.456-2.831l-0.723,2.857l3.804-0.689l-3.804,2.47l0.663,1.686
	l-2.167-0.663l-4.396,2.289l-1.204-1.687l-4.877,0.482l1.683-1.867l-1.382-2.71L235.786,131.403z"/>
<line display="none" fill="none" stroke="#000000" x1="150.077" y1="0.5" x2="150.077" y2="750.5"/>
<line display="none" fill="none" stroke="#000000" x1="300.058" y1="0.5" x2="300.058" y2="750.5"/>
<line display="none" fill="none" stroke="#000000" x1="0" y1="0.5" x2="750" y2="0.5"/>
<line display="none" fill="none" stroke="#000000" x1="0" y1="150.5" x2="750" y2="150.5"/>
<path d="M158.057,22.152l1.758-0.188c0.094,0.945,0.307,1.682,0.639,2.209s0.807,0.951,1.424,1.271s1.313,0.48,2.086,0.48
	c1.109,0,1.971-0.271,2.584-0.813c0.613-0.542,0.92-1.246,0.92-2.111c0-0.507-0.111-0.949-0.334-1.327
	c-0.223-0.378-0.559-0.688-1.008-0.93c-0.449-0.242-1.42-0.583-2.912-1.025c-1.328-0.394-2.273-0.791-2.836-1.189
	s-1-0.904-1.313-1.518s-0.469-1.307-0.469-2.08c0-1.391,0.449-2.527,1.348-3.41s2.109-1.324,3.633-1.324
	c1.047,0,1.963,0.207,2.748,0.621s1.395,1.008,1.828,1.781s0.666,1.684,0.697,2.73l-1.793,0.164
	c-0.094-1.117-0.428-1.945-1.002-2.484s-1.381-0.809-2.42-0.809c-1.055,0-1.859,0.236-2.414,0.709s-0.832,1.084-0.832,1.833
	c0,0.695,0.203,1.234,0.609,1.617s1.32,0.771,2.741,1.163c1.39,0.385,2.366,0.718,2.929,1c0.859,0.439,1.507,1.017,1.946,1.73
	c0.438,0.714,0.658,1.567,0.658,2.558c0,0.983-0.23,1.878-0.691,2.687c-0.461,0.808-1.088,1.422-1.881,1.843
	s-1.748,0.632-2.865,0.632c-1.742,0-3.131-0.523-4.166-1.57S158.096,23.941,158.057,22.152z"/>
<path d="M171.51,27.683v-17.18h1.723v17.18H171.51z"/>
<path d="M175.939,12.929v-2.426h1.723v2.426H175.939z M175.939,27.683V15.238h1.723v12.445H175.939z"/>
<path d="M180.311,32.453V15.238h1.594v1.617c0.39-0.672,0.823-1.156,1.299-1.453c0.476-0.297,1.021-0.445,1.638-0.445
	c0.804,0,1.529,0.238,2.176,0.715s1.168,1.201,1.562,2.174c0.394,0.973,0.591,2.143,0.591,3.51c0,2.117-0.443,3.748-1.33,4.893
	s-1.928,1.717-3.123,1.717c-0.531,0-1.027-0.137-1.488-0.41s-0.859-0.66-1.195-1.16v6.059H180.311z M181.883,21.531
	c0,1.609,0.269,2.795,0.807,3.557s1.188,1.143,1.952,1.143c0.732,0,1.375-0.395,1.929-1.184s0.83-2.008,0.83-3.656
	c0-1.625-0.269-2.828-0.807-3.609s-1.192-1.172-1.964-1.172c-0.693,0-1.325,0.42-1.894,1.26
	C182.167,18.708,181.883,19.929,181.883,21.531z"/>
<path d="M191.256,32.453V15.238h1.594v1.617c0.39-0.672,0.823-1.156,1.299-1.453c0.476-0.297,1.021-0.445,1.638-0.445
	c0.804,0,1.529,0.238,2.176,0.715s1.168,1.201,1.562,2.174c0.394,0.973,0.591,2.143,0.591,3.51c0,2.117-0.443,3.748-1.33,4.893
	s-1.928,1.717-3.123,1.717c-0.531,0-1.027-0.137-1.488-0.41s-0.859-0.66-1.195-1.16v6.059H191.256z M192.828,21.531
	c0,1.609,0.269,2.795,0.807,3.557s1.188,1.143,1.952,1.143c0.732,0,1.375-0.395,1.929-1.184s0.83-2.008,0.83-3.656
	c0-1.625-0.269-2.828-0.807-3.609s-1.192-1.172-1.964-1.172c-0.693,0-1.325,0.42-1.894,1.26
	C193.112,18.708,192.828,19.929,192.828,21.531z"/>
<path d="M202.201,12.929v-2.426h1.723v2.426H202.201z M202.201,27.683V15.238h1.723v12.445H202.201z"/>
<path d="M206.572,27.683V15.238h1.559v1.758c0.374-0.683,0.833-1.194,1.375-1.532c0.542-0.338,1.164-0.507,1.866-0.507
	c0.546,0,1.051,0.107,1.515,0.322c0.464,0.215,0.838,0.496,1.123,0.844s0.497,0.799,0.638,1.354c0.14,0.555,0.21,1.406,0.21,2.555
	v7.652h-1.723v-7.579c0-0.915-0.078-1.583-0.234-2.006s-0.4-0.749-0.732-0.979c-0.332-0.231-0.717-0.346-1.154-0.346
	c-0.828,0-1.488,0.309-1.98,0.927s-0.738,1.678-0.738,3.179v6.804H206.572z"/>
<path d="M217.178,28.714l1.688,0.305c0.078,0.668,0.313,1.165,0.703,1.491S220.502,31,221.197,31c0.758,0,1.361-0.182,1.811-0.545
	s0.756-0.905,0.92-1.624c0.102-0.438,0.152-1.359,0.152-2.766c-0.375,0.535-0.797,0.938-1.266,1.21
	c-0.469,0.271-0.988,0.407-1.559,0.407c-1.219,0-2.23-0.516-3.035-1.547c-0.922-1.188-1.383-2.777-1.383-4.77
	c0-1.336,0.203-2.504,0.609-3.504s0.939-1.734,1.6-2.203s1.4-0.703,2.221-0.703c0.602,0,1.15,0.147,1.646,0.442
	s0.936,0.737,1.318,1.327v-1.488h1.594v10.758c0,1.914-0.156,3.279-0.469,4.096s-0.824,1.461-1.535,1.934s-1.566,0.709-2.566,0.709
	c-1.32,0-2.336-0.355-3.047-1.066S217.154,29.972,217.178,28.714z M218.607,21.238c0,1.637,0.27,2.832,0.81,3.583
	c0.541,0.752,1.202,1.128,1.985,1.128c0.783,0,1.448-0.368,1.996-1.104c0.548-0.736,0.822-1.907,0.822-3.513
	c0-1.566-0.282-2.731-0.846-3.495s-1.249-1.146-2.055-1.146c-0.721,0-1.353,0.382-1.897,1.146
	C218.879,18.6,218.607,19.734,218.607,21.238z"/>
<path d="M233.936,27.683v-17.18h1.723v6.164c0.406-0.57,0.865-0.998,1.377-1.283s1.076-0.428,1.693-0.428
	c1.086,0,1.943,0.346,2.572,1.037s0.943,1.959,0.943,3.803v7.887h-1.723v-7.887c0-1.078-0.191-1.852-0.574-2.32
	s-0.91-0.703-1.582-0.703c-0.75,0-1.389,0.301-1.916,0.902s-0.791,1.668-0.791,3.199v6.809H233.936z"/>
<path d="M251.525,26.148c-0.578,0.602-1.18,1.055-1.805,1.359s-1.273,0.457-1.945,0.457c-1.063,0-1.91-0.32-2.543-0.961
	s-0.949-1.504-0.949-2.59c0-0.719,0.148-1.355,0.445-1.91s0.703-0.988,1.219-1.301s1.297-0.543,2.344-0.691
	c1.406-0.207,2.438-0.453,3.094-0.738l0.012-0.539c0-0.852-0.152-1.449-0.457-1.793c-0.43-0.5-1.09-0.75-1.98-0.75
	c-0.805,0-1.406,0.167-1.805,0.5c-0.398,0.334-0.691,0.96-0.879,1.878l-1.699-0.281c0.242-1.336,0.732-2.309,1.471-2.918
	s1.795-0.914,3.17-0.914c1.07,0,1.91,0.201,2.52,0.604s0.994,0.9,1.154,1.494s0.24,1.461,0.24,2.602v2.813
	c0,1.969,0.037,3.209,0.111,3.721s0.221,1.01,0.439,1.494h-1.805C251.697,27.253,251.58,26.742,251.525,26.148z M251.385,21.437
	c-0.633,0.313-1.574,0.578-2.824,0.797c-0.727,0.125-1.234,0.268-1.523,0.428s-0.514,0.387-0.674,0.68s-0.24,0.631-0.24,1.014
	c0,0.594,0.184,1.068,0.551,1.424s0.875,0.533,1.523,0.533c0.617,0,1.178-0.16,1.682-0.48s0.881-0.748,1.131-1.283
	s0.375-1.314,0.375-2.338V21.437z"/>
<path d="M254.936,27.683v-1.711l6.509-9.094c-0.743,0.047-1.396,0.07-1.958,0.07h-4.164v-1.711h8.355v1.395l-5.543,7.898
	l-1.068,1.441c0.773-0.07,1.5-0.105,2.18-0.105h4.724v1.816H254.936z"/>
<path d="M272.314,26.148c-0.578,0.602-1.18,1.055-1.805,1.359s-1.273,0.457-1.945,0.457c-1.063,0-1.91-0.32-2.543-0.961
	s-0.949-1.504-0.949-2.59c0-0.719,0.148-1.355,0.445-1.91s0.703-0.988,1.219-1.301s1.297-0.543,2.344-0.691
	c1.406-0.207,2.438-0.453,3.094-0.738l0.012-0.539c0-0.852-0.152-1.449-0.457-1.793c-0.43-0.5-1.09-0.75-1.98-0.75
	c-0.805,0-1.406,0.167-1.805,0.5c-0.398,0.334-0.691,0.96-0.879,1.878l-1.699-0.281c0.242-1.336,0.732-2.309,1.471-2.918
	s1.795-0.914,3.17-0.914c1.07,0,1.91,0.201,2.52,0.604s0.994,0.9,1.154,1.494s0.24,1.461,0.24,2.602v2.813
	c0,1.969,0.037,3.209,0.111,3.721s0.221,1.01,0.439,1.494h-1.805C272.486,27.253,272.369,26.742,272.314,26.148z M272.174,21.437
	c-0.633,0.313-1.574,0.578-2.824,0.797c-0.727,0.125-1.234,0.268-1.523,0.428s-0.514,0.387-0.674,0.68s-0.24,0.631-0.24,1.014
	c0,0.594,0.184,1.068,0.551,1.424s0.875,0.533,1.523,0.533c0.617,0,1.178-0.16,1.682-0.48s0.881-0.748,1.131-1.283
	s0.375-1.314,0.375-2.338V21.437z"/>
<path d="M276.615,27.683V15.238h1.559v1.887c0.398-0.875,0.764-1.455,1.096-1.74s0.705-0.428,1.119-0.428
	c0.578,0,1.168,0.227,1.77,0.68l-0.586,1.957c-0.43-0.305-0.848-0.457-1.254-0.457c-0.367,0-0.703,0.129-1.008,0.387
	s-0.52,0.617-0.645,1.078c-0.219,0.805-0.328,1.66-0.328,2.566v6.516H276.615z"/>
<path d="M289.775,27.683v-1.57c-0.313,0.602-0.715,1.061-1.207,1.377s-1.023,0.475-1.594,0.475c-1.203,0-2.244-0.568-3.123-1.705
	s-1.318-2.736-1.318-4.799c0-1.414,0.195-2.613,0.585-3.598c0.39-0.984,0.911-1.715,1.562-2.191c0.651-0.477,1.375-0.715,2.17-0.715
	c0.569,0,1.098,0.15,1.585,0.451s0.891,0.721,1.211,1.26v-6.164h1.746v17.18H289.775z M284.303,21.472
	c0,1.609,0.279,2.805,0.838,3.586s1.21,1.172,1.953,1.172c0.734,0,1.372-0.375,1.911-1.125s0.809-1.883,0.809-3.398
	c0-1.742-0.27-3.014-0.809-3.814s-1.22-1.201-2.041-1.201c-0.727,0-1.353,0.385-1.876,1.154
	C284.564,18.615,284.303,19.824,284.303,21.472z"/>
</svg>
