<?xml version="1.0" encoding="utf-8"?>
<!-- Generator: Adobe Illustrator 14.0.0, SVG Export Plug-In  -->
<!DOCTYPE svg PUBLIC "-//W3C//DTD SVG 1.1//EN" "http://www.w3.org/Graphics/SVG/1.1/DTD/svg11.dtd" [
	<!ENTITY ns_flows "http://ns.adobe.com/Flows/1.0/">
]>
<svg version="1.1"
	 xmlns="http://www.w3.org/2000/svg" xmlns:xlink="http://www.w3.org/1999/xlink" xmlns:a="http://ns.adobe.com/AdobeSVGViewerExtensions/3.0/"
	 x="0px" y="0px" width="150px" height="150px" viewBox="450 300 150 150" enable-background="new 450 300 150 150"
	 xml:space="preserve">
<defs>
</defs>
<polyline fill="none" stroke="#000000" points="466.762,436.17 475.892,420.833 577.759,423.632 583.238,435.61 "/>
<polygon fill="none" stroke="#000000" points="481.234,412.884 577.759,423.632 570.527,398.982 498.694,391.29 "/>
<polygon fill="none" stroke="#000000" points="570.527,398.982 499.719,389.407 505.104,378.954 568.932,384.655 "/>
<polyline fill="none" stroke="#000000" points="537.268,381.827 568.457,379.746 561.646,376.42 513.987,379.748 "/>
<line fill="none" stroke="#000000" x1="516.824" y1="367.492" x2="508.197" y2="379.23"/>
<line fill="none" stroke="#000000" x1="561.171" y1="376.42" x2="554.043" y2="367.492"/>
<line display="none" fill="none" stroke="#000000" x1="450.097" y1="0" x2="450.097" y2="750"/>
<line display="none" fill="none" stroke="#000000" x1="600.02" y1="0" x2="600.02" y2="750"/>
<line display="none" fill="none" stroke="#000000" x1="0" y1="300" x2="750" y2="300"/>
<line display="none" fill="none" stroke="#000000" x1="0" y1="450" x2="750" y2="450"/>
<path d="M501.809,310.004h1.863v9.926c0,1.664-0.162,3.029-0.486,4.096c-0.323,1.066-0.912,1.908-1.768,2.525
	c-0.854,0.617-1.941,0.926-3.26,0.926c-1.857,0-3.248-0.555-4.174-1.664c-0.924-1.109-1.387-3.07-1.387-5.883v-9.926h1.863v9.914
	c0,1.555,0.121,2.68,0.363,3.375s0.639,1.225,1.189,1.588s1.221,0.545,2.01,0.545c1.328,0,2.291-0.375,2.889-1.125
	s0.896-2.211,0.896-4.383V310.004z"/>
<path d="M506.566,327.184v-12.445h1.559v1.758c0.374-0.684,0.832-1.194,1.375-1.532c0.541-0.338,1.164-0.507,1.865-0.507
	c0.546,0,1.051,0.107,1.516,0.322c0.463,0.215,0.838,0.496,1.123,0.844c0.284,0.348,0.496,0.799,0.637,1.354
	s0.211,1.406,0.211,2.555v7.652h-1.723v-7.578c0-0.915-0.078-1.584-0.234-2.007c-0.156-0.422-0.4-0.748-0.732-0.979
	c-0.332-0.231-0.717-0.347-1.154-0.347c-0.828,0-1.488,0.31-1.98,0.927c-0.492,0.618-0.738,1.678-0.738,3.18v6.804H506.566z"/>
<path d="M524.484,323.176l1.781,0.27c-0.297,1.328-0.834,2.33-1.611,3.006s-1.74,1.014-2.889,1.014c-1.445,0-2.615-0.549-3.51-1.646
	s-1.342-2.682-1.342-4.752c0-2.148,0.451-3.787,1.354-4.916s2.045-1.693,3.428-1.693c1.32,0,2.422,0.555,3.305,1.664
	s1.324,2.715,1.324,4.816l-0.012,0.563h-7.617c0.07,1.398,0.395,2.453,0.973,3.164s1.281,1.066,2.109,1.066
	C523.074,325.73,523.977,324.879,524.484,323.176z M518.801,319.766h5.695c-0.078-1.078-0.309-1.883-0.691-2.414
	c-0.555-0.773-1.262-1.16-2.121-1.16c-0.773,0-1.434,0.322-1.98,0.967S518.855,318.672,518.801,319.766z"/>
<path d="M531.309,327.184l-3.883-12.445h1.828l2.195,7.453c0.251,0.844,0.471,1.68,0.658,2.508c0.148-0.656,0.359-1.445,0.635-2.367
	l2.277-7.594h1.781l-3.882,12.445H531.309z"/>
<path d="M545.273,323.176l1.781,0.27c-0.297,1.328-0.834,2.33-1.611,3.006s-1.74,1.014-2.889,1.014c-1.445,0-2.615-0.549-3.51-1.646
	s-1.342-2.682-1.342-4.752c0-2.148,0.451-3.787,1.354-4.916s2.045-1.693,3.428-1.693c1.32,0,2.422,0.555,3.305,1.664
	s1.324,2.715,1.324,4.816l-0.012,0.563h-7.617c0.07,1.398,0.395,2.453,0.973,3.164s1.281,1.066,2.109,1.066
	C543.863,325.73,544.766,324.879,545.273,323.176z M539.59,319.766h5.695c-0.078-1.078-0.309-1.883-0.691-2.414
	c-0.555-0.773-1.262-1.16-2.121-1.16c-0.773,0-1.434,0.322-1.98,0.967S539.645,318.672,539.59,319.766z"/>
<path d="M549.246,327.184v-12.445h1.559v1.758c0.374-0.684,0.832-1.194,1.375-1.532c0.541-0.338,1.164-0.507,1.865-0.507
	c0.546,0,1.051,0.107,1.516,0.322c0.463,0.215,0.838,0.496,1.123,0.844c0.284,0.348,0.496,0.799,0.637,1.354
	s0.211,1.406,0.211,2.555v7.652h-1.723v-7.578c0-0.915-0.078-1.584-0.234-2.007c-0.156-0.422-0.4-0.748-0.732-0.979
	c-0.332-0.231-0.717-0.347-1.154-0.347c-0.828,0-1.488,0.31-1.98,0.927c-0.492,0.618-0.738,1.678-0.738,3.18v6.804H549.246z"/>
<path d="M487.875,347.065l1.723-0.328c0.102,0.879,0.378,1.532,0.83,1.96s1.053,0.642,1.801,0.642s1.326-0.186,1.736-0.557
	c0.408-0.371,0.613-0.842,0.613-1.412c0-0.492-0.176-0.875-0.527-1.148c-0.242-0.188-0.828-0.422-1.758-0.703
	c-1.344-0.414-2.242-0.766-2.695-1.055s-0.805-0.676-1.055-1.16s-0.375-1.035-0.375-1.652c0-1.063,0.34-1.926,1.02-2.59
	s1.621-0.996,2.824-0.996c0.758,0,1.424,0.137,1.998,0.41s1.014,0.641,1.318,1.102s0.516,1.121,0.633,1.98l-1.688,0.281
	c-0.156-1.359-0.895-2.039-2.215-2.039c-0.75,0-1.309,0.15-1.676,0.449c-0.367,0.3-0.551,0.684-0.551,1.149
	c0,0.46,0.176,0.821,0.528,1.086c0.212,0.155,0.837,0.404,1.878,0.747c1.432,0.454,2.357,0.816,2.778,1.086s0.747,0.638,0.981,1.104
	c0.232,0.466,0.35,1.02,0.35,1.661c0,1.189-0.377,2.152-1.131,2.888c-0.754,0.736-1.783,1.104-3.088,1.104
	C489.684,351.073,488.266,349.737,487.875,347.065z"/>
<path d="M498.387,336.038v-2.426h1.723v2.426H498.387z M498.387,350.792v-12.445h1.723v12.445H498.387z"/>
<path d="M509.367,350.792v-1.57c-0.313,0.602-0.715,1.061-1.207,1.377s-1.023,0.475-1.594,0.475c-1.203,0-2.244-0.568-3.123-1.705
	s-1.318-2.736-1.318-4.799c0-1.414,0.195-2.613,0.585-3.598s0.911-1.715,1.562-2.191c0.651-0.477,1.375-0.715,2.17-0.715
	c0.57,0,1.099,0.15,1.586,0.451s0.891,0.721,1.211,1.26v-6.164h1.746v17.18H509.367z M503.895,344.581
	c0,1.609,0.279,2.805,0.838,3.586c0.56,0.781,1.211,1.172,1.953,1.172c0.734,0,1.371-0.375,1.911-1.125s0.81-1.883,0.81-3.398
	c0-1.742-0.27-3.014-0.81-3.814s-1.22-1.201-2.04-1.201c-0.728,0-1.354,0.385-1.877,1.154S503.895,342.933,503.895,344.581z"/>
<path d="M520.676,346.784l1.781,0.27c-0.297,1.328-0.834,2.33-1.611,3.006s-1.74,1.014-2.889,1.014c-1.445,0-2.615-0.549-3.51-1.646
	s-1.342-2.682-1.342-4.752c0-2.148,0.451-3.787,1.354-4.916s2.045-1.693,3.428-1.693c1.32,0,2.422,0.555,3.305,1.664
	s1.324,2.715,1.324,4.816l-0.012,0.563h-7.617c0.07,1.398,0.395,2.453,0.973,3.164s1.281,1.066,2.109,1.066
	C519.266,349.339,520.168,348.487,520.676,346.784z M514.992,343.374h5.695c-0.078-1.078-0.309-1.883-0.691-2.414
	c-0.555-0.773-1.262-1.16-2.121-1.16c-0.773,0-1.434,0.322-1.98,0.967S515.047,342.28,514.992,343.374z"/>
<path d="M526.529,350.792l-3.135-12.445h1.788l1.625,7.184l0.601,2.672l0.54-2.566l1.618-7.289h1.786l1.519,7.219l0.514,2.379
	l0.584-2.402l1.742-7.195h1.688l-3.186,12.445h-1.801l-1.629-7.453l-0.387-2.121l-2.063,9.574H526.529z"/>
<path d="M545.496,349.257c-0.578,0.602-1.18,1.055-1.805,1.359s-1.273,0.457-1.945,0.457c-1.063,0-1.91-0.32-2.543-0.961
	s-0.949-1.504-0.949-2.59c0-0.719,0.148-1.355,0.445-1.91s0.703-0.988,1.219-1.301s1.297-0.543,2.344-0.691
	c1.406-0.207,2.438-0.453,3.094-0.738l0.012-0.539c0-0.852-0.152-1.449-0.457-1.793c-0.43-0.5-1.09-0.75-1.98-0.75
	c-0.805,0-1.406,0.167-1.805,0.5c-0.398,0.334-0.691,0.961-0.879,1.879l-1.699-0.281c0.242-1.336,0.732-2.309,1.471-2.918
	s1.795-0.914,3.17-0.914c1.07,0,1.91,0.201,2.52,0.604s0.994,0.9,1.154,1.494s0.24,1.461,0.24,2.602v2.813
	c0,1.969,0.037,3.209,0.111,3.721s0.221,1.01,0.439,1.494h-1.805C545.668,350.362,545.551,349.851,545.496,349.257z
	 M545.355,344.546c-0.633,0.313-1.574,0.578-2.824,0.797c-0.727,0.125-1.234,0.268-1.523,0.428s-0.514,0.387-0.674,0.68
	s-0.24,0.631-0.24,1.014c0,0.594,0.184,1.068,0.551,1.424s0.875,0.533,1.523,0.533c0.617,0,1.178-0.16,1.682-0.48
	s0.881-0.748,1.131-1.283s0.375-1.314,0.375-2.338V344.546z"/>
<path d="M549.738,350.792v-17.18h1.723v17.18H549.738z"/>
<path d="M554.203,350.792v-17.18h1.723v9.813l4.105-5.078h2.24l-3.904,4.621l4.291,7.824h-2.121l-3.391-6.379l-1.221,1.445v4.934
	H554.203z"/>
</svg>
