<?xml version="1.0" encoding="utf-8"?>
<!-- Generator: Adobe Illustrator 14.0.0, SVG Export Plug-In  -->
<!DOCTYPE svg PUBLIC "-//W3C//DTD SVG 1.1//EN" "http://www.w3.org/Graphics/SVG/1.1/DTD/svg11.dtd" [
	<!ENTITY ns_flows "http://ns.adobe.com/Flows/1.0/">
]>
<svg version="1.1"
	 xmlns="http://www.w3.org/2000/svg" xmlns:xlink="http://www.w3.org/1999/xlink" xmlns:a="http://ns.adobe.com/AdobeSVGViewerExtensions/3.0/"
	 x="0px" y="0px" width="150px" height="150px" viewBox="600 300 150 150" enable-background="new 600 300 150 150"
	 xml:space="preserve">
<defs>
</defs>
<line fill="none" stroke="#000000" x1="720.646" y1="430.597" x2="720.646" y2="339.742"/>
<line fill="none" stroke="#000000" x1="702.857" y1="339.742" x2="739.708" y2="339.742"/>
<line fill="none" stroke="#000000" x1="713.831" y1="339.742" x2="720.646" y2="348.066"/>
<line fill="none" stroke="#000000" x1="727.589" y1="339.742" x2="720.773" y2="348.066"/>
<line fill="none" stroke="#000000" stroke-linecap="round" x1="705.682" y1="339.422" x2="705.682" y2="338.027"/>
<line fill="none" stroke="#000000" stroke-linecap="round" x1="708.513" y1="339.422" x2="708.513" y2="338.027"/>
<line fill="none" stroke="#000000" stroke-linecap="round" x1="734.731" y1="339.422" x2="734.731" y2="338.027"/>
<line fill="none" stroke="#000000" stroke-linecap="round" x1="737.563" y1="339.422" x2="737.563" y2="338.027"/>
<polyline fill="none" stroke="#000000" stroke-width="0.5" points="713.831,299.917 737.563,338.027 750,354.147 "/>
<polyline fill="none" stroke="#000000" stroke-width="0.5" points="706.258,299.917 734.731,338.027 750.095,356.522 "/>
<polyline fill="none" stroke="#000000" stroke-width="0.5" points="665.639,299.917 708.513,338.027 750.095,365.712 "/>
<polyline fill="none" stroke="#000000" stroke-width="0.5" points="655.187,299.917 705.682,338.027 750.095,367.975 "/>
<line display="none" fill="none" stroke="#000000" x1="750" y1="0" x2="750" y2="750"/>
<line display="none" fill="none" stroke="#000000" x1="600.02" y1="0" x2="600.02" y2="750"/>
<line display="none" fill="none" stroke="#000000" x1="0" y1="300" x2="750" y2="300"/>
<line display="none" fill="none" stroke="#000000" x1="0" y1="450" x2="750" y2="450"/>
<path d="M623.576,369.392h1.863v9.926c0,1.664-0.162,3.029-0.486,4.096s-0.914,1.908-1.768,2.525
	c-0.855,0.617-1.941,0.926-3.26,0.926c-1.857,0-3.25-0.555-4.174-1.664c-0.926-1.109-1.387-3.07-1.387-5.883v-9.926h1.863v9.914
	c0,1.555,0.121,2.68,0.363,3.375s0.639,1.225,1.189,1.588s1.221,0.545,2.01,0.545c1.328,0,2.291-0.375,2.889-1.125
	s0.896-2.211,0.896-4.383V369.392z"/>
<path d="M632.178,384.685l0.234,1.863c-0.477,0.125-0.906,0.188-1.289,0.188c-0.602,0-1.086-0.119-1.453-0.357
	s-0.619-0.564-0.756-0.979s-0.205-1.238-0.205-2.473v-7.16h-1.266v-1.641h1.266v-3.082l1.723-1.266v4.348h1.746v1.641h-1.746v7.277
	c0,0.672,0.051,1.105,0.152,1.301c0.148,0.281,0.426,0.422,0.832,0.422C631.611,384.767,631.865,384.739,632.178,384.685z"/>
<path d="M633.807,371.817v-2.426h1.723v2.426H633.807z M633.807,386.571v-12.445h1.723v12.445H633.807z"/>
<path d="M638.119,386.571v-17.18h1.723v17.18H638.119z"/>
<path d="M642.549,371.817v-2.426h1.723v2.426H642.549z M642.549,386.571v-12.445h1.723v12.445H642.549z"/>
<path d="M650.764,384.685l0.234,1.863c-0.477,0.125-0.906,0.188-1.289,0.188c-0.602,0-1.086-0.119-1.453-0.357
	s-0.619-0.564-0.756-0.979s-0.205-1.238-0.205-2.473v-7.16h-1.266v-1.641h1.266v-3.082l1.723-1.266v4.348h1.746v1.641h-1.746v7.277
	c0,0.672,0.051,1.105,0.152,1.301c0.148,0.281,0.426,0.422,0.832,0.422C650.197,384.767,650.451,384.739,650.764,384.685z"/>
<path d="M652.334,391.364l-0.188-1.98c0.383,0.125,0.711,0.188,0.984,0.188c0.367,0,0.67-0.074,0.91-0.223
	c0.238-0.149,0.436-0.38,0.592-0.692c0.055-0.109,0.281-0.798,0.68-2.067l-3.881-12.463h1.863l2.133,7.203
	c0.266,0.897,0.512,1.857,0.738,2.881c0.195-0.969,0.43-1.913,0.703-2.834l2.18-7.25h1.734l-3.873,12.656
	c-0.508,1.641-0.908,2.736-1.203,3.287c-0.293,0.551-0.625,0.947-0.996,1.189c-0.373,0.242-0.793,0.363-1.262,0.363
	C653.119,391.622,652.748,391.536,652.334,391.364z"/>
<path d="M667.709,391.341v-17.215h1.594v1.617c0.389-0.672,0.822-1.156,1.299-1.453c0.475-0.297,1.021-0.445,1.637-0.445
	c0.805,0,1.529,0.238,2.178,0.715c0.646,0.477,1.166,1.201,1.561,2.174s0.592,2.143,0.592,3.51c0,2.117-0.443,3.748-1.33,4.893
	s-1.928,1.717-3.123,1.717c-0.531,0-1.027-0.137-1.488-0.41s-0.859-0.66-1.195-1.16v6.059H667.709z M669.281,380.419
	c0,1.609,0.268,2.795,0.807,3.557c0.537,0.762,1.188,1.143,1.951,1.143c0.732,0,1.375-0.395,1.93-1.184
	c0.553-0.789,0.83-2.008,0.83-3.656c0-1.625-0.27-2.828-0.807-3.609c-0.539-0.781-1.193-1.172-1.965-1.172
	c-0.693,0-1.324,0.42-1.893,1.26C669.564,377.597,669.281,378.817,669.281,380.419z"/>
<path d="M677.998,380.349c0-2.148,0.451-3.77,1.354-4.863s2.045-1.641,3.428-1.641c1.359,0,2.496,0.547,3.41,1.641
	s1.371,2.672,1.371,4.734c0,2.234-0.449,3.898-1.348,4.992s-2.043,1.641-3.434,1.641c-1.367,0-2.506-0.549-3.416-1.646
	S677.998,382.489,677.998,380.349z M679.768,380.343c0,1.611,0.293,2.81,0.879,3.596s1.313,1.18,2.18,1.18
	c0.813,0,1.51-0.397,2.092-1.191s0.873-1.988,0.873-3.584c0-1.604-0.293-2.799-0.879-3.585s-1.313-1.179-2.18-1.179
	c-0.82,0-1.52,0.395-2.098,1.185S679.768,378.747,679.768,380.343z"/>
<path d="M689.541,386.571v-17.18h1.723v17.18H689.541z"/>
<path d="M700.943,382.563l1.781,0.27c-0.297,1.328-0.834,2.33-1.611,3.006s-1.74,1.014-2.889,1.014c-1.445,0-2.615-0.549-3.51-1.646
	s-1.342-2.682-1.342-4.752c0-2.148,0.451-3.787,1.354-4.916s2.045-1.693,3.428-1.693c1.32,0,2.422,0.555,3.305,1.664
	s1.324,2.715,1.324,4.816l-0.012,0.563h-7.617c0.07,1.398,0.395,2.453,0.973,3.164s1.281,1.066,2.109,1.066
	C699.533,385.118,700.436,384.267,700.943,382.563z M695.26,379.153h5.695c-0.078-1.078-0.309-1.883-0.691-2.414
	c-0.555-0.773-1.262-1.16-2.121-1.16c-0.773,0-1.434,0.322-1.98,0.967S695.314,378.06,695.26,379.153z"/>
<path d="M613.475,403.956c0-2.148,0.451-3.77,1.354-4.863s2.045-1.641,3.428-1.641c1.359,0,2.496,0.547,3.41,1.641
	s1.371,2.672,1.371,4.734c0,2.234-0.449,3.898-1.348,4.992s-2.043,1.641-3.434,1.641c-1.367,0-2.506-0.549-3.416-1.646
	S613.475,406.097,613.475,403.956z M615.244,403.95c0,1.611,0.293,2.811,0.879,3.597s1.313,1.179,2.18,1.179
	c0.813,0,1.51-0.396,2.092-1.19s0.873-1.989,0.873-3.585c0-1.604-0.293-2.798-0.879-3.584s-1.313-1.18-2.18-1.18
	c-0.82,0-1.52,0.396-2.098,1.186S615.244,402.354,615.244,403.95z"/>
<path d="M626.658,410.179h-1.605v-17.18h1.734v6.129c0.367-0.563,0.783-0.982,1.248-1.26s0.982-0.416,1.553-0.416
	c0.797,0,1.521,0.238,2.174,0.715s1.174,1.199,1.564,2.168s0.586,2.145,0.586,3.527c0,2.109-0.443,3.736-1.326,4.881
	c-0.885,1.145-1.918,1.717-3.1,1.717c-0.594,0-1.129-0.154-1.602-0.463c-0.475-0.309-0.883-0.768-1.227-1.377V410.179z
	 M626.633,403.862c0,1.289,0.117,2.254,0.352,2.895s0.568,1.129,0.998,1.465c0.432,0.336,0.908,0.504,1.434,0.504
	c0.713,0,1.346-0.4,1.898-1.201c0.551-0.801,0.828-1.998,0.828-3.592c0-1.633-0.268-2.832-0.799-3.598
	c-0.533-0.766-1.188-1.148-1.963-1.148c-0.713,0-1.35,0.4-1.908,1.201C626.912,401.188,626.633,402.347,626.633,403.862z"/>
<path d="M635.354,406.452l1.723-0.328c0.102,0.879,0.377,1.533,0.83,1.961c0.451,0.428,1.051,0.641,1.801,0.641
	c0.748,0,1.326-0.186,1.734-0.557c0.41-0.371,0.615-0.842,0.615-1.412c0-0.492-0.176-0.875-0.527-1.148
	c-0.242-0.188-0.828-0.422-1.758-0.703c-1.344-0.414-2.242-0.766-2.695-1.055s-0.805-0.676-1.055-1.16s-0.375-1.035-0.375-1.652
	c0-1.063,0.34-1.926,1.02-2.59s1.621-0.996,2.824-0.996c0.758,0,1.424,0.137,1.998,0.41s1.014,0.641,1.318,1.102
	s0.516,1.121,0.633,1.98l-1.688,0.281c-0.156-1.359-0.895-2.039-2.215-2.039c-0.75,0-1.309,0.15-1.676,0.449
	c-0.367,0.301-0.551,0.684-0.551,1.15c0,0.459,0.176,0.82,0.527,1.085c0.211,0.155,0.838,0.405,1.879,0.747
	c1.432,0.454,2.357,0.816,2.777,1.086c0.42,0.271,0.748,0.639,0.98,1.104c0.234,0.467,0.352,1.02,0.352,1.662
	c0,1.189-0.377,2.151-1.131,2.887c-0.754,0.736-1.783,1.104-3.088,1.104C637.162,410.46,635.744,409.124,635.354,406.452z"/>
<path d="M649.709,408.292l0.234,1.863c-0.477,0.125-0.906,0.188-1.289,0.188c-0.602,0-1.086-0.119-1.453-0.357
	s-0.619-0.564-0.756-0.979s-0.205-1.238-0.205-2.473v-7.16h-1.266v-1.641h1.266v-3.082l1.723-1.266v4.348h1.746v1.641h-1.746v7.277
	c0,0.672,0.051,1.105,0.152,1.301c0.148,0.281,0.426,0.422,0.832,0.422C649.143,408.374,649.396,408.347,649.709,408.292z"/>
<path d="M651.338,410.179v-12.445h1.559v1.887c0.398-0.875,0.764-1.455,1.096-1.74s0.705-0.428,1.119-0.428
	c0.578,0,1.168,0.227,1.77,0.68l-0.586,1.957c-0.43-0.305-0.848-0.457-1.254-0.457c-0.367,0-0.703,0.129-1.008,0.387
	s-0.52,0.617-0.645,1.078c-0.219,0.805-0.328,1.66-0.328,2.566v6.516H651.338z"/>
<path d="M664.568,410.179v-1.828c-0.398,0.703-0.867,1.23-1.406,1.582s-1.148,0.527-1.828,0.527c-0.805,0-1.492-0.217-2.063-0.65
	s-0.951-0.982-1.143-1.646s-0.287-1.57-0.287-2.719v-7.711h1.723v6.902c0,1.281,0.064,2.139,0.193,2.572s0.367,0.781,0.715,1.043
	s0.744,0.393,1.189,0.393c0.828,0,1.508-0.34,2.039-1.02c0.453-0.586,0.68-1.66,0.68-3.223v-6.668h1.734v12.445H664.568z"/>
<path d="M675.514,405.62l1.699,0.27c-0.195,1.484-0.686,2.617-1.471,3.398s-1.729,1.172-2.83,1.172
	c-1.336,0-2.436-0.549-3.299-1.646s-1.295-2.721-1.295-4.869c0-2.164,0.436-3.787,1.307-4.869s1.99-1.623,3.357-1.623
	c1.055,0,1.943,0.328,2.666,0.984s1.186,1.641,1.389,2.953l-1.676,0.305c-0.164-0.84-0.449-1.467-0.855-1.883
	s-0.895-0.625-1.465-0.625c-0.852,0-1.557,0.377-2.115,1.131s-0.838,1.951-0.838,3.592c0,1.695,0.268,2.922,0.803,3.68
	s1.221,1.137,2.057,1.137c0.656,0,1.217-0.252,1.682-0.756S675.389,406.683,675.514,405.62z"/>
<path d="M682.521,408.292l0.234,1.863c-0.477,0.125-0.906,0.188-1.289,0.188c-0.602,0-1.086-0.119-1.453-0.357
	s-0.619-0.564-0.756-0.979s-0.205-1.238-0.205-2.473v-7.16h-1.266v-1.641h1.266v-3.082l1.723-1.266v4.348h1.746v1.641h-1.746v7.277
	c0,0.672,0.051,1.105,0.152,1.301c0.148,0.281,0.426,0.422,0.832,0.422C681.955,408.374,682.209,408.347,682.521,408.292z"/>
<path d="M684.15,395.425v-2.426h1.723v2.426H684.15z M684.15,410.179v-12.445h1.723v12.445H684.15z"/>
<path d="M688.521,410.179v-12.445h1.559v1.758c0.373-0.683,0.832-1.193,1.375-1.531c0.541-0.338,1.162-0.508,1.865-0.508
	c0.545,0,1.051,0.107,1.514,0.322c0.465,0.215,0.84,0.496,1.123,0.844c0.285,0.348,0.498,0.799,0.639,1.354s0.211,1.406,0.211,2.555
	v7.652h-1.723v-7.578c0-0.915-0.078-1.584-0.234-2.006s-0.4-0.749-0.732-0.979c-0.332-0.231-0.717-0.347-1.154-0.347
	c-0.828,0-1.488,0.31-1.98,0.928c-0.492,0.617-0.738,1.678-0.738,3.179v6.804H688.521z"/>
<path d="M699.127,411.21l1.688,0.305c0.078,0.668,0.313,1.166,0.703,1.492s0.934,0.488,1.629,0.488c0.758,0,1.361-0.182,1.811-0.545
	s0.756-0.904,0.92-1.623c0.102-0.438,0.152-1.359,0.152-2.766c-0.375,0.535-0.797,0.938-1.266,1.211
	c-0.469,0.271-0.988,0.406-1.559,0.406c-1.219,0-2.23-0.516-3.035-1.547c-0.922-1.188-1.383-2.777-1.383-4.77
	c0-1.336,0.203-2.504,0.609-3.504s0.939-1.734,1.6-2.203s1.4-0.703,2.221-0.703c0.602,0,1.15,0.148,1.646,0.443
	s0.936,0.736,1.318,1.326v-1.488h1.594v10.758c0,1.914-0.156,3.279-0.469,4.096s-0.824,1.461-1.535,1.934s-1.566,0.709-2.566,0.709
	c-1.32,0-2.336-0.355-3.047-1.066S699.104,412.468,699.127,411.21z M700.557,403.733c0,1.637,0.27,2.832,0.811,3.584
	c0.539,0.752,1.201,1.127,1.984,1.127s1.447-0.367,1.996-1.104c0.547-0.736,0.822-1.908,0.822-3.514c0-1.566-0.283-2.73-0.846-3.494
	c-0.564-0.764-1.248-1.146-2.055-1.146c-0.721,0-1.354,0.383-1.896,1.146C700.828,401.097,700.557,402.229,700.557,403.733z"/>
<path d="M613.463,430.062l1.723-0.328c0.102,0.879,0.377,1.532,0.83,1.96c0.451,0.428,1.051,0.642,1.801,0.642
	c0.748,0,1.326-0.186,1.734-0.557c0.41-0.371,0.615-0.842,0.615-1.412c0-0.492-0.176-0.875-0.527-1.148
	c-0.242-0.188-0.828-0.422-1.758-0.703c-1.344-0.414-2.242-0.766-2.695-1.055s-0.805-0.676-1.055-1.16s-0.375-1.035-0.375-1.652
	c0-1.063,0.34-1.926,1.02-2.59s1.621-0.996,2.824-0.996c0.758,0,1.424,0.137,1.998,0.41s1.014,0.641,1.318,1.102
	s0.516,1.121,0.633,1.98l-1.688,0.281c-0.156-1.359-0.895-2.039-2.215-2.039c-0.75,0-1.309,0.15-1.676,0.449
	c-0.367,0.3-0.551,0.684-0.551,1.149c0,0.46,0.176,0.821,0.527,1.086c0.211,0.155,0.838,0.404,1.879,0.747
	c1.432,0.454,2.357,0.816,2.777,1.086s0.748,0.638,0.98,1.104c0.234,0.466,0.352,1.02,0.352,1.661c0,1.189-0.377,2.152-1.131,2.888
	c-0.754,0.736-1.783,1.104-3.088,1.104C615.271,434.069,613.854,432.733,613.463,430.062z"/>
<path d="M623.975,419.034v-2.426h1.723v2.426H623.975z M623.975,433.788v-12.445h1.723v12.445H623.975z"/>
<path d="M634.955,433.788v-1.57c-0.313,0.602-0.715,1.061-1.207,1.377s-1.023,0.475-1.594,0.475c-1.203,0-2.244-0.568-3.123-1.705
	s-1.318-2.736-1.318-4.799c0-1.414,0.193-2.613,0.584-3.598s0.91-1.715,1.563-2.191c0.65-0.477,1.375-0.715,2.17-0.715
	c0.57,0,1.098,0.15,1.586,0.451c0.486,0.301,0.891,0.721,1.211,1.26v-6.164h1.746v17.18H634.955z M629.482,427.577
	c0,1.609,0.279,2.805,0.838,3.586s1.209,1.172,1.953,1.172c0.734,0,1.371-0.375,1.91-1.125s0.811-1.883,0.811-3.398
	c0-1.742-0.271-3.014-0.811-3.814s-1.219-1.201-2.039-1.201c-0.729,0-1.354,0.385-1.877,1.154S629.482,425.929,629.482,427.577z"/>
<path d="M646.264,429.78l1.781,0.27c-0.297,1.328-0.834,2.33-1.611,3.006s-1.74,1.014-2.889,1.014c-1.445,0-2.615-0.549-3.51-1.646
	s-1.342-2.682-1.342-4.752c0-2.148,0.451-3.787,1.354-4.916s2.045-1.693,3.428-1.693c1.32,0,2.422,0.555,3.305,1.664
	s1.324,2.715,1.324,4.816l-0.012,0.563h-7.617c0.07,1.398,0.395,2.453,0.973,3.164s1.281,1.066,2.109,1.066
	C644.854,432.335,645.756,431.483,646.264,429.78z M640.58,426.37h5.695c-0.078-1.078-0.309-1.883-0.691-2.414
	c-0.555-0.773-1.262-1.16-2.121-1.16c-0.773,0-1.434,0.322-1.98,0.967S640.635,425.276,640.58,426.37z"/>
<path d="M652.117,433.788l-3.135-12.445h1.787l1.625,7.184l0.602,2.672l0.539-2.566l1.619-7.289h1.785l1.52,7.219l0.514,2.379
	l0.584-2.402l1.742-7.195h1.688l-3.186,12.445H658l-1.629-7.453l-0.387-2.121l-2.063,9.574H652.117z"/>
<path d="M671.084,432.253c-0.578,0.602-1.18,1.055-1.805,1.359s-1.273,0.457-1.945,0.457c-1.063,0-1.91-0.32-2.543-0.961
	s-0.949-1.504-0.949-2.59c0-0.719,0.148-1.355,0.445-1.91s0.703-0.988,1.219-1.301s1.297-0.543,2.344-0.691
	c1.406-0.207,2.438-0.453,3.094-0.738l0.012-0.539c0-0.852-0.152-1.449-0.457-1.793c-0.43-0.5-1.09-0.75-1.98-0.75
	c-0.805,0-1.406,0.167-1.805,0.5c-0.398,0.334-0.691,0.961-0.879,1.879l-1.699-0.281c0.242-1.336,0.732-2.309,1.471-2.918
	s1.795-0.914,3.17-0.914c1.07,0,1.91,0.201,2.52,0.604s0.994,0.9,1.154,1.494s0.24,1.461,0.24,2.602v2.813
	c0,1.969,0.037,3.209,0.111,3.721s0.221,1.01,0.439,1.494h-1.805C671.256,433.358,671.139,432.847,671.084,432.253z
	 M670.943,427.542c-0.633,0.313-1.574,0.578-2.824,0.797c-0.727,0.125-1.234,0.268-1.523,0.428s-0.514,0.387-0.674,0.68
	s-0.24,0.631-0.24,1.014c0,0.594,0.184,1.068,0.551,1.424s0.875,0.533,1.523,0.533c0.617,0,1.178-0.16,1.682-0.48
	s0.881-0.748,1.131-1.283s0.375-1.314,0.375-2.338V427.542z"/>
<path d="M675.326,433.788v-17.18h1.723v17.18H675.326z"/>
<path d="M679.791,433.788v-17.18h1.723v9.813l4.105-5.078h2.24l-3.904,4.621l4.291,7.824h-2.121l-3.391-6.379l-1.221,1.445v4.934
	H679.791z"/>
</svg>
